<?xml version="1.0" encoding="UTF-8"?>
<svg width="93px" height="28px" viewBox="0 0 93 28" version="1.1" xmlns="http://www.w3.org/2000/svg" xmlns:xlink="http://www.w3.org/1999/xlink">
    <!-- Generator: Sketch 58 (84663) - https://sketch.com -->
    <title>meetic</title>
    <desc>Created with Sketch.</desc>
    <g id="WEB" stroke="none" stroke-width="1" fill="none" fill-rule="evenodd">
        <g id="Group-33" transform="translate(-249.000000, -8.000000)" fill="#1F2E77" fill-rule="nonzero">
            <g id="meetic" transform="translate(249.000000, 8.000000)">
                <path d="M33.0654395,6.12658077 C37.3041791,6.12658077 40.768383,9.49719468 40.9000541,13.6902848 L40.9039364,13.9378666 L40.9039364,15.4544129 L28.2597504,15.4544129 C28.5602125,19.9545136 33.573592,21.5471418 37.3293675,22.8465536 C38.5882385,23.2814678 39.6905684,23.662815 40.5259298,24.1100197 L40.7684188,24.2462763 L40.9034719,24.3265249 L40.9034719,27.9300006 L40.4419372,27.5102381 C39.2597586,26.4376833 37.3583295,25.74168 35.3449242,25.0040092 C31.0964451,23.4489149 25.9536853,21.7092317 25.2880492,15.780437 L25.2562142,15.4528697 L25.2270973,14.6920502 L25.2270973,13.9389469 C25.2270973,12.3910728 25.6805782,10.8941257 26.5389083,9.61014637 C27.9978529,7.42907905 30.4377905,6.12658077 33.0654395,6.12658077 Z M49.6011983,6.10609582 C52.2150595,6.10609582 54.6412921,7.40996548 56.0939507,9.59332923 C56.9489088,10.8780425 57.4002652,12.3759478 57.4002652,13.9254517 L57.4002652,13.9254517 L57.4002652,14.6793479 L57.3709965,15.4409684 C56.8626429,21.6405288 51.6389256,23.4169741 47.3364064,25.0009285 C45.3338016,25.7387581 43.4421105,26.4361121 42.2667356,27.5097963 L42.2667356,27.5097963 L41.8076771,27.9300006 L41.8076771,24.3238123 L41.943238,24.2434791 C42.7966557,23.7355261 43.9858948,23.3213466 45.364611,22.8418192 C49.1011633,21.5418116 54.087957,19.9459617 54.3861912,15.4415864 L54.3861912,15.4415864 L41.8089093,15.4415864 L41.8049042,15.4432857 L41.8049042,13.9262241 C41.8049042,9.61449395 45.3026843,6.10609582 49.6011983,6.10609582 Z M16.8443814,6.12658077 C19.0510378,6.12658077 21.0992351,7.22042384 22.3240022,9.0537969 C22.988723,10.0498054 23.3645331,11.1988046 23.4184168,12.3923864 L23.4251618,12.6916479 L23.4251618,23.6050463 L20.5254982,23.6050463 L20.5254982,12.6913388 C20.5254982,11.9637068 20.3132899,11.2606434 19.9105589,10.6586357 C19.2249867,9.63200863 18.0787521,9.01964811 16.8442265,9.01964811 C14.8800882,9.01964811 13.2703422,10.5625592 13.1685314,12.4969469 L13.1634195,12.6916479 L13.1634195,23.6050463 L10.2629814,23.6050463 L10.2629814,12.6913388 C10.2629814,11.9637068 10.0501536,11.2606434 9.64773231,10.6586357 C8.96185033,9.63200863 7.81546089,9.01964811 6.58139998,9.01964811 C4.61666202,9.01964811 3.00689669,10.5625592 2.90508533,12.4969469 L2.89997341,12.6916479 L2.89997341,23.6053555 L8.27782287e-13,23.6053555 L8.27782287e-13,12.6916479 C8.27782287e-13,9.07172116 2.95232845,6.12658077 6.58186467,6.12658077 C8.59242204,6.12658077 10.4694586,7.03747283 11.7142073,8.58653013 C12.921626,7.08769166 14.7718654,6.12658077 16.8443814,6.12658077 Z M84.1617118,5.85315896 C87.1393306,5.85315896 89.9030445,7.33263777 91.5569327,9.81134569 C91.7603748,10.115762 91.9420197,10.429764 92.1038289,10.7533515 L92.2590988,11.0801343 L88.8955212,11.0801343 C87.7655452,9.61769664 86.0248549,8.75479644 84.1632618,8.75479644 C80.8663356,8.75479644 78.1832237,11.4364486 78.1832237,14.731581 C78.1832237,17.951824 80.7457619,20.5861553 83.9408935,20.7042343 L84.1648118,20.7083655 C85.9368718,20.7054146 87.5973012,19.9225982 88.7275348,18.5847423 L88.8930411,18.3799292 L92.2566187,18.3799292 C92.0613143,18.8106047 91.8326839,19.2288867 91.5676278,19.6285783 C89.9163747,22.1181306 87.1469257,23.6053555 84.1604717,23.6053555 C79.2635986,23.6053555 75.2784566,19.6239308 75.2784566,14.7300318 C75.2784566,9.83458358 79.2635986,5.85315896 84.1617118,5.85315896 Z M63.4821757,0 L63.4821757,6.08863879 L68.2933565,6.08863879 L68.2933565,8.99330201 L63.4821757,8.99330201 L63.4821757,23.5798033 L60.5848689,23.5782583 L60.5848689,8.99422893 L57.9663862,8.99422893 L57.9663862,6.08863879 L60.5848689,6.08863879 L60.5848689,0 L63.4821757,0 Z M73.2031137,5.97554516 L73.2031137,23.513953 L70.3009817,23.513953 L70.3009817,5.97554516 L73.2031137,5.97554516 Z M33.0575407,8.80488144 C31.3709265,8.80488144 29.8035678,9.64162856 28.8681087,11.0418142 C28.6030103,11.4381708 28.3974967,11.8662496 28.25587,12.3181023 L28.1785949,12.5920032 L28.0969744,12.913461 L38.0167131,12.9136153 L37.9361768,12.5910773 C37.3708747,10.3615521 35.3652131,8.80488144 33.0575407,8.80488144 Z M49.6127519,8.78829786 C47.3168426,8.78829786 45.3213239,10.346762 44.7596704,12.5783257 L44.7596704,12.5783257 L44.6787959,12.9012033 L54.5491724,12.9019758 L54.4675276,12.5790981 C54.3288858,12.0260349 54.097816,11.5043325 53.7804802,11.0275859 C52.8483448,9.625617 51.2909346,8.78829786 49.6127519,8.78829786 Z M71.7522802,3.26849658e-13 C72.6668012,3.26849658e-13 73.4092684,0.742063188 73.4092684,1.65639658 C73.4092684,2.57119472 72.6668012,3.31170873 71.7522802,3.31170873 C70.836984,3.31170873 70.095292,2.57119472 70.095292,1.65608674 C70.095292,0.741598431 70.836984,3.26849658e-13 71.7522802,3.26849658e-13 Z" id="Combined-Shape"></path>
            </g>
        </g>
    </g>
</svg>