<?xml version="1.0" encoding="UTF-8"?>
<svg width="49px" height="49px" viewBox="0 0 49 49" version="1.1" xmlns="http://www.w3.org/2000/svg" xmlns:xlink="http://www.w3.org/1999/xlink">
    <!-- Generator: Sketch 58 (84663) - https://sketch.com -->
    <title>Group</title>
    <desc>Created with Sketch.</desc>
    <g id="WEB" stroke="none" stroke-width="1" fill="none" fill-rule="evenodd">
        <g id="Group-33" transform="translate(-2033.000000, -1.000000)" fill="#1F2E77">
            <g id="Group" transform="translate(2033.000000, 1.000000)">
                <path d="M24.0936941,0 C37.4002738,0 48.1873882,10.7871143 48.1873882,24.0936941 C48.1873882,37.4002738 37.4002738,48.1873882 24.0936941,48.1873882 C10.7871143,48.1873882 0,37.4002738 0,24.0936941 C0,10.7871143 10.7871143,0 24.0936941,0 Z M21.4308737,22.140543 C21.2127087,22.2633196 21.0310609,22.5670031 21.0312953,22.8130709 L21.0304161,25.3686888 C21.0306506,25.6146994 21.2164015,25.9129529 21.4348009,26.0361869 L23.7161551,27.3227124 C23.9284,27.4342861 24.2587541,27.4357723 24.473285,27.3269993 C24.473285,27.3269993 34.5953913,21.6275444 34.9026512,21.4545254 C35.3783704,21.1867374 35.6478821,20.7051191 35.6586673,20.2060102 L35.6577881,19.2788407 C35.6570845,18.3494991 34.9815469,17.2084993 34.1565409,16.7432283 L25.5937693,11.9145275 C24.7687633,11.4492565 23.4193287,11.448342 22.5949089,11.9124697 L14.0391126,16.729453 C13.2147513,17.1935809 12.5280766,18.3408682 12.528721,19.2702097 L12.5356965,28.9158367 C12.5363414,29.8451785 13.2247158,30.9790334 14.0497219,31.4442472 L22.6124933,36.2729481 C23.3635273,36.6964933 24.5490156,36.7350754 25.3774799,36.3885229 L34.3849049,31.3172979 C35.0611461,30.8242481 35.5936632,29.8978214 35.657964,29.0871983 L35.657964,25.1073025 C35.6493476,24.9830968 35.6124201,24.858834 35.5443094,24.743774 C35.3059222,24.341206 34.7779771,24.2032249 34.3651515,24.435689 C34.3646826,24.4359177 24.8001223,29.8179136 24.8001223,29.8179136 C24.4201799,30.0318012 23.8037845,30.0351734 23.4138776,29.8294597 L19.3612369,27.5454023 C18.9971792,27.3400887 18.6896849,26.8580703 18.6527574,26.4382403 L18.6527574,21.7091098 C18.6953119,21.3312915 18.9492907,20.9067746 19.2638774,20.6827701 L23.4801712,18.3089736 C23.8703712,18.140756 24.4351267,18.1568746 24.7918575,18.3580729 L25.5681546,18.7957934 C25.7366727,18.9045662 25.8478653,19.0910175 25.8478653,19.3029045 C25.8478653,19.5242797 25.7264151,19.717933 25.5450016,19.8241908 L21.4308737,22.140543 Z" id="Shape"></path>
            </g>
        </g>
    </g>
</svg>