<?xml version="1.0" encoding="UTF-8"?>
<svg width="146px" height="32px" viewBox="0 0 1241 272" version="1.1" xmlns="http://www.w3.org/2000/svg" xmlns:xlink="http://www.w3.org/1999/xlink">
    <!-- Generator: Sketch 61 (89581) - https://sketch.com -->
    <title>logo mindsay</title>
    <desc>Created with Sketch.</desc>
    <g id="Page-1" stroke="none" stroke-width="1" fill="none" fill-rule="evenodd">
        <g id="logo-mindsay" fill-rule="nonzero">
            <path d="M135.7,0 C27.13,0 0,27.13 0,135.7 C0,244.28 27.13,271.4 135.7,271.4 C244.28,271.4 271.400003,244.27 271.400003,135.7 C271.41,27.13 244.28,0 135.7,0 Z" id="Path" fill="#263471"></path>
            <path d="M64.05,107.81 C64.05,96.7999 72.97,87.8899 83.97,87.8899 C89.47,87.8899 94.45,90.1199 98.06,93.7199 C101.67,97.3199 103.89,102.3 103.89,107.81 L103.89,107.85 C103.89,118.86 94.97,127.77 83.97,127.77 C72.97,127.77 64.05,118.85 64.05,107.85 L64.05,107.81 Z" id="Path" fill="#FFFFFF"></path>
            <path d="M151.59,147.72 L151.59,175.58 C151.59,193.23 137.29,207.52 119.66,207.52 L95.79,207.53 C78.17,207.53 63.86,193.23 63.86,175.59 C63.86,157.95 78.16,143.65 95.8,143.65 L147.51,143.64 L147.54,143.64 C148.66,143.64 149.67,144.1 150.4,144.83 C151.13,145.57 151.59,146.58 151.59,147.7 L151.59,147.72 Z" id="Path" fill="#FFFFFF"></path>
            <path d="M207.34,163.59 C207.34,174.59 198.42,183.51 187.42,183.51 C176.42,183.51 167.5,174.59 167.5,163.59 L167.5,163.55 C167.5,152.55 176.42,143.63 187.42,143.63 C192.92,143.63 197.9,145.86 201.51,149.46 C205.12,153.07 207.34,158.05 207.34,163.55 L207.34,163.59 L207.34,163.59 Z" id="Path" fill="#FFFFFF"></path>
            <path d="M175.56,127.76 L123.9,127.77 L123.86,127.77 C122.75,127.76 121.73,127.31 121,126.58 C120.27,125.84 119.81,124.83 119.81,123.71 L119.81,123.69 L119.81,95.8299 C119.81,78.1799 134.12,63.8899 151.78,63.8899 L175.56,63.8799 C193.2,63.8799 207.54,78.1799 207.54,95.8199 C207.54,113.46 193.22,127.76 175.56,127.76 Z" id="Path" fill="#FFFFFF"></path>
            <path d="M792.28,174.89 C808.36,174.89 820.95,162.74 820.95,146.62 C820.95,130.73 808.36,118.35 792.28,118.35 C776.43,118.35 763.61,130.96 763.61,146.62 C763.61,162.51 776.43,174.89 792.28,174.89 Z M820.9,40.66 L853.79,40.66 L853.79,204.03 L820.9,204.03 L820.9,187.69 C812.97,199.59 800.61,206.36 784.51,206.36 C754.88,206.36 731.32,179.52 731.32,146.61 C731.32,113.7 754.88,87.1 784.51,87.1 C800.61,87.1 812.97,93.87 820.9,105.77 L820.9,40.66 Z M666.11,87.17 C695.51,87.17 713.24,106.78 713.24,139.23 L713.24,204.13 L680.34,204.13 L680.34,143.43 C680.34,128.49 671.24,118.68 657.71,118.68 C643.94,118.68 635.08,128.49 635.08,143.43 L635.08,204.13 L602.18,204.13 L602.18,89.5 L635.08,89.5 L635.08,104.44 C642.31,93.47 653.04,87.17 666.11,87.17 Z M545.95,89.4 L578.79,89.4 L578.79,203.86 L545.95,203.86 L545.95,89.4 Z M562.1,33.98 C573.05,33.98 582.14,43.06 582.14,53.78 C582.14,64.73 573.05,73.81 562.1,73.81 C551.15,73.81 542.06,64.73 542.06,53.78 C542.06,43.06 551.15,33.98 562.1,33.98 Z M475.93,87.17 C503.24,87.17 522.85,105.15 522.85,132.93 L522.85,204.14 L489.7,204.14 L489.7,140.64 C489.7,127.1 482,118.69 470.09,118.69 C459.12,118.69 449.31,125.93 449.31,140.64 L449.31,204.14 L416.4,204.14 L416.4,140.64 C416.4,127.1 408.7,118.69 396.56,118.69 C385.82,118.69 376.25,125.69 376.25,140.64 L376.25,204.14 L343.33,204.14 L343.33,89.5 L376.25,89.5 L376.25,103.27 C384.89,90.66 398.43,87.16 408.93,87.16 C423.87,87.16 434.38,92.06 441.38,103.97 C448.15,94.17 461.45,87.17 475.93,87.17 Z" id="Shape" fill="#263471"></path>
            <path d="M1046.12,175.08 C1061.18,173.83 1072.58,161.41 1072.26,146.3 C1071.93,130.73 1059.45,118.69 1043.57,118.69 C1027.7,118.69 1014.87,131.3 1014.87,146.94 C1014.87,163.65 1029.1,176.49 1046.12,175.08 Z M1072.22,89.58 L1105.15,89.58 L1105.15,204.29 L1072.22,204.29 L1072.22,187.94 C1064.28,199.86 1051.9,206.63 1035.79,206.63 C1006.13,206.63 982.55,179.76 982.55,146.82 C982.55,113.88 1006.14,87.24 1035.79,87.24 C1051.9,87.24 1064.28,94.02 1072.22,105.93 L1072.22,89.58 Z" id="Shape" fill="#263471"></path>
            <path d="M924.54,206.63 C904.99,206.63 887.06,201.96 873.33,192.14 L883.11,169.24 C893.82,177.18 907.78,181.39 921.75,181.39 C931.99,181.39 938.51,177.42 938.51,172.04 C938.28,154.52 876.83,167.6 876.36,125.31 C876.13,103.82 895.21,87.23 922.21,87.23 C938.27,87.23 954.33,91.2 965.74,100.31 L956.43,124.14 C947.58,117.36 933.15,112.22 920.82,112.22 C912.44,112.22 906.85,116.19 906.85,121.33 C907.08,137.92 969,128.81 969.7,169.93 C969.7,191.21 951.08,206.63 924.54,206.63 Z" id="Path" fill="#263471"></path>
            <polygon id="Path" fill="#263471" points="1240.44 89.5901 1176.57 242.59 1141.24 242.59 1162.53 195.1 1118.31 89.5901 1153.87 89.5901 1179.37 156.73 1204.87 89.5901"></polygon>
        </g>
    </g>
</svg>