<?xml version="1.0" encoding="UTF-8"?>
<svg width="111px" height="29px" viewBox="0 0 111 29" version="1.1" xmlns="http://www.w3.org/2000/svg" xmlns:xlink="http://www.w3.org/1999/xlink">
    <!-- Generator: Sketch 58 (84663) - https://sketch.com -->
    <title>shapr</title>
    <desc>Created with Sketch.</desc>
    <g id="WEB" stroke="none" stroke-width="1" fill="none" fill-rule="evenodd">
        <g id="Group-33" transform="translate(-693.000000, -8.000000)" fill="#1F2E77" fill-rule="nonzero">
            <g id="shapr" transform="translate(693.000000, 8.000000)">
                <path d="M8.41658725,0.0997642632 C3.16534612,0.840801351 -0.573129049,5.75838079 0.0724990444,11.0756469 C0.620967902,15.5918729 4.10941554,19.1307167 8.58636722,19.7124125 L8.86657045,19.7487476 L8.84236356,18.6476925 C8.8290995,18.0419956 8.81152462,17.5389704 8.80323458,17.5296366 C8.79494453,17.5203028 8.56779752,17.4663001 8.29853711,17.4092972 C2.64638978,16.2175709 0.299977664,9.42956453 3.99700263,4.96434106 C8.00374339,0.124765514 15.7595706,1.99085891 17.2856006,8.16183442 L17.3416413,8.38851244 L18.446869,8.38384552 C19.3110225,8.38051202 19.5524284,8.36384453 19.5527668,8.30750838 C19.5547496,7.84748535 19.1256572,6.48875069 18.6985545,5.60137295 C16.8134001,1.68851044 12.7118213,-0.506266066 8.41658725,0.0997642632 M49.5759586,0.0724295619 C49.1617882,0.171101167 48.7446337,0.574121336 48.6262519,0.990142157 C48.5085334,1.40382953 48.571206,20.668127 48.6909142,20.888138 C49.2320878,21.8821878 50.6523369,21.8821878 51.1812413,20.8878047 C51.3036022,20.6581265 51.3039338,20.6501261 51.3344413,16.7409304 C51.3569901,13.8374518 51.3828549,12.7667316 51.4339217,12.6017233 C52.7546905,8.35351068 58.239379,8.24217177 59.6287892,12.4350483 L59.7577822,12.8240678 L59.7863,16.7409304 C59.8148175,20.6517928 59.8151491,20.6581265 59.9375103,20.8878047 C60.4004259,21.7585148 61.5606994,21.8965218 62.2073224,21.1581515 C62.5671099,20.7471309 62.5584884,20.8674703 62.537929,16.4459157 L62.5193593,12.4350483 L62.3727915,11.9073552 C61.0573283,7.16878472 55.7473938,5.06234596 51.7181042,7.68081034 L51.3589798,7.91415535 L51.3314568,4.47998348 C51.3006179,0.62912409 51.3261511,0.861135701 50.8818052,0.41878023 C50.5379344,0.0767631122 50.074024,-0.0465763941 49.5759586,0.0724295619 M39.2658051,6.60508983 C35.0796679,7.25978927 32.9640504,10.5706216 35.0577822,13.1907528 C35.6404062,13.9197892 35.9829504,14.0777972 39.5702152,15.2708569 C41.0995613,15.779549 42.5745248,16.2709069 42.8480961,16.3625782 C43.8687654,16.7045953 43.9821731,17.1409505 43.2337485,17.8449857 C42.5025673,18.5323534 41.6679263,18.8190344 40.3886077,18.8213679 C38.9242556,18.8237014 38.1307332,18.4943515 36.909445,17.3769623 C36.2571848,16.7799324 36.1460984,16.7202628 35.6908095,16.7212628 C34.6383063,16.7239296 34.0119112,17.7513143 34.4758217,18.7146959 C34.7563565,19.2973917 36.0708247,20.3877796 37.1163643,20.9044721 C41.8576023,23.2489229 48.0469442,19.6607432 46.1422252,15.6718769 C45.5655702,14.4644832 45.0857427,14.1941363 41.2736521,12.9300731 C39.768513,12.4310481 38.2885755,11.9396902 37.984497,11.8383518 C36.8699843,11.4669998 36.7267326,11.0526458 37.4662038,10.3392767 C39.0141197,8.8455353 41.9179537,8.99487611 43.6770996,10.6582927 C44.5346212,11.4696666 44.886782,11.6070068 45.5251148,11.3806622 C46.6648291,10.976642 46.7304863,9.82025074 45.6736722,8.76586466 C43.9218217,7.01777716 41.6108909,6.23840481 39.2658051,6.60508983 M71.4208697,6.55642073 C64.6028116,7.44579858 62.2849172,16.0172276 67.7447357,20.1514345 C70.2857977,22.0758641 73.8163587,22.1465344 76.4754712,20.3261099 C76.7221825,20.1571014 76.9320863,20.0187612 76.9420345,20.0187612 C76.9516508,20.0187612 76.9751945,20.169102 76.9944274,20.3527779 C77.1463008,21.8161844 79.0178597,22.1292001 79.6479026,20.7968001 C79.8200037,20.4327819 79.8329361,13.7561144 79.6631561,12.7963997 C78.9691143,8.86520295 75.258162,6.05606235 71.4208697,6.55642073 M88.3156337,6.60175633 C84.9674537,7.11678212 82.3759879,9.83191801 82.0049258,13.2130872 C81.9253415,13.9391236 81.9309788,26.8671039 82.0108947,27.1571185 C82.3232634,28.2878417 83.8993651,28.4998522 84.5178019,27.4944686 L84.6849291,27.222455 L84.6991879,23.6902782 C84.7071465,21.7471809 84.7247214,20.1267666 84.7386486,20.089098 C84.7548971,20.0450958 84.9495472,20.1474343 85.2851278,20.3761124 C87.8862099,22.1488677 91.4744695,22.0575298 93.9724235,20.1544346 C98.1396594,16.9796091 97.9678899,10.6762936 93.6348532,7.7811487 C92.087269,6.74709694 90.1553589,6.31874218 88.3156337,6.60175633 M100.056316,6.59642273 C99.7273674,6.71942889 99.4564489,6.96610792 99.2893217,7.29479102 L99.1374482,7.59380599 L99.1374482,14.0551294 C99.1374482,21.2521563 99.1119149,20.7711321 99.5168004,21.2004871 C100.056316,21.7721823 100.96192,21.788183 101.506741,21.2358221 C101.888414,20.848136 101.869845,21.0458126 101.902673,16.9909429 C101.931191,13.4364317 101.935833,13.3107588 102.052889,12.8910711 C102.826846,10.1172656 105.586434,8.67452675 108.343369,9.60190649 C109.591185,10.0212608 110.466945,9.51690223 110.466945,8.37917863 C110.466945,6.18940236 105.388468,5.83171779 102.458769,7.81515041 C101.897367,8.19516942 101.901015,8.19483607 101.899357,7.86548626 C101.895378,6.96077431 100.904884,6.27874016 100.056316,6.59642273 M72.8676469,9.35522749 C75.861345,9.76458129 77.7713696,12.994743 76.6658103,15.7782156 C75.450491,18.8377021 71.735891,19.8227513 69.2263311,17.7506476 C67.3623992,16.211904 66.9644773,13.4670999 68.3111109,11.4349982 C69.3065786,9.93325641 71.1015374,9.11388206 72.8676469,9.35522749 M90.0751112,9.35489413 C93.2356049,9.7525807 95.1360132,13.2444221 93.7499189,16.1082321 C92.0809686,19.5577381 87.3831704,19.7947499 85.4101417,16.5292532 C83.3757664,13.1634181 86.1714986,8.86386956 90.0751112,9.35489413" id="path0"></path>
                <path d="M83.3058916,28.1075718 C83.4728712,28.1075718 83.5411208,28.1178826 83.4576309,28.1305214 C83.3741412,28.1431603 83.237642,28.1431603 83.1541523,28.1305214 C83.0706626,28.1178826 83.1389122,28.1075718 83.3058916,28.1075718 Z M19.5356181,7.92957588 C19.5392625,7.87469648 19.5674238,7.95452107 19.5985668,8.10685302 C19.6615154,8.41617336 19.707236,8.46506592 19.9345136,8.46639633 C20.8697977,8.47138537 22.9235795,9.22473004 24.0844847,9.98838537 C30.1219208,13.9599919 29.9715069,22.9678654 23.8051917,26.7069827 C18.0278328,30.2102848 10.4375535,26.9108681 9.08879632,20.3100388 C8.97018784,19.7303127 9.02882946,19.8031526 8.62330777,19.7306453 L8.62330777,19.7306453 L8.2919992,19.6711094 L8.62330777,19.7096913 C8.67974253,19.7161809 8.78225634,19.7223196 8.91553491,19.7277022 L8.87381883,19.4434555 C8.78781167,18.8790464 8.86415136,16.9308712 8.99649571,16.3166027 C9.91123849,12.0712359 13.2715181,8.97363398 17.5585415,8.42385033 C18.0375814,8.36235702 19.5117041,8.3530499 19.603045,8.41088688 C19.6098338,8.41516735 19.6165029,8.42271998 19.6230342,8.43332055 C19.5707369,8.20929459 19.5319738,7.98478791 19.5356181,7.92957588 Z M83.9960075,27.9282992 C84.2113579,27.7899365 84.2507837,27.7889388 84.0867859,27.9263036 C84.014892,27.9861721 83.9280891,28.0353971 83.8933017,28.0350662 C83.8588456,28.0350662 83.9048975,27.9868371 83.9960075,27.9282992 Z M82.3947932,27.8072319 L82.5604475,27.9043519 C82.7784485,28.0327364 82.7817614,28.0353971 82.7138432,28.0353971 C82.6817063,28.0353971 82.5968913,27.9841764 82.5249974,27.9213144 L82.5249974,27.9213144 L82.3947932,27.8072319 Z M81.9256601,26.9544391 L81.9849643,27.1443551 C82.0174326,27.2491248 82.1181505,27.442367 82.2082663,27.5740775 C82.2987135,27.705788 82.3600056,27.8135512 82.3447655,27.8135512 C82.2741967,27.8135512 81.9760191,27.300013 81.9524962,27.1373703 L81.9524962,27.1373703 L81.9256601,26.9544391 Z M84.6354329,27.1566613 C84.6384147,27.0981232 84.6500105,27.0904735 84.6679013,27.1353747 C84.6993754,27.2135363 84.4644778,27.6439239 84.3286412,27.7570089 C84.2806014,27.7972538 84.3286412,27.6994687 84.4359852,27.5391543 C84.5433292,27.3791725 84.6331137,27.2068843 84.6354329,27.1566613 Z M19.740709,10.6015951 L19.7182338,10.8695687 C19.2371609,15.6962117 15.356043,19.4461581 10.5852034,19.748129 L11.2366698,19.7479406 L11.2714572,19.9697865 C11.3748254,20.623683 11.9115453,21.8513189 12.414803,22.5843747 C15.3810087,26.9058791 21.7179477,27.0335984 24.8196584,22.8341592 C27.8368856,18.7484701 26.1478747,12.9339131 21.410162,11.0989451 C20.8777491,10.8927316 19.9560487,10.6609076 19.8152426,10.6978265 C19.7772249,10.7078545 19.7545038,10.695993 19.740709,10.6015951 Z M81.8969899,19.3158197 C81.8980274,16.3176129 81.9041987,15.2217675 81.9117453,16.9115065 C81.9196965,18.7657654 81.9196965,21.7841331 81.9117453,23.6187686 C81.9041987,25.2903253 81.8980274,24.1793346 81.8969899,21.1783275 Z M72.4048856,21.627833 C72.6963145,21.6300735 72.7908755,21.6375109 72.6072753,21.6461031 C72.3872864,21.6567463 72.0268227,21.6567463 71.8068338,21.6461031 C71.6232336,21.6375109 71.7177946,21.6300735 72.0092234,21.627833 Z M49.9576962,21.5772544 C50.2270502,21.5772544 50.4046314,21.5942171 50.3526161,21.6151711 C50.223737,21.6663918 49.6104849,21.6687201 49.5316335,21.6181645 C49.4968459,21.5955475 49.6886736,21.5772544 49.9576962,21.5772544 Z M40.3739333,21.6268121 C40.7990021,21.6271447 40.9656503,21.6357925 40.744005,21.6464357 C40.5226908,21.6567463 40.1748168,21.6567463 39.971062,21.6461031 C39.7673074,21.6354599 39.948533,21.6268121 40.3739333,21.6268121 Z M100.478609,21.622821 C100.676069,21.622821 100.756908,21.632799 100.658178,21.6451054 C100.559448,21.6574116 100.398101,21.6574116 100.299371,21.6451054 C100.200641,21.632799 100.281149,21.622821 100.478609,21.622821 Z M89.6678645,21.627833 C89.9712955,21.6300735 90.0755197,21.6375109 89.8932999,21.6461031 C89.6743049,21.6567463 89.3015829,21.6567463 89.0650286,21.6464357 C88.8676238,21.6375664 88.9589637,21.6303137 89.258522,21.6279501 Z M77.7853658,21.521457 L77.8118016,21.5286944 C77.8724311,21.5486505 78.0960643,21.5829086 78.3087645,21.6045277 L78.3087645,21.6045277 L78.6950702,21.6441075 L78.3637618,21.6497617 C78.1732592,21.6530877 77.9622158,21.6208254 77.8667989,21.5739284 C77.7756889,21.5293597 77.7508409,21.5087383 77.8118016,21.5286944 Z M60.6124791,21.521457 L60.6387532,21.5286944 C60.6997141,21.5486505 60.9233473,21.5829086 61.1357161,21.6045277 L61.1357161,21.6045277 L61.5223532,21.6441075 L61.1910446,21.6497617 C61.0002109,21.6530877 60.7894985,21.6208254 60.6940817,21.5739284 C60.6029719,21.5293597 60.5781237,21.5087383 60.6387532,21.5286944 Z M73.2563088,21.5626199 C73.3623276,21.5626199 73.4060603,21.5739284 73.3527196,21.5878976 C73.2997102,21.601867 73.2125761,21.601867 73.1595667,21.5878976 C73.1065574,21.5739284 73.1499588,21.5626199 73.2563088,21.5626199 Z M41.3953576,21.5626199 C41.5017077,21.5626199 41.545109,21.5739284 41.4920998,21.5878976 C41.4387589,21.601867 41.3519561,21.601867 41.2986154,21.5878976 C41.2456062,21.5739284 41.2890075,21.5626199 41.3953576,21.5626199 Z M39.3521777,21.5626199 C39.4585278,21.5626199 39.5019291,21.5739284 39.4489196,21.5878976 C39.3959104,21.601867 39.3087761,21.601867 39.2557669,21.5878976 C39.2024263,21.5739284 39.2458276,21.5626199 39.3521777,21.5626199 Z M88.3858459,21.5626199 C88.492196,21.5626199 88.5355973,21.5739284 88.4825881,21.5878976 C88.4295786,21.601867 88.3424446,21.601867 88.2894351,21.5878976 C88.2360945,21.5739284 88.2794958,21.5626199 88.3858459,21.5626199 Z M90.4843543,21.5626199 C90.5903733,21.5626199 90.634106,21.5739284 90.5807651,21.5878976 C90.5277559,21.601867 90.4406216,21.601867 90.3876124,21.5878976 C90.3346029,21.5739284 90.3780045,21.5626199 90.4843543,21.5626199 Z M79.0817073,21.412616 C79.3192557,21.2656058 79.3301888,21.2606168 79.3301888,21.29554 C79.3301888,21.3301308 78.9660807,21.5496484 78.9094269,21.5493161 C78.882591,21.5493161 78.9601171,21.4877843 79.0817073,21.412616 Z M49.1028432,21.3486953 L49.1231299,21.361728 C49.1701758,21.3956533 49.2583038,21.4508654 49.3192647,21.4847909 C49.3798942,21.5187162 49.3997726,21.5469875 49.3636599,21.5479854 C49.3272161,21.5489831 49.2390879,21.4934385 49.1675254,21.4249225 C49.096294,21.3564064 49.076084,21.3278025 49.1231299,21.361728 Z M99.4296859,21.1821226 C99.2540923,20.9908761 99.4628168,21.1538513 99.8159916,21.4834604 C99.8312317,21.4977624 99.7941252,21.4827953 99.7331645,21.4508654 C99.6725349,21.4186029 99.5357046,21.2978683 99.4296859,21.1821226 Z M87.4197501,21.412616 C87.1232291,21.3144984 87.2398496,21.3105071 87.5854044,21.4072944 C87.7371437,21.4495351 87.8116883,21.4844583 87.7510587,21.4851234 C87.6900981,21.485456 87.5410092,21.4528611 87.4197501,21.412616 Z M38.3860819,21.412616 C38.0895606,21.3144984 38.2061812,21.3105071 38.5517362,21.4072944 C38.7034755,21.4495351 38.7780198,21.4844583 38.7173905,21.4851234 C38.6564296,21.485456 38.5073407,21.4528611 38.3860819,21.412616 Z M91.2572974,21.4109531 C91.5816485,21.3168266 91.7363695,21.318157 91.4504503,21.412616 C91.3291913,21.4528611 91.1801024,21.4851234 91.1191417,21.4844583 C91.0585122,21.483793 91.1204668,21.4508654 91.2572974,21.4109531 Z M42.1683004,21.4109531 C42.4926515,21.3168266 42.647704,21.318157 42.3617848,21.412616 C42.2401943,21.4528611 42.0911055,21.4851234 42.0304762,21.4844583 C41.9695153,21.483793 42.0318013,21.4508654 42.1683004,21.4109531 Z M73.891096,21.4388917 C74.1210242,21.3800211 74.2482466,21.3800211 74.1120788,21.4388917 C74.0514493,21.4648346 73.939467,21.4851234 73.8635974,21.483793 C73.7383628,21.4814648 73.7410132,21.4771411 73.891096,21.4388917 Z M59.9764674,21.0231387 L60.197119,21.2170458 C60.3187092,21.3234786 60.4429498,21.4325723 60.4730989,21.4591804 C60.5035793,21.4857887 60.4787313,21.4817974 60.4181018,21.4502002 C60.3571409,21.4186029 60.2329002,21.3095094 60.1421217,21.2080655 L60.1421217,21.2080655 L59.9764674,21.0231387 Z M77.1491846,21.0231387 L77.3701674,21.2170458 C77.4914262,21.3234786 77.615667,21.4325723 77.6461473,21.4591804 C77.6762963,21.4857887 77.6514483,21.4817974 77.5908188,21.4502002 C77.5301895,21.4186029 77.4059486,21.3095094 77.3148389,21.2080655 L77.3148389,21.2080655 L77.1491846,21.0231387 Z M70.1088775,21.3773602 C70.0200868,21.3228135 70.2417321,21.3627257 70.4951832,21.4475395 C70.5929193,21.4801344 70.5687336,21.4841257 70.4123561,21.461176 C70.291097,21.4432156 70.1542667,21.4056314 70.1088775,21.3773602 Z M51.1103188,21.0530727 C51.1623341,21.0480838 50.8035271,21.3963186 50.6994962,21.4515305 C50.6388667,21.483793 50.7011527,21.4076271 50.8376519,21.2825685 C50.974151,21.1575099 51.0970663,21.0544033 51.1103188,21.0530727 Z M101.683578,20.9952 C101.727311,20.9952 101.4563,21.3008616 101.346306,21.3760298 C101.27905,21.4219289 101.323446,21.3550758 101.445036,21.2273566 C101.566626,21.0999697 101.67397,20.9955326 101.683578,20.9952 Z M62.1591282,21.1781313 C62.4228498,20.8694762 62.4705582,20.8272357 62.381105,20.9815633 C62.3022535,21.1175977 62.2048488,21.2270239 62.0478085,21.3557411 C61.9735955,21.4166073 62.023623,21.3367827 62.1591282,21.1781313 Z M91.8645859,21.244652 C92.1167117,21.1471994 92.2161043,21.1488623 92.0027415,21.2466476 C91.9116318,21.2885554 91.7996495,21.3221483 91.7542603,21.3211503 C91.7085397,21.3201526 91.7582358,21.2858945 91.8645859,21.244652 Z M75.1060046,21.0617205 C75.2037405,21.058727 74.7253309,21.2626124 74.5537132,21.2975356 C74.4626033,21.3158287 74.5371478,21.2705949 74.7193675,21.1970897 C74.9015871,21.1235846 75.0755242,21.0627182 75.1060046,21.0617205 Z M86.674306,21.1521883 C86.6166582,21.1165998 86.6335548,21.1122761 86.7293031,21.1378865 C86.8055041,21.1585079 86.9045653,21.1980876 86.9502859,21.2263586 C87.0079336,21.2619471 86.9910368,21.2666037 86.8949574,21.2406607 C86.8190878,21.220372 86.7196952,21.1804596 86.674306,21.1521883 Z M69.4462603,21.1521883 C69.3886125,21.1165998 69.4055094,21.1122761 69.5012574,21.1378865 C69.5774584,21.1585079 69.6765196,21.1980876 69.7222404,21.2263586 C69.7798879,21.2619471 69.7629913,21.2666037 69.6669117,21.2406607 C69.5910421,21.220372 69.4916495,21.1804596 69.4462603,21.1521883 Z M37.6406375,21.1521883 C37.5829898,21.1165998 37.5998866,21.1122761 37.6956348,21.1378865 C37.7718357,21.1585079 37.8708971,21.1980876 37.9166176,21.2263586 C37.9742654,21.2619471 37.9573686,21.2666037 37.8612891,21.2406607 C37.7854193,21.220372 37.6860269,21.1804596 37.6406375,21.1521883 Z M43.0621709,21.144206 C43.3202603,21.0524077 43.383209,21.0384382 43.383209,21.0733617 C43.383209,21.1069545 42.871006,21.2755839 42.8458266,21.2503062 C42.8338994,21.2383324 42.9313041,21.1904377 43.0621709,21.144206 Z M79.733,20.249 L79.7569142,20.407824 C79.7844129,20.592751 79.5180407,21.1648272 79.3855175,21.2064026 C79.3315141,21.2233653 79.3450977,21.1857812 79.4242805,21.0993046 C79.5727066,20.936662 79.7138441,20.6090485 79.7251087,20.4011719 L79.7251087,20.4011719 L79.733,20.249 Z M92.4997044,20.9991912 C92.5301849,20.9991912 92.4927469,21.0347796 92.4168773,21.0783506 C92.3410076,21.1219214 92.2538736,21.1578426 92.2237245,21.1578426 C92.1932441,21.1578426 92.2306818,21.1219214 92.3065515,21.0783506 C92.3824213,21.0347796 92.469224,20.9991912 92.4997044,20.9991912 Z M37.005519,20.8338878 C37.0359994,20.8338878 37.1724986,20.8940888 37.3093289,20.967594 C37.4458281,21.0410992 37.5329623,21.1013003 37.5024819,21.1013003 C37.4720014,21.1013003 37.3355023,21.0410992 37.1986719,20.967594 C37.0621728,20.8940888 36.9750387,20.8338878 37.005519,20.8338878 Z M68.5073318,20.6902035 C68.5073318,20.675569 68.6928645,20.7557262 68.9194797,20.8684784 C69.1464261,20.9808981 69.3226822,21.0820093 69.311749,21.0933178 C69.2872321,21.1179304 68.5073318,20.7271224 68.5073318,20.6902035 Z M75.5201402,20.8568373 C75.9196984,20.6466326 75.9067773,20.6522868 75.9067773,20.6895383 C75.9067773,20.7231311 75.2630447,21.0517424 75.2040719,21.0480838 C75.180549,21.0464208 75.3226803,20.9606093 75.5201402,20.8568373 Z M51.3139436,20.601827 L51.3240127,20.6060551 C51.3415721,20.6559454 51.184532,20.9952 51.1441122,20.9952 C51.1318539,20.9952 51.1636594,20.8967496 51.2143497,20.7760149 C51.2653713,20.6556128 51.3147362,20.5791142 51.3240127,20.6060551 Z M92.7481859,20.8844434 C92.9658557,20.7647065 92.9691687,20.7637086 92.9691687,20.7999623 C92.9691687,20.8335552 92.6577387,20.9961978 92.599097,20.9928718 C92.5749115,20.991874 92.6418358,20.9429814 92.7481859,20.8844434 Z M44.4324631,20.5029483 C44.5040259,20.4952984 44.2065107,20.6885405 43.9232419,20.8335552 C43.4385375,21.0816766 43.4660362,21.0234711 43.9629989,20.7497393 C44.2058481,20.6157005 44.417223,20.5046113 44.4324631,20.5029483 Z M99.102353,20.6073855 C99.102353,20.5614863 99.1387968,20.6080507 99.1831923,20.7104922 C99.2275876,20.8132664 99.2630377,20.9130472 99.2620437,20.9323381 C99.258068,21.004513 99.102353,20.6872101 99.102353,20.6073855 Z M101.903567,13.2392422 C101.938354,13.1657371 101.939679,13.5931313 101.9145,16.9487579 C101.892302,19.880649 101.871761,20.6576084 101.813451,20.7457481 L101.813451,20.7457481 L101.740232,20.8568373 L101.785952,20.7457481 C101.811132,20.6848819 101.845257,18.9763028 101.862153,16.9487579 C101.878719,14.9212131 101.897603,13.2518811 101.903567,13.2392422 Z M85.6250517,20.6319981 C85.6250517,20.6170309 85.699596,20.6429739 85.790706,20.6905361 C85.8818157,20.7377657 85.9563603,20.7889864 85.9563603,20.8042861 C85.9563603,20.8192533 85.8818157,20.7933103 85.790706,20.7457481 C85.699596,20.6985185 85.6250517,20.6472978 85.6250517,20.6319981 Z M35.0126979,19.3780866 C34.9885124,19.3378417 35.1535041,19.4758718 35.3794566,19.6854113 C35.6057404,19.8949509 36.0052984,20.2065995 36.268026,20.3782223 C36.950853,20.8252401 36.9839839,20.8505179 36.6579763,20.6785624 C36.1795667,20.4257845 35.1571485,19.617893 35.0126979,19.3780866 Z M93.3683955,20.5202436 C93.6917527,20.3186865 93.7494004,20.2934087 93.629798,20.406161 C93.5367002,20.493968 92.9761262,20.8165924 93.0370869,20.7474111 C93.0592847,20.7221333 93.2083736,20.6200244 93.3683955,20.5202436 Z M76.5064459,20.2641397 C76.9417854,19.955152 76.9557002,19.9518259 76.9557002,20.1570417 C76.9557002,20.2445161 76.9679588,20.4005067 76.9825363,20.5032809 C77.0057279,20.6632627 77.0024147,20.6702473 76.9606699,20.5518409 C76.9335026,20.4756749 76.9089857,20.3309928 76.9060039,20.2302142 L76.9060039,20.2302142 L76.9007031,20.0472829 L76.5554795,20.2920783 C76.3656397,20.4267823 76.1483012,20.5658102 76.0724316,20.601066 C75.955811,20.6549476 75.9501788,20.6539498 76.0369817,20.594414 C76.0936355,20.5558321 76.3050102,20.4071588 76.5064459,20.2641397 Z M48.6632736,0.833168904 C48.6748694,0.845142594 48.6592979,0.927628013 48.6284863,1.01643288 C48.5913797,1.12386349 48.5774647,4.44024304 48.5867414,10.945948 C48.5946928,16.3184762 48.5844222,20.6712452 48.563881,20.6190266 C48.4956314,20.4464059 48.5115343,1.18639276 48.5801153,0.989159476 C48.6139087,0.891706943 48.6513466,0.821527816 48.6632736,0.833168904 Z M62.551,12.674 C62.6024191,13.0067531 62.6027505,20.495631 62.5537168,20.6190266 C62.5353765,20.6656503 62.5199414,19.2189567 62.5168444,17.2869842 L62.5168444,15.8599428 C62.5196936,14.0944705 62.5329858,12.7825228 62.5493757,12.6791828 L62.551,12.674 Z M84.764,20.063 C84.9238739,20.1162055 85.3644222,20.3959611 85.5422245,20.5694688 C85.6369788,20.6622649 85.4531024,20.5498452 85.0866753,20.2910805 L85.0866753,20.2910805 L84.764,20.063 Z M67.3702807,19.8783208 C67.3497397,19.8450605 67.5041294,19.9498303 67.713185,20.1114751 C68.1342783,20.4374256 68.2499049,20.5382041 68.1210261,20.4670272 C67.9788947,20.3888656 67.4097065,19.9425131 67.3702807,19.8783208 Z M45.5920433,19.558021 C45.6367699,19.5596876 44.9715023,20.1646915 44.7912704,20.2857589 C44.7001606,20.3469577 44.737267,20.3010586 44.8740976,20.1836499 C45.0105967,20.0662412 45.2219716,19.877323 45.3435618,19.7635729 C45.4648206,19.6498229 45.5768029,19.5573594 45.5920433,19.558021 Z M95.6567439,18.3899246 C95.8243859,18.3899246 94.3706039,19.901603 93.902465,20.2142493 C93.7464186,20.3183539 93.7517196,20.3087084 93.9352645,20.1567091 C94.3387984,19.8227762 95.239295,18.9204256 95.4354297,18.6533458 C95.5417798,18.5083311 95.6415036,18.3899246 95.6567439,18.3899246 Z M84.7414517,20.0472829 L84.764,20.063 L84.741,20.058 L84.7414517,20.0472829 Z M66.5224621,19.0551296 C66.5377023,19.0551296 66.7229038,19.2297459 66.9336161,19.4432767 L67.0101374,19.5211518 C67.1820043,19.6974006 67.3031079,19.8310912 67.2897727,19.8310912 C67.2745326,19.8310912 67.0893311,19.6564749 66.8786188,19.4432767 C66.6675753,19.2297459 66.507222,19.0551296 66.5224621,19.0551296 Z M7.57438484,19.5097972 C7.63501432,19.5097972 7.74699661,19.5297534 7.82286627,19.5540333 C7.93219809,19.5892892 7.93783033,19.5982695 7.85036487,19.5982695 C7.78973541,19.5982695 7.67775312,19.5783133 7.60188345,19.5540333 C7.49255161,19.5187775 7.48691937,19.5097972 7.57438484,19.5097972 Z M7.16024912,19.395382 C7.20563839,19.395382 7.29277256,19.4170011 7.35340202,19.4432767 C7.42297683,19.4732109 7.43324738,19.4908389 7.38090064,19.4908389 C7.33551136,19.4908389 7.24837722,19.4692197 7.18774774,19.4432767 C7.11817293,19.4130099 7.10790238,19.395382 7.16024912,19.395382 Z M6.58045914,19.2510325 C6.3670964,19.1532473 6.46615767,19.1515843 6.71828349,19.2490369 C6.82463354,19.2902796 6.87432983,19.3245376 6.82894055,19.3255354 C6.78321998,19.3265332 6.67156899,19.2929404 6.58045914,19.2510325 Z M34.3311962,18.3446907 C34.3335154,18.2934699 34.3702907,18.3659772 34.4133608,18.5056703 C34.4560996,18.6456959 34.5932613,18.8765221 34.7178333,19.0185433 C34.8424053,19.1605646 34.9222507,19.2769755 34.8957462,19.2769755 C34.7585842,19.2769755 34.3225822,18.5565584 34.3311962,18.3446907 Z M5.94534061,18.9952611 C5.65975261,18.8452574 5.77537931,18.8675418 6.11762106,19.0281888 C6.28095619,19.10502 6.35251883,19.1515843 6.27664917,19.1319608 C6.20077951,19.1126698 6.05169066,19.0508058 5.94534061,18.9952611 Z M51.3609823,16.1869233 C51.3621332,14.5943147 51.3682757,14.010747 51.3760282,14.9075764 C51.3843109,15.9037209 51.3843109,17.5501033 51.3760282,18.5662039 C51.3682757,19.4803952 51.3621332,18.9114952 51.3609823,17.3216466 Z M46.2964053,18.4135394 C46.3212534,18.4384846 46.0982827,18.8888283 46.0608448,18.8888283 C46.0465986,18.8888283 46.0893373,18.7770739 46.1552679,18.6407069 C46.2211982,18.5040072 46.2848093,18.4018983 46.2964053,18.4135394 Z M5.33805199,18.6942559 C5.33805199,18.6802866 5.42452352,18.7102208 5.53054228,18.761109 C5.63656101,18.8116646 5.7134246,18.8632179 5.70116619,18.8751916 C5.67598672,18.9004694 5.33805199,18.7321726 5.33805199,18.6942559 Z M39.1590247,18.6669825 L39.3521777,18.7012405 C39.4585278,18.7201989 39.8809461,18.7551221 40.2911062,18.7790695 L40.2911062,18.7790695 L41.0365503,18.8226404 L40.2632761,18.8053451 C39.8382074,18.7956996 39.4157888,18.7604438 39.324679,18.7275161 L39.324679,18.7275161 L39.1590247,18.6669825 Z M71.019976,18.6669825 L71.2131289,18.7012405 C71.319479,18.7198663 71.7293077,18.7551221 72.1242274,18.7790695 L72.1242274,18.7790695 L72.8421731,18.822973 L72.0967287,18.8050125 C71.6865689,18.795367 71.27674,18.7601112 71.1856303,18.7271835 L71.1856303,18.7271835 L71.019976,18.6669825 Z M88.2480217,18.6669825 L88.4411744,18.7012405 C88.5475245,18.7198663 88.9573532,18.7551221 89.3522731,18.7790695 L89.3522731,18.7790695 L90.0702188,18.822973 L89.3247744,18.8050125 C88.9146144,18.795367 88.5047857,18.7601112 88.413676,18.7271835 L88.413676,18.7271835 L88.2480217,18.6669825 Z M41.2297033,18.7225271 C41.5050207,18.6643216 41.6869092,18.6643216 41.5056834,18.7225271 C41.4298136,18.7468071 41.2933146,18.766098 41.2022046,18.7651002 C41.04152,18.7634372 41.0425139,18.7621068 41.2297033,18.7225271 Z M90.2358731,18.7225271 C90.4694456,18.6629912 90.6698872,18.6629912 90.4843543,18.7225271 C90.4084847,18.7468071 90.2842441,18.7664306 90.208043,18.7657654 C90.0841336,18.7651002 90.0871154,18.7604438 90.2358731,18.7225271 Z M41.8369918,18.5838319 C42.0891178,18.4863793 42.1885102,18.4880423 41.9751477,18.5858275 C41.8840377,18.6277354 41.7720554,18.6613282 41.7266662,18.6603304 C41.6809456,18.6593326 41.7306419,18.6250746 41.8369918,18.5838319 Z M38.6067333,18.5013464 C38.2890083,18.3546687 38.3831001,18.3693032 38.8002174,18.5312807 C38.9973461,18.6081118 39.0844804,18.655674 38.9933704,18.6370483 C38.9022606,18.6184225 38.7283235,18.5572236 38.6067333,18.5013464 Z M91.3401245,18.4009005 C91.4378604,18.397907 90.959451,18.6017924 90.7878331,18.6367157 C90.6967231,18.6550088 90.7712677,18.6097748 90.9534874,18.5362697 C91.1357071,18.4627645 91.3096441,18.4018983 91.3401245,18.4009005 Z M87.0056144,18.1418031 C87.0056144,18.1248404 87.1606668,18.1896979 87.3501755,18.28582 C87.5393525,18.3819421 87.7818704,18.4926988 87.8885518,18.5319459 C87.9949019,18.5715256 88.0436043,18.605451 87.9965584,18.6077792 C87.9018041,18.6121031 87.0056144,18.1903631 87.0056144,18.1418031 Z M4.84108914,18.4148698 C4.84108914,18.3995701 4.91563358,18.4258457 5.00674342,18.4730752 C5.09785329,18.5203048 5.1723977,18.5715256 5.1723977,18.5868253 C5.1723977,18.602125 5.09785329,18.5758494 5.00674342,18.5286198 C4.91563358,18.4810577 4.84108914,18.4301695 4.84108914,18.4148698 Z M74.1120788,18.396244 C74.1965624,18.3932506 73.9096493,18.5379327 73.7532718,18.5768472 C73.6774019,18.5958055 73.7145085,18.5635431 73.8360989,18.5046725 C73.9573577,18.4461344 74.0815984,18.3972418 74.1120788,18.396244 Z M43.6279787,17.2982192 L43.6412984,17.2999862 C43.7453293,17.4044234 43.0509065,18.064972 42.5625576,18.3260649 C42.3720552,18.4278413 42.2067323,18.5023442 42.1954677,18.4910358 C42.1845347,18.4797273 42.338593,18.3856008 42.5383721,18.2818288 C42.9276598,18.0792739 43.5210333,17.5673986 43.5790124,17.3844672 C43.5982282,17.3229358 43.6263895,17.2850191 43.6412984,17.2999862 Z M69.8878945,18.1956847 C69.8878945,18.1810502 70.0237311,18.2362622 70.190048,18.3180824 C70.3563648,18.3999027 70.4829247,18.4760686 70.4716603,18.4877097 C70.4468122,18.5126549 69.8878945,18.2329362 69.8878945,18.1956847 Z M65.8399665,18.1724026 C65.6925341,17.9202899 65.763103,17.9655238 65.9420095,18.2375926 C66.0268245,18.366975 66.0612807,18.4438062 66.0182105,18.4078851 C65.9751404,18.3722966 65.8949636,18.2661965 65.8399665,18.1724026 Z M4.37162489,18.1065472 L4.48195066,18.1610941 C4.54291143,18.1910283 4.642304,18.2562184 4.70293347,18.3057762 L4.70293347,18.3057762 L4.81325922,18.3959114 L4.70293347,18.3416972 C4.642304,18.311763 4.54291143,18.2465729 4.48195066,18.1970151 L4.48195066,18.1970151 L4.37162489,18.1065472 Z M74.7226805,18.0363681 C75.2249442,17.695118 75.2073851,17.7054286 75.15802,17.7855858 C75.1146186,17.8560976 74.3897154,18.33438 74.3264355,18.33438 C74.3029125,18.33438 74.4811566,18.2003412 74.7226805,18.0363681 Z M38.0269432,18.2186343 C37.9355021,18.1434661 37.9262256,18.1245078 37.9994448,18.1627571 C38.1796767,18.2562184 38.2794004,18.332717 38.2204276,18.3323844 C38.1899471,18.3320517 38.1031443,18.2811636 38.0269432,18.2186343 Z M91.6853479,18.2000086 C91.8586223,18.1055495 91.8645859,18.1032212 91.8645859,18.1391423 C91.8645859,18.1534442 91.7900415,18.2039998 91.6989316,18.2512293 C91.4915324,18.3589926 91.4789427,18.3124282 91.6853479,18.2000086 Z M96.3780026,17.1373436 C96.4137838,17.1732646 95.9632043,18.0134185 95.80517,18.2056628 C95.73427,18.2918069 95.7955621,18.1597637 95.9416692,17.9123074 C96.0877763,17.6651837 96.2398469,17.3834694 96.2796039,17.2870147 C96.3196923,17.19056 96.3637564,17.1230416 96.3780026,17.1373436 Z M46.519376,17.0595146 C46.5674156,17.0595146 46.4832633,17.9162986 46.4213085,18.0593177 L46.4213085,18.0593177 L46.363,18.193 L46.3918222,18.0573221 C46.4053506,17.9938504 46.4278519,17.8056529 46.4462886,17.6080238 L46.4567586,17.489237 C46.4759744,17.2527566 46.5041357,17.0595146 46.519376,17.0595146 Z M69.4436099,17.9156334 C69.4012023,17.86408 69.4644822,17.8890252 69.5840845,17.9705128 C69.8673535,18.1634223 69.901147,18.203002 69.690766,18.095904 C69.597337,18.0480092 69.4860173,17.9671868 69.4436099,17.9156334 Z M4.0128177,17.855765 C4.0128177,17.8404653 4.08736214,17.8813754 4.17847201,17.9465654 C4.26958185,18.0114229 4.34412629,18.0772782 4.34412629,18.0925779 C4.34412629,18.1078777 4.26958185,18.0669676 4.17847201,18.0017775 C4.08736214,17.93692 4.0128177,17.8710647 4.0128177,17.855765 Z M93.0211842,17.172932 C93.0814824,17.1782537 92.2561926,17.9209551 92.0759608,18.0237292 C91.8513336,18.1517812 91.9096439,18.0939084 92.3065515,17.7945661 C92.4735311,17.6685097 92.6958392,17.4765981 92.8005326,17.3678371 C92.9052262,17.2594087 93.0046188,17.1716016 93.0211842,17.172932 Z M36.189506,16.7269121 C36.2587495,16.7269121 36.5662038,16.9727053 37.1257841,17.4752677 C37.3633323,17.6887985 37.6323549,17.9216203 37.7234647,17.992132 C37.8145746,18.0629763 37.851681,18.1028886 37.8062918,18.0806043 C37.6820512,18.0200706 37.2705659,17.6804834 36.8961873,17.3299204 C36.7133048,17.1586301 36.4671426,16.9530818 36.3488653,16.872592 C36.2309197,16.7924348 36.1590255,16.7269121 36.189506,16.7269121 Z M99.077,10.114 C99.0802237,10.142471 99.0822937,10.3845754 99.0844623,10.864793 C99.0924137,12.6255906 99.0924137,15.5065935 99.0844623,17.2673911 C99.077053,18.9081344 99.0707944,17.7689485 99.0699754,14.7569807 L99.0699754,13.3751443 C99.0704948,11.4649703 99.0732016,10.3081283 99.0770022,10.1357499 L99.077,10.114 Z M3.4552254,17.409745 C3.4124866,17.3558634 3.50823475,17.4213861 3.66759418,17.5547597 C3.82695361,17.6881333 3.95748919,17.8082028 3.95748919,17.8211743 C3.95748919,17.8587584 3.54103432,17.5175082 3.4552254,17.409745 Z M34.362008,17.5883526 C34.4193244,17.4383488 34.4375463,17.5248255 34.3855308,17.6997744 C34.3586949,17.7895771 34.3348405,17.8218395 34.3321901,17.7709513 C34.3295397,17.7200632 34.342792,17.6379103 34.362008,17.5883526 Z M85.8758521,17.1755928 C85.9272051,17.1805819 86.3807665,17.669175 86.334052,17.669175 C86.3254379,17.669175 86.2691155,17.6193585 86.1927673,17.5454468 L86.0666859,17.4197231 C85.932506,17.2826909 85.846697,17.1725994 85.8758521,17.1755928 Z M7.96069064,17.3106295 C7.66416946,17.2125117 7.78112138,17.2085205 8.12634492,17.3049752 C8.27841554,17.3475483 8.35295998,17.3824716 8.2919992,17.3828042 C8.23136972,17.3831368 8.08228087,17.3508744 7.96069064,17.3106295 Z M2.46925108,16.4498542 C2.48110457,16.4498542 2.61080574,16.5705766 2.78150418,16.7389396 L2.93606486,16.8932133 C3.1775888,17.137011 3.3627903,17.3365725 3.3475501,17.3365725 C3.33230992,17.3365725 3.12226029,17.137011 2.88073632,16.8932133 C2.63921238,16.6494157 2.45401089,16.4498542 2.46925108,16.4498542 Z M35.4318033,16.6793499 C35.5567067,16.6823433 35.5540563,16.6866672 35.4043046,16.7229208 C35.1034765,16.7960934 34.8228581,16.9600664 34.6512404,17.1636192 C34.5578112,17.2740432 34.5067898,17.3146207 34.5376014,17.2534218 C34.6194347,17.0907792 34.8288217,16.9088457 35.0759778,16.7847849 C35.1959115,16.7249165 35.3559337,16.6773543 35.4318033,16.6793499 Z M6.40320906,16.6763565 C6.42706327,16.6736957 6.54997875,16.7242513 6.675876,16.7887761 C6.80177325,16.853301 7.05555561,16.9667185 7.23976318,17.0405562 C7.42363944,17.1140614 7.49984042,17.1592953 7.40873055,17.140337 C7.31762071,17.1217113 7.04429113,17.010622 6.80111064,16.8935459 C6.55826145,16.7768025 6.37902352,16.6790173 6.40320906,16.6763565 Z M65.087896,16.6287943 C65.0898839,16.60651 65.1402427,16.6979757 65.1995469,16.8320145 C65.25852,16.9660533 65.297283,17.0854576 65.2853559,17.0977639 C65.2615018,17.1217113 65.0816011,16.694317 65.087896,16.6287943 Z M85.4378623,16.60651 C85.2957309,16.3560603 85.395786,16.4671495 85.6452614,16.8376687 C85.7936878,17.0581842 85.8079339,17.0937726 85.696283,16.9667185 C85.611468,16.8699312 85.4951786,16.7079537 85.4378623,16.60651 Z M46.3954665,16.338765 C46.3739315,16.1937503 46.3792325,16.1737941 46.4160077,16.2606034 C46.443175,16.3241304 46.4789562,16.523692 46.495853,16.7039625 C46.5283211,17.0508669 46.4690169,16.8350079 46.3954665,16.338765 Z M43.151293,16.4518498 C43.2818286,16.4478586 43.5445562,16.6151576 43.6061797,16.741214 L43.6061797,16.741214 L43.6668092,16.8656073 L43.5664227,16.7432096 C43.511094,16.6756913 43.3789019,16.5832278 43.2728832,16.5373287 C43.1665331,16.4914295 43.1118672,16.4531802 43.151293,16.4518498 Z M93.6708803,16.1724637 C93.7089808,16.1724637 93.4121282,16.6833412 93.3167113,16.7824567 C93.2726475,16.8280232 93.3283071,16.7096167 93.4406208,16.5190355 C93.5529345,16.3284543 93.6563028,16.1724637 93.6708803,16.1724637 Z M96.6559706,16.3630449 C96.6688914,16.3760164 96.650007,16.4774602 96.6135629,16.5882168 C96.5270915,16.8509728 96.4876656,16.8113931 96.5691677,16.5439807 C96.6036236,16.4312284 96.6427181,16.3497408 96.6559706,16.3630449 Z M6.00066914,16.4744668 C6.00066914,16.4594997 6.07521355,16.4854427 6.16632342,16.5330048 C6.25743327,16.5802344 6.3319777,16.6314552 6.3319777,16.6467549 C6.3319777,16.661722 6.25743327,16.635779 6.16632342,16.5882168 C6.07521355,16.5409873 6.00066914,16.4897665 6.00066914,16.4744668 Z M68.0352171,16.2280083 C68.0504572,16.2280083 68.1014788,16.3028439 68.1485245,16.3943096 C68.1955704,16.4857753 68.2217437,16.5606108 68.2065036,16.5606108 C68.1912633,16.5606108 68.1405733,16.4857753 68.093196,16.3943096 C68.0461501,16.3028439 68.0199768,16.2280083 68.0352171,16.2280083 Z M3.78984705,14.4941515 C3.70503206,14.3654343 3.72292271,14.3777406 3.85445223,14.5373898 C4.40707491,15.208249 5.00873128,15.7600366 5.83567747,16.3543973 C5.94633454,16.4338893 5.94964762,16.4418717 5.8522429,16.3959726 C5.3695263,16.1674747 4.15528041,15.0479346 3.78984705,14.4941515 Z M85.1280888,16.027449 C85.1280888,15.9695762 85.1579067,16.0118167 85.2606122,16.214039 C85.3106399,16.3131546 85.3394636,16.3943096 85.3242235,16.3943096 C85.2924177,16.3943096 85.1280888,16.0869849 85.1280888,16.027449 Z M2.12866589,16.0530594 C1.8781966,15.7357566 1.97030038,15.7952925 2.24926219,16.1308884 C2.38244825,16.2912028 2.44738472,16.3869923 2.39404405,16.3440866 C2.34037206,16.3015135 2.22110096,16.1704681 2.12866589,16.0530594 Z M64.8682383,15.8398612 C64.870889,15.7942947 64.9066702,15.8807713 64.9480839,16.0321054 C64.9894974,16.1834396 65.0140142,16.3168132 65.0024185,16.3284543 C64.9749198,16.3560603 64.862275,15.9466266 64.8682383,15.8398612 Z M42.3339547,16.1794484 C42.3796753,16.1784506 42.4913264,16.2117108 42.5824362,16.2536187 C42.7957989,16.3517365 42.6967377,16.3530669 42.4446119,16.2556143 C42.3382618,16.2147042 42.2885655,16.1801136 42.3339547,16.1794484 Z M93.8381911,15.8072662 C93.8507808,15.8199051 93.8229508,15.9010601 93.7762363,15.9875367 C93.6761812,16.1727963 93.6586218,16.1292254 93.7510569,15.9253401 C93.786507,15.8478437 93.8256014,15.7942947 93.8381911,15.8072662 Z M96.8169864,15.6931835 C96.8302388,15.7068202 96.8242753,15.8089292 96.8037341,15.9200184 C96.7828616,16.0314402 96.7547004,16.1112648 96.7414481,16.0976281 C96.7278645,16.0839914 96.7338281,15.9818825 96.7547004,15.8707932 C96.7752415,15.7593714 96.8034027,15.6795468 96.8169864,15.6931835 Z M67.7383647,15.5754422 C67.7403523,15.5531578 67.7907114,15.6446235 67.8500156,15.7786623 C67.9089884,15.9127012 67.9477517,16.0324381 67.9358245,16.0444117 C67.9119702,16.0683591 67.7320697,15.6412975 67.7383647,15.5754422 Z M76.6654739,15.6961769 C76.6780636,15.7088158 76.6502338,15.7899708 76.6035193,15.8767801 C76.5034642,16.0620397 76.4855734,16.0184688 76.5783399,15.8145834 C76.6134586,15.7367544 76.6528842,15.683538 76.6654739,15.6961769 Z M84.7997619,15.0163374 C84.8014186,14.966447 84.8597289,15.1124595 84.929635,15.3409575 C84.999541,15.569788 85.0750795,15.8066009 85.0976083,15.8677998 C85.1307392,15.9572699 85.1267637,15.9625915 85.0777299,15.8954058 C85.0021914,15.7916338 84.7957862,15.1394003 84.7997619,15.0163374 Z M1.71353624,15.4520467 C1.72877643,15.4520467 1.79437553,15.5268822 1.85931201,15.6183479 C1.92391718,15.7098136 1.96466814,15.7846492 1.94942794,15.7846492 C1.93451906,15.7846492 1.86891996,15.7098136 1.80398348,15.6183479 C1.739047,15.5268822 1.69829604,15.4520467 1.71353624,15.4520467 Z M94.0055019,15.3096928 C94.018423,15.3229969 93.9995383,15.4244407 93.9630945,15.5351973 C93.8766228,15.7976207 93.8371972,15.758041 93.918699,15.4906286 C93.9531552,15.3778763 93.9922496,15.2963887 94.0055019,15.3096928 Z M37.7794559,14.6800763 C37.8102675,14.6777481 38.4934259,14.8982635 39.2978431,15.1703324 L39.4562925,15.2240602 C40.1836842,15.471348 40.7330055,15.6670631 40.7042478,15.6692361 C40.6734362,15.6715643 39.990278,15.4510489 39.1858608,15.17898 C38.3814434,14.9069112 37.7486441,14.6824045 37.7794559,14.6800763 Z M76.8304657,15.1413959 C76.842724,15.1537022 76.8225142,15.2664545 76.7850765,15.391513 C76.7476385,15.5165716 76.707219,15.6087025 76.6946291,15.5963962 C76.6823707,15.5837573 76.7025805,15.4713376 76.7400185,15.3459465 C76.7774562,15.2208879 76.817876,15.128757 76.8304657,15.1413959 Z M67.5455429,14.8054674 C67.5180444,14.52974 67.5293088,14.5556829 67.6227378,14.9807489 C67.7499605,15.5584795 67.7542673,15.6103655 67.6522244,15.3319772 C67.6114734,15.2205553 67.5634336,14.9834098 67.5455429,14.8054674 Z M1.41138282,14.9807489 L1.50116745,15.0915056 C1.55086373,15.1527044 1.6154689,15.2524852 1.64528667,15.3133514 L1.64528667,15.3133514 L1.69962128,15.4241081 L1.60983666,15.3133514 C1.56014037,15.2524852 1.4955352,15.1527044 1.46571743,15.0915056 L1.46571743,15.0915056 L1.41138282,14.9807489 Z M96.9209744,14.9485866 L96.9276436,14.9661144 C96.9412272,15.0193308 96.9418898,15.1191116 96.9286375,15.1879603 C96.915385,15.256809 96.9041206,15.2135707 96.9034581,15.0915056 C96.9027953,14.9697731 96.9137286,14.9132306 96.9276436,14.9661144 Z M45.559575,14.8004784 C45.4128053,14.6251969 45.3501879,14.5317356 45.4207568,14.5926018 C45.5612314,14.7143343 45.89254,15.1194442 45.8517891,15.1194442 C45.8378741,15.1194442 45.7063446,14.9757599 45.559575,14.8004784 Z M94.151,13.508 L94.1694997,14.0115452 C94.1794388,14.3015746 94.1622108,14.6381684 94.1313992,14.7599009 L94.1313992,14.7599009 L94.0750768,14.9807489 L94.1012501,14.7589031 C94.1154963,14.6371706 94.1330557,14.3002442 94.1396818,14.0105474 L94.1396818,14.0105474 L94.151,13.508 Z M1.2212117,14.6205404 C1.2364519,14.6205404 1.28747342,14.695376 1.33451924,14.7868417 C1.38189636,14.8783074 1.40773843,14.9531429 1.39282954,14.9531429 C1.37758935,14.9531429 1.32656783,14.8783074 1.27952201,14.7868417 C1.23214489,14.695376 1.20630282,14.6205404 1.2212117,14.6205404 Z M64.722,13.109 C64.7335901,13.1635723 64.7353262,13.4779062 64.7327333,14.0800614 C64.7290888,14.8703249 64.7198122,14.9947182 64.6896631,14.6481464 C64.6687906,14.4043488 64.6654777,13.949016 64.6827056,13.6363696 C64.6999481,13.3204985 64.7121176,13.1430491 64.7202464,13.1132083 L64.722,13.109 Z M84.7715901,14.5582187 L84.7795522,14.5789651 C84.7934672,14.6321815 84.7934672,14.719656 84.7795522,14.7728724 C84.7656371,14.8260888 84.7543727,14.7825178 84.7543727,14.6757525 C84.7543727,14.568987 84.7656371,14.5254161 84.7795522,14.5789651 Z M37.3093289,14.5164358 C37.3547183,14.515438 37.4667006,14.5486983 37.5578104,14.5906062 C37.7708417,14.6887239 37.6717805,14.6900544 37.4196547,14.5926018 C37.3133046,14.5516917 37.2636083,14.5171011 37.3093289,14.5164358 Z M96.977,13.641 C96.9817234,13.6602373 96.9836346,13.6827828 96.9856225,13.717192 C96.9962243,13.9067755 96.9965557,14.2310629 96.9856225,14.4379417 C96.9750206,14.645153 96.9664066,14.4901602 96.9660753,14.0936981 L96.9668917,13.9008861 C96.9682209,13.7602547 96.9710934,13.6713941 96.974918,13.6467363 L96.977,13.641 Z M76.9218368,13.9672509 C76.9233844,13.690045 76.9316141,13.5897055 76.941454,13.7474589 C76.9523873,13.9227404 76.9523873,14.2094437 76.941454,14.3847252 C76.9305208,14.5600068 76.9215754,14.4166551 76.9215754,14.0660921 Z M36.4532276,14.1808399 C36.483708,14.1808399 36.5708423,14.2164284 36.6467119,14.2599993 C36.7225816,14.3035702 36.7596881,14.3394913 36.7295391,14.3394913 C36.6990586,14.3394913 36.6122557,14.3035702 36.5360547,14.2599993 C36.4601851,14.2164284 36.4230785,14.1808399 36.4532276,14.1808399 Z M84.705444,13.9868631 C84.707446,13.8173989 84.7161066,13.7581021 84.7265427,13.8582155 C84.7384699,13.9726308 84.7384699,14.1595534 84.7265427,14.2739686 C84.7146158,14.3883839 84.7050078,14.2949226 84.7050078,14.0660921 Z M44.120702,13.8442462 C44.1806687,13.8442462 44.9294261,14.2303977 44.9294261,14.2616623 C44.9294261,14.2862749 44.1617841,13.9174187 44.105793,13.8655327 C44.0928719,13.8538917 44.0998294,13.8442462 44.120702,13.8442462 Z M3.4436296,14.0148713 C3.29619729,13.7627586 3.366766,13.8079925 3.54534131,14.0800614 C3.63048762,14.2094437 3.66494371,14.2862749 3.62187361,14.2503538 C3.57880349,14.2147654 3.49862681,14.1086652 3.4436296,14.0148713 Z M0.758704941,13.7058835 C0.758704941,13.6752841 0.794154958,13.7128682 0.837556381,13.7890342 C0.880957805,13.8652001 0.91673913,13.952342 0.91673913,13.9829414 C0.91673913,14.0135409 0.880957805,13.9759568 0.837556381,13.8997908 C0.794154958,13.8236248 0.758704941,13.7361504 0.758704941,13.7058835 Z M79.7348362,13.5540076 C79.7369063,13.4070298 79.7458568,13.3557363 79.7565828,13.4424624 C79.7688414,13.5415779 79.7688414,13.7035553 79.7565828,13.8026709 C79.7443245,13.9017864 79.7343852,13.8206314 79.7343852,13.6227329 Z M2.744,12.547 L2.80751713,12.6801374 C2.84362976,12.756636 2.98244806,13.0433394 3.11629673,13.3177364 C3.24981408,13.5921335 3.33429776,13.791695 3.30348607,13.7610956 C3.22629116,13.6839318 2.81911293,12.8490995 2.77670545,12.6801374 L2.77670545,12.6801374 L2.744,12.547 Z M34.8506881,12.9548671 C34.8208702,12.9079701 34.869904,12.9578605 34.9593573,13.0659563 C35.0484794,13.1737195 35.2472645,13.3855873 35.4009917,13.5362563 C35.5815547,13.7135334 35.6186613,13.767415 35.5056851,13.6885882 C35.3489761,13.5788294 34.9901691,13.1773782 34.8506881,12.9548671 Z M43.2175547,13.5186283 C43.2629439,13.5176305 43.3749262,13.5508908 43.4660362,13.5927987 C43.6793989,13.6909164 43.5800063,13.6922469 43.3278805,13.5947943 C43.2215305,13.5538842 43.1718342,13.5192935 43.2175547,13.5186283 Z M67.5435445,13.3941099 L67.5515065,13.4148564 C67.5654215,13.4680727 67.5654215,13.5555472 67.5515065,13.6087636 C67.5375917,13.66198 67.526327,13.6184091 67.526327,13.5116437 C67.526327,13.4048783 67.5375917,13.3613074 67.5515065,13.4148564 Z M84.7715901,13.3387276 L84.7795522,13.3593117 C84.7934672,13.4125281 84.7934672,13.5000026 84.7795522,13.553219 C84.7656371,13.606768 84.7543727,13.5628645 84.7543727,13.4564317 C84.7543727,13.3496663 84.7656371,13.3060953 84.7795522,13.3593117 Z M42.803419,13.4304887 C42.5900562,13.3327035 42.6894488,13.3310405 42.9415746,13.4284931 C43.0475933,13.4697358 43.0972896,13.5039938 43.0519004,13.5049916 C43.0061799,13.5059894 42.8945289,13.4723966 42.803419,13.4304887 Z M81.9417165,13.202174 C81.9438957,13.0929854 81.9530641,13.0507517 81.9644234,13.1091947 C81.9773442,13.1773782 81.9776756,13.3021041 81.9650859,13.3862525 C81.9524962,13.470401 81.941563,13.4148564 81.9412316,13.2621918 Z M59.7415695,13.2621918 C59.7412384,13.1404593 59.7518402,13.0839169 59.7657552,13.1368007 C59.77967,13.1900171 59.7800014,13.2897978 59.7667492,13.3586465 C59.7534967,13.4274952 59.7422323,13.3842569 59.7415695,13.2621918 Z M67.6041845,12.969169 C67.6611697,12.754973 67.6843613,12.8710513 67.6303579,13.1015448 C67.6025281,13.2202839 67.57768,13.2678461 67.5750294,13.2069798 C67.572379,13.1457809 67.5856313,13.0390155 67.6041845,12.969169 Z M96.9196815,12.9505805 L96.9276436,12.9711646 C96.9415584,13.0247136 96.9415584,13.1118555 96.9276436,13.1654045 C96.9137286,13.2186209 96.9024642,13.17505 96.9024642,13.0682845 C96.9024642,12.9615191 96.9137286,12.9179482 96.9276436,12.9711646 Z M40.1542756,12.51816 C40.1854186,12.5158318 40.607837,12.6492054 41.0928728,12.8145088 L41.2222031,12.8588184 C41.6424398,13.0036717 41.9468057,13.1173888 41.9184939,13.1195053 C41.887682,13.1218336 41.4652637,12.98846 40.9798965,12.8231565 C40.4948608,12.6578531 40.1231326,12.5204882 40.1542756,12.51816 Z M79.559123,12.2923229 C79.5621048,12.1233608 79.6558652,12.5354553 79.683695,12.8384562 C79.7118562,13.1464461 79.7111936,13.1454483 79.6349926,12.7632881 C79.5925852,12.5500899 79.5584604,12.3378895 79.559123,12.2923229 Z M59.6282621,12.5969868 C59.6282621,12.5091797 59.6375387,12.5151666 59.6726574,12.6249254 C59.6968429,12.7010914 59.7167215,12.8131784 59.7167215,12.8743773 C59.7167215,12.9621844 59.7074447,12.9561975 59.6726574,12.8464387 C59.6481405,12.7702727 59.6282621,12.6581857 59.6282621,12.5969868 Z M82.0107959,12.6735226 L82.0187579,12.6941067 C82.0326727,12.7473231 82.0326727,12.8347976 82.0187579,12.888014 C82.0048429,12.941563 81.9935785,12.8976595 81.9935785,12.7912267 C81.9935785,12.6844613 82.0048429,12.6408903 82.0187579,12.6941067 Z M93.9153861,12.6249254 C93.9153861,12.5723742 93.9329454,12.5826849 93.9630945,12.6525314 C93.9889365,12.7133977 94.0104716,12.8008721 94.0104716,12.8464387 C94.0104716,12.8989899 93.9929122,12.8886792 93.9630945,12.8188327 C93.9369209,12.7579664 93.9153861,12.670492 93.9153861,12.6249254 Z M102.224274,12.3076226 C102.235869,12.3192637 102.197438,12.4639458 102.139127,12.6292493 C102.080817,12.7945527 102.031121,12.9029811 102.028802,12.8703861 C102.026482,12.8374584 102.064914,12.6927763 102.113948,12.5484268 C102.162981,12.40441 102.212346,12.2956489 102.224274,12.3076226 Z M76.633337,12.4306856 C76.633337,12.4004187 76.6674618,12.4503091 76.7092066,12.5417748 C76.7509517,12.6332405 76.7844137,12.7453275 76.7834198,12.7912267 C76.7824259,12.8367932 76.7483011,12.7869028 76.707219,12.6801374 C76.6664678,12.573372 76.6330058,12.461285 76.633337,12.4306856 Z M34.4932062,12.3129443 C34.4932062,12.252078 34.5250117,12.300638 34.6532283,12.5554115 C34.7181647,12.6851265 34.7589156,12.7912267 34.7436755,12.7912267 C34.7125325,12.7912267 34.4932062,12.3728127 34.4932062,12.3129443 Z M96.7911444,12.3754735 C96.7904819,12.2883317 96.7997584,12.2946511 96.8342146,12.4030795 C96.8587312,12.4792455 96.8779473,12.6039714 96.8776159,12.6801374 C96.876622,12.8048634 96.8723149,12.80187 96.8342146,12.6525314 C96.8110228,12.5610657 96.791807,12.4363398 96.7911444,12.3754735 Z M0.292222476,12.2923229 C0.268368259,12.1589493 0.272343962,12.1330063 0.305806127,12.2091723 C0.332310812,12.2700386 0.36974868,12.4070708 0.388964577,12.5138362 C0.413150103,12.6472098 0.408843091,12.6731528 0.375712235,12.5969868 C0.349207548,12.5361206 0.31176968,12.3987557 0.292222476,12.2923229 Z M82.1287523,12.1453126 C82.142336,12.1589493 82.1363724,12.2610583 82.1154999,12.3721475 C82.0949589,12.4835694 82.0667975,12.5633939 82.0532139,12.5497573 C82.0399616,12.5364532 82.0459252,12.4343442 82.0664663,12.3229224 C82.0873387,12.2118331 82.1154999,12.1316759 82.1287523,12.1453126 Z M39.517832,12.298975 C39.5635525,12.2979771 39.6752035,12.33157 39.7663134,12.3734779 C39.979676,12.4712631 39.8806148,12.4729261 39.628489,12.3754735 C39.5221389,12.3342308 39.4724426,12.2999728 39.517832,12.298975 Z M68.1412358,11.6823299 C68.155482,11.6823299 68.0888891,11.8552832 67.9931409,12.0668184 C67.8973926,12.278021 67.8092647,12.4413288 67.7976689,12.4296877 C67.7860731,12.4180467 67.852666,12.2450933 67.9457638,12.0455319 C68.0388615,11.8459704 68.1269894,11.6823299 68.1412358,11.6823299 Z M76.203044,11.5313726 L76.2148943,11.5439673 C76.320913,11.6786713 76.638638,12.2966468 76.6144525,12.3205941 C76.6048446,12.3302396 76.4912056,12.1343367 76.3623267,11.8855501 C76.2331162,11.6367634 76.1668545,11.4827684 76.2148943,11.5439673 Z M34.3311962,11.7987408 C34.3331841,11.7501808 34.3692967,11.8213578 34.4117043,11.9573922 C34.4537804,12.0934266 34.4799537,12.2131635 34.4693519,12.2234742 C34.4411906,12.2517454 34.3268893,11.9008498 34.3311962,11.7987408 Z M102.325985,12.0202541 C102.447244,11.7847715 102.48667,11.8030646 102.373031,12.0422058 C102.322341,12.148306 102.271319,12.2254698 102.259392,12.2134961 C102.247465,12.2015224 102.277283,12.1143806 102.325985,12.0202541 Z M2.5003941,11.8486312 C2.4772025,11.7179184 2.48150951,11.690645 2.51331513,11.7654806 C2.58653432,11.9371034 2.64285678,12.224472 2.58421516,12.1260217 C2.55671654,12.0801225 2.51894737,11.9553966 2.5003941,11.8486312 Z M59.3449933,11.8210252 C59.3449933,11.7904257 59.3807746,11.8280098 59.4241759,11.9041758 C59.4675775,11.9803418 59.5030274,12.0678162 59.5030274,12.0980831 C59.5030274,12.1286825 59.4675775,12.091431 59.4241759,12.0149324 C59.3807746,11.9387664 59.3449933,11.8516246 59.3449933,11.8210252 Z M65.0103699,11.8120449 C65.0232908,11.8250164 65.0173272,11.9021802 64.9971174,11.9833352 C64.9769077,12.0644902 64.949409,12.1203674 64.9364879,12.1073959 C64.923567,12.0940918 64.9295306,12.016928 64.9497404,11.935773 C64.9702815,11.854618 64.9974488,11.7987408 65.0103699,11.8120449 Z M82.2970571,11.5935251 C82.3093154,11.6061639 82.2891056,11.7185836 82.2516679,11.8436421 C82.2142299,11.9687007 82.1738104,12.0608316 82.1612204,12.0485253 C82.1489621,12.0358864 82.1691719,11.9234667 82.2066098,11.7984082 C82.2440476,11.6733497 82.2844673,11.5812188 82.2970571,11.5935251 Z M85.4338866,11.5715733 C85.4491269,11.5715733 85.4110264,11.671354 85.3490715,11.7934192 C85.2871169,11.9151517 85.223837,12.0149324 85.2085969,12.0149324 C85.1933565,12.0149324 85.2317884,11.9151517 85.2937431,11.7934192 C85.3556977,11.671354 85.4189776,11.5715733 85.4338866,11.5715733 Z M96.4664619,11.2389708 C96.4992616,11.2389708 96.7252141,11.9041758 96.719913,11.984333 C96.7162687,12.0365516 96.5857331,11.6992926 96.4797144,11.3636967 C96.4581793,11.2951806 96.4522157,11.2389708 96.4664619,11.2389708 Z M62.2754176,11.5715733 C62.2754176,11.5190221 62.292977,11.5293328 62.3231261,11.5991793 C62.348968,11.6603782 62.3705031,11.74752 62.3705031,11.7934192 C62.3705031,11.8456377 62.3529437,11.8353271 62.3231261,11.7654806 C62.2969527,11.7046143 62.2754176,11.6171398 62.2754176,11.5715733 Z M102.551275,11.6041683 C102.680154,11.4066025 102.715935,11.4229 102.596996,11.6254549 C102.543655,11.7159228 102.490646,11.7804477 102.478719,11.7688066 C102.467123,11.7571655 102.499922,11.6829951 102.551275,11.6041683 Z M37.39315,11.6214637 C37.3636637,11.5925273 37.4256183,11.5978489 37.5313056,11.63377 C37.778462,11.7175858 37.8265016,11.7648153 37.6128077,11.7139272 C37.5216977,11.692308 37.4229679,11.6507327 37.39315,11.6214637 Z M92.2760712,10.3140032 C92.2141164,10.2587912 92.2015267,10.2381699 92.2485726,10.2681041 C92.5934648,10.4882869 93.2222884,11.1561528 93.4333321,11.5256741 C93.5718189,11.768474 93.527755,11.7242378 93.2309024,11.3221214 C93.0172085,11.0327572 92.6584012,10.6535904 92.2760712,10.3140032 Z M57.6294775,9.9238605 C57.6294775,9.73926611 58.9576935,11.0084773 59.165424,11.3913027 C59.3363791,11.7069425 59.2800567,11.6929732 59.0935301,11.3736748 C58.8934196,11.0314268 58.3023652,10.4107906 57.9322935,10.1550192 C57.7656453,10.0396062 57.6294775,9.93583418 57.6294775,9.9238605 Z M45.0672505,11.476449 C45.2193212,11.4761164 45.2879019,11.486427 45.2199837,11.4997312 C45.1520655,11.5130352 45.0278247,11.5133679 44.9440036,11.5003964 C44.8598514,11.4877575 44.915511,11.4771142 45.0672505,11.476449 Z M75.7182628,10.9063683 C75.7563633,10.9063683 75.8077161,10.9652389 76.0217414,11.2529401 C76.1983289,11.4904183 76.1181522,11.4322128 75.8878928,11.1558202 C75.7739227,11.0184553 75.6973903,10.9063683 75.7182628,10.9063683 Z M0.0410905793,10.7723295 C0.0341330994,10.4048037 0.0772032136,10.5767592 0.109340145,11.0450635 C0.132200436,11.3783312 0.127893425,11.4265586 0.0924434078,11.2389708 C0.0662700308,11.101606 0.0434097394,10.8917338 0.0410905793,10.7723295 Z M103.113837,10.8508237 C103.1526,10.8508237 103.016764,11.0500526 102.849453,11.2389708 C102.672865,11.4385323 102.722562,11.3444058 102.96011,11.0294312 C103.033992,10.9313135 103.103235,10.8508237 103.113837,10.8508237 Z M44.0183276,11.0124685 C43.9573667,10.9422894 44.0259476,10.9825343 44.1700669,11.101606 C44.3141861,11.220345 44.4324631,11.3267779 44.4324631,11.3377537 C44.4324631,11.3773334 44.1256714,11.1365292 44.0183276,11.0124685 Z M86.5030193,10.3519199 C86.5166029,10.3519199 86.3320641,10.5578009 86.0925281,10.8092483 C85.5302974,11.400283 85.5342731,11.3966244 85.6243891,11.2665768 C85.6664651,11.2057105 85.8758521,10.9748844 86.0895463,10.7540363 C86.3032404,10.5328557 86.4894356,10.3519199 86.5030193,10.3519199 Z M69.2746424,10.3519199 C69.288226,10.3519199 69.1159456,10.5454946 68.8923124,10.7816424 C68.3675197,11.3357581 68.3608933,11.3420776 68.4516719,11.2113648 C68.4937481,11.1501659 68.6908766,10.9319787 68.8889992,10.7260977 C69.087453,10.5205494 69.2610588,10.3519199 69.2746424,10.3519199 Z M79.1131817,10.9895189 C79.1131817,10.9589195 79.1486318,10.9965036 79.1920331,11.0726695 C79.2354346,11.1488355 79.2712159,11.23631 79.2712159,11.2665768 C79.2712159,11.2971762 79.2354346,11.2599247 79.1920331,11.1834262 C79.1486318,11.1072602 79.1131817,11.0201183 79.1131817,10.9895189 Z M82.5736997,10.9289853 C82.5862894,10.9416242 82.5584596,11.0227792 82.5117451,11.1092558 C82.4116898,11.2945154 82.3941304,11.2512771 82.4865655,11.0473918 C82.5220156,10.9695628 82.56111,10.9163464 82.5736997,10.9289853 Z M61.9981122,10.8232177 C61.9951306,10.738404 62.1389185,11.0264378 62.1780129,11.1834262 C62.1968974,11.2599247 62.1644293,11.2223407 62.106119,11.1002756 C62.0478085,10.978543 61.9991061,10.8538171 61.9981122,10.8232177 Z M2.30657859,10.8278741 C2.29829587,10.5112365 2.33606504,10.6043652 2.37151506,10.9895189 C2.39073096,11.1960651 2.38543002,11.2695702 2.35726879,11.1834262 C2.33242064,11.1072602 2.30956035,10.9472784 2.30657859,10.8278741 Z M37.1284345,10.8172308 C37.1426807,10.8315327 37.1370485,10.9213354 37.1158448,11.0171249 C37.0661485,11.244625 37.0217532,11.1997237 37.067805,10.9688976 C37.087021,10.871445 37.1145195,10.8032615 37.1284345,10.8172308 Z M96.2315641,10.767673 C96.2315641,10.7374062 96.2792725,10.7996029 96.3372517,10.9063683 C96.3955619,11.0131337 96.4432704,11.1252207 96.4432704,11.1558202 C96.4432704,11.1864196 96.3955619,11.1238903 96.3372517,11.0171249 C96.2792725,10.9103595 96.2315641,10.7982725 96.2315641,10.767673 Z M52.9255584,10.2880602 C53.2926483,9.98339634 53.2899979,10.0246391 52.9215827,10.3542481 C52.7499648,10.5082431 52.4802797,10.7763207 52.3222454,10.9502718 C52.1645426,11.1242229 52.0863539,11.1917412 52.1483085,11.1002756 C52.3040235,10.8717776 52.6190981,10.5421686 52.9255584,10.2880602 Z M66.7060072,8.91540971 C66.7328431,8.91274889 66.6573048,9.01685347 66.5386962,9.14623584 C66.2063939,9.50943778 65.8270454,10.0678774 65.5255547,10.6379581 C65.2008723,11.2519423 65.1571395,11.2549357 65.4642627,10.6419493 C65.6746434,10.2222049 66.1421198,9.5270657 66.4850242,9.12328628 C66.5801099,9.01153184 66.6795024,8.91807052 66.7060072,8.91540971 Z M74.0997045,9.70854532 L74.1120788,9.7106623 C74.355922,9.79048689 75.086126,10.2740909 75.3902674,10.5574683 L75.3902674,10.5574683 L75.7132931,10.8588061 L75.313735,10.5315253 C75.0940775,10.3515873 74.7087655,10.0851727 74.457965,9.93949282 C74.2068331,9.79381292 74.0514493,9.69103875 74.1120788,9.7106623 Z M82.9530479,10.1856187 C82.9672943,10.1856187 82.8973883,10.3336268 82.7976643,10.5142299 C82.6979403,10.6948331 82.6074931,10.8335283 82.5962287,10.8222199 C82.5852955,10.811244 82.6552016,10.6632359 82.7519437,10.4939412 C82.8483545,10.3243139 82.9391331,10.1856187 82.9530479,10.1856187 Z M104.426813,9.85600231 C104.457293,9.85501177 104.320794,9.95678814 104.123997,10.0821793 C103.9272,10.2075704 103.629022,10.422099 103.46138,10.5591313 L103.46138,10.5591313 L103.156907,10.8082506 L103.405389,10.5721028 C103.541888,10.4420552 103.815217,10.2281918 104.012677,10.0968138 C104.210137,9.9654358 104.396333,9.8570074 104.426813,9.85600231 Z M38.6067333,9.63383022 C38.6372138,9.63449633 38.4646019,9.73926611 38.223078,9.86698546 C37.9709522,10.0003591 37.6489203,10.232183 37.4663692,10.4114558 C37.2914384,10.5834113 37.1724986,10.6788682 37.2016537,10.6236562 C37.2934262,10.4513681 37.7854193,10.0562363 38.1766949,9.84004467 C38.3827687,9.72629462 38.5765842,9.63349851 38.6067333,9.63383022 Z M95.9754626,10.2411633 C95.9907029,10.2411633 96.0417243,10.3159988 96.0887702,10.4074645 C96.1361473,10.4989302 96.1619894,10.5737658 96.1470805,10.5737658 C96.1318404,10.5737658 96.0808188,10.4989302 96.0337729,10.4074645 C95.9863958,10.3159988 95.9605539,10.2411633 95.9754626,10.2411633 Z M42.0412989,9.60389415 L42.0579748,9.60689032 C42.4290404,9.71166009 43.2404149,10.2122269 43.4935348,10.4926108 C43.5697357,10.5767592 43.4700119,10.5152277 43.2728832,10.3562437 C43.0754234,10.1972598 42.6901114,9.95479254 42.4167819,9.81742769 C42.1434524,9.68006286 41.982105,9.58527115 42.0579748,9.60689032 Z M46.4226235,9.72137767 L46.4302539,9.73061843 C46.4776311,9.85035533 46.4759744,10.2827386 46.4276035,10.4560245 C46.4073937,10.5285318 46.3911594,10.3738717 46.3918222,10.1121135 C46.3921534,9.85035533 46.4093816,9.67873245 46.4302539,9.73061843 Z M78.550951,9.93616679 L78.641067,10.047256 C78.6904319,10.1081223 78.7553685,10.207903 78.7851862,10.2687693 L78.7851862,10.2687693 L78.8391894,10.3798585 L78.749405,10.2687693 C78.7000398,10.207903 78.6351034,10.1081223 78.6052857,10.047256 L78.6052857,10.047256 L78.550951,9.93616679 Z M2.26796932,9.72371476 C2.2703619,9.48213139 2.27775473,9.40605887 2.28670007,9.56198898 C2.29730194,9.7525702 2.29730194,10.0645513 2.28670007,10.2551326 C2.27775473,10.4110627 2.2703619,10.3349902 2.26796932,10.0934068 Z M69.6755257,10.0735316 C69.9770166,9.87796135 70.1237862,9.80113018 70.0455976,9.87962436 C69.9803298,9.94514705 69.3356033,10.3465983 69.3356033,10.3219857 C69.3356033,10.306686 69.4886677,10.1949315 69.6755257,10.0735316 Z M34.4663701,9.7522376 C34.4779658,9.7638787 34.4607379,9.87962436 34.4279384,10.0093393 C34.3951389,10.1390543 34.3573696,10.2341786 34.3441173,10.2208745 C34.330865,10.207903 34.3484242,10.0921574 34.382549,9.96410541 C34.4170052,9.83572083 34.4547743,9.74059652 34.4663701,9.7522376 Z M61.4388635,9.79414551 C61.315948,9.59791004 61.2751971,9.50910518 61.3484163,9.59657963 C61.4733195,9.74558555 61.774479,10.2504762 61.6979468,10.1822926 C61.6783996,10.1649973 61.5621102,9.990381 61.4388635,9.79414551 Z M86.9642009,10.0189848 C87.1537093,9.90290653 87.1712687,9.89525667 87.1712687,9.93084514 C87.1712687,9.94315144 87.0841346,10.0046829 86.9777845,10.0675448 C86.8714345,10.1304067 86.7846316,10.1699863 86.7846316,10.1553518 C86.7846316,10.1407173 86.8654709,10.0791859 86.9642009,10.0189848 Z M95.2992308,9.28789853 L95.3128456,9.29657217 C95.4109129,9.37805978 95.8475776,9.98073552 95.9171523,10.1304067 C95.9386874,10.1759732 95.9111887,10.1513606 95.8568542,10.0755272 C95.8204102,10.0249717 95.7343436,9.90848687 95.6370371,9.77771249 L95.4874451,9.57728869 C95.3390189,9.37905759 95.2604987,9.25266865 95.3128456,9.29657217 Z M91.6989316,9.92951473 C91.6989316,9.88993504 92.0206323,10.069873 92.0577388,10.130074 C92.0766235,10.1606735 92.0037354,10.1334001 91.8957289,10.0695404 C91.7873911,10.0053481 91.6989316,9.94248624 91.6989316,9.92951473 Z M0.012,9.633 L0.017084944,9.64371304 L0.017084944,9.64371304 L0.0215433738,9.67174779 C0.0338017908,9.77019814 0.0341330994,9.94481445 0.022205991,10.0598949 C0.0102788824,10.1746428 8.31677189e-06,10.094153 8.31677189e-06,9.88095477 L0.000335742819,9.80662071 C0.00135555201,9.71535251 0.00463240083,9.65622202 0.00925519072,9.63837581 L0.012,9.633 Z M76.4037402,7.76327463 C76.4037402,7.59830379 78.043055,9.15854213 78.3809898,9.64513959 C78.6367599,10.0133306 78.5645346,9.97441607 78.2776215,9.58992759 C77.9327292,9.1269449 77.2644798,8.44910101 76.8039609,8.09454674 C76.5836407,7.92525207 76.4037402,7.77624614 76.4037402,7.76327463 Z M53.8976178,9.68904314 C53.9678552,9.68604971 53.9310798,9.7136557 53.7226867,9.81975592 C53.5053485,9.93084514 53.4811628,9.89060024 53.6951883,9.77385676 C53.778678,9.72862282 53.8697878,9.69037353 53.8976178,9.68904314 Z M70.523013,9.63615934 C70.5531621,9.63615934 70.4912075,9.68372148 70.3848574,9.74225953 C70.2785073,9.80079758 70.1668564,9.84835972 70.1363759,9.84835972 C70.1058957,9.84835972 70.1681817,9.80079758 70.2745316,9.74225953 C70.3805505,9.68372148 70.4925328,9.63615934 70.523013,9.63615934 Z M108.559556,9.74525296 C108.471097,9.69004093 108.475735,9.68671491 108.595669,9.72030777 C108.67187,9.74159431 108.870323,9.77917841 109.037634,9.80345838 L109.037634,9.80345838 L109.341113,9.84736191 L109.001522,9.82840357 C108.814664,9.81776029 108.615878,9.78050881 108.559556,9.74525296 Z M87.7510587,9.63482893 C87.7812078,9.63549412 87.7086513,9.6847193 87.5897115,9.74425514 C87.4707717,9.80379098 87.3644216,9.84370329 87.3534884,9.83272741 C87.3425552,9.82208412 87.4151119,9.77285897 87.5148358,9.72363379 C87.6142282,9.67407602 87.7205783,9.63449633 87.7510587,9.63482893 Z M91.0962813,9.65312205 C91.0489043,9.60822073 91.1562483,9.63383111 91.341781,9.71166009 C91.4471372,9.75589624 91.5332773,9.8044562 91.5332773,9.81975592 C91.5332773,9.84636411 91.1429958,9.69769079 91.0962813,9.65312205 Z M104.689209,9.71398832 C104.861159,9.63882014 104.995007,9.60722291 104.946636,9.65312205 C104.900253,9.69769079 104.50964,9.84669671 104.50964,9.81975592 C104.50964,9.8047888 104.590479,9.75722663 104.689209,9.71398832 Z M84.3359301,8.46739413 C84.3518328,8.46739413 84.210364,8.63569101 84.0215181,8.84157195 C83.8326722,9.04712031 83.5788899,9.34646255 83.4579623,9.50677695 C83.3367035,9.66675875 83.2257149,9.79780415 83.2118001,9.79780415 C83.161441,9.79780415 83.5361512,9.32085216 83.9191437,8.89678397 C84.1325065,8.66063619 84.3203586,8.46739413 84.3359301,8.46739413 Z M110.401632,8.820618 C110.553371,8.97294994 109.716817,9.79946717 109.413007,9.79714385 C109.373581,9.79680634 109.465685,9.73860089 109.617756,9.66742397 C109.919578,9.52606791 110.188269,9.25499686 110.303896,8.97527815 C110.344315,8.87682782 110.388379,8.80731389 110.401632,8.820618 Z M107.491417,9.43493481 C107.114057,9.36209486 107.10478,9.35743843 107.388049,9.38205102 C107.69981,9.40899181 108.462151,9.6178662 108.416431,9.66343273 C108.403178,9.67706944 108.282582,9.64913083 108.148733,9.60156866 C108.014885,9.55400652 107.719358,9.47917096 107.491417,9.43493481 Z M34.5733829,9.47019069 C34.6946417,9.2347081 34.7340676,9.25300125 34.6204286,9.49214245 C34.5697384,9.59857524 34.518717,9.67573903 34.5067898,9.66343273 C34.4948627,9.65145904 34.5246806,9.5646498 34.5733829,9.47019069 Z M73.1536031,9.41265045 C73.261941,9.40899181 73.993139,9.63050509 73.9653092,9.6584437 C73.9550385,9.66908698 73.7476393,9.61886399 73.5044589,9.54668926 C73.2616097,9.47451452 73.1039068,9.41431346 73.1536031,9.41265045 Z M90.3776731,9.41364825 C90.4833606,9.40865921 91.055199,9.57562568 91.0277006,9.60323167 C91.0167673,9.61420756 90.8464748,9.57695607 90.6493461,9.52041366 C90.4522174,9.46387124 90.3299646,9.41564388 90.3776731,9.41364825 Z M56.2803889,9.41298305 C56.4046298,9.40932443 56.9897207,9.57229964 56.9585777,9.60156866 C56.9479758,9.61154675 56.7654247,9.57363005 56.5527247,9.51775283 C56.3400245,9.46187561 56.2174404,9.41464606 56.2803889,9.41298305 Z M105.641721,9.41730689 C105.702351,9.41763949 105.5907,9.46387124 105.393571,9.52041366 C104.976785,9.63981796 104.865797,9.62252263 105.263036,9.50012491 C105.410468,9.45455837 105.580761,9.41730689 105.641721,9.41730689 Z M41.3678589,9.4189699 C41.4851423,9.41797208 41.9582509,9.56099116 41.8648219,9.56897362 C41.8343414,9.57163444 41.6852525,9.5390394 41.5335132,9.49679888 C41.3814426,9.45422575 41.3068982,9.4193025 41.3678589,9.4189699 Z M54.8133547,9.4186373 C54.8892244,9.4189699 54.8146798,9.45322796 54.6477004,9.49513587 C54.2680208,9.59026018 54.1616707,9.58826457 54.4545475,9.49114463 C54.5758065,9.45089973 54.7374849,9.41830468 54.8133547,9.4186373 Z M88.4686731,9.4196351 C88.529634,9.4196351 88.455752,9.45356055 88.3050066,9.49513587 C88.1542613,9.53671119 88.0210753,9.56065856 88.0091481,9.54868487 C87.997221,9.53671119 88.0707716,9.50278573 88.1728146,9.47318411 C88.2748576,9.44391509 88.4080435,9.4196351 88.4686731,9.4196351 Z M71.2684574,9.41231786 C71.4062817,9.36542089 71.7488549,9.33581926 71.7054533,9.37473376 C71.6928636,9.38604226 71.5583523,9.40998963 71.4062817,9.42761755 C71.2200864,9.44890412 71.1753596,9.44424768 71.2684574,9.41231786 Z M55.945436,9.36808171 C56.066695,9.36774911 56.1230175,9.3783924 56.0703394,9.3923617 C56.0173299,9.40633101 55.9179373,9.40666361 55.8493566,9.3933595 C55.7807756,9.38005541 55.8238458,9.36874691 55.945436,9.36808171 Z M55.1721618,9.36808171 C55.293752,9.36774911 55.3500746,9.3783924 55.2970652,9.3923617 C55.2443871,9.40633101 55.1449945,9.40666361 55.0764136,9.3933595 C55.0075014,9.38005541 55.050903,9.36874691 55.1721618,9.36808171 Z M39.6834863,9.3670839 C39.7898362,9.3670839 39.8332377,9.3783924 39.7802282,9.3923617 C39.727219,9.40633101 39.6400847,9.40633101 39.5870755,9.3923617 C39.5337346,9.3783924 39.5771362,9.3670839 39.6834863,9.3670839 Z M41.064049,9.3670839 C41.1703991,9.3670839 41.2138004,9.3783924 41.1607912,9.3923617 C41.1074503,9.40633101 41.0206477,9.40633101 40.9673068,9.3923617 C40.9142976,9.3783924 40.9576989,9.3670839 41.064049,9.3670839 Z M72.8696717,9.3670839 C72.9760218,9.3670839 73.0194232,9.3783924 72.9664137,9.3923617 C72.9130731,9.40633101 72.8262702,9.40633101 72.7729296,9.3923617 C72.7199203,9.3783924 72.7633217,9.3670839 72.8696717,9.3670839 Z M90.0977172,9.3670839 C90.2040673,9.3670839 90.2474689,9.3783924 90.1944594,9.3923617 C90.1411188,9.40633101 90.0543159,9.40633101 90.0009753,9.3923617 C89.9479658,9.3783924 89.9913674,9.3670839 90.0977172,9.3670839 Z M105.9452,9.3670839 C106.05155,9.3670839 106.094952,9.3783924 106.041942,9.3923617 C105.988933,9.40633101 105.901799,9.40633101 105.848789,9.3923617 C105.795449,9.3783924 105.83885,9.3670839 105.9452,9.3670839 Z M72.2345532,9.31686093 C72.4472534,9.31719352 72.5274299,9.32717161 72.4127972,9.33914529 C72.2981645,9.35111898 72.1242274,9.35111898 72.0264915,9.33881269 C71.928424,9.32650639 72.0221844,9.31686093 72.2345532,9.31686093 Z M40.3739333,9.31686093 C40.5863021,9.31719352 40.6664787,9.32717161 40.5521773,9.33914529 C40.4375444,9.35111898 40.2636075,9.35111898 40.1655402,9.33881269 C40.0674728,9.32650639 40.1612331,9.31686093 40.3739333,9.31686093 Z M106.676275,9.31698111 C106.822681,9.31905922 106.873775,9.32804468 106.787387,9.33881269 C106.688657,9.35111898 106.527309,9.35111898 106.428579,9.33881269 C106.329849,9.32650639 106.410689,9.31652833 106.607817,9.31652833 Z M89.5035584,9.31698111 C89.6499656,9.31905922 89.7010639,9.32804468 89.6146693,9.33881269 C89.5159395,9.35111898 89.3542609,9.35111898 89.2555309,9.33881269 C89.1568011,9.32650639 89.2376404,9.31652833 89.4351002,9.31652833 Z M44.5414639,7.78655681 C44.4202048,7.69908236 44.4188795,7.69475852 44.5295367,7.74730972 C44.8343406,7.8919918 46.1244561,9.06441564 46.2672502,9.32650639 C46.3007122,9.38737265 46.1347267,9.23138208 45.8985036,8.97960199 C45.5234623,8.57981379 44.9864112,8.10751823 44.5414639,7.78655681 Z M2.3383842,8.66196661 C2.39536928,8.3157274 2.41690433,8.51096505 2.36290103,8.88314726 C2.33606504,9.06607865 2.31154821,9.14091421 2.30823513,9.04944852 C2.30492204,8.95798282 2.31850568,8.78336652 2.3383842,8.66196661 Z M0.176434106,8.04562755 C0.193492522,8.08224045 0.165662602,8.3563049 0.121267253,8.66130139 C0.055336848,9.11630162 0.046060208,9.14590324 0.0689204992,8.82760264 C0.0841606935,8.61407184 0.112321922,8.34000737 0.131206511,8.21794226 C0.150422407,8.09620975 0.173945316,8.02137417 0.183884573,8.05164101 Z M59.3963461,7.71238647 C59.3963461,7.63721829 60.1812161,8.26583703 60.5526131,8.63868443 C60.8895539,8.97694116 60.711641,8.85986509 60.3170527,8.48369166 C60.0944132,8.27149125 59.7962355,8.01738295 59.6544355,7.91959782 C59.5126353,7.82148008 59.3963461,7.72835138 59.3963461,7.71238647 Z M36.149749,7.74896773 C36.164658,7.74963795 36.0778551,7.82846472 35.9562649,7.92392165 C35.8350058,8.01937856 35.5500805,8.28679097 35.3231342,8.51794972 L35.2588016,8.58297717 C35.0770115,8.76489045 34.9983523,8.82640527 35.0839293,8.71684601 C35.2803954,8.46539852 35.6431782,8.11250727 35.9287662,7.89498523 C36.0351163,7.81416282 36.1345089,7.74830753 36.149749,7.74896773 Z M68.107111,7.69142257 C68.1621081,7.69043468 68.0816002,7.76460505 67.8314623,7.9448756 C67.6724341,8.05995607 67.4073872,8.28047153 67.2427269,8.4351317 C67.0783979,8.59012445 66.9664156,8.67759892 66.9939142,8.62970416 C67.0568628,8.52027792 67.394135,8.21993787 67.7897174,7.92126083 C67.9566969,7.79487188 68.099491,7.69142257 68.107111,7.69142257 Z M110.435559,8.31223943 C110.437656,8.18138992 110.4465,8.13170319 110.457292,8.20297514 C110.469881,8.28612578 110.470212,8.4357969 110.457954,8.53557764 C110.445696,8.63535841 110.435425,8.56717489 110.435094,8.38424351 Z M85.0021914,7.91294577 C85.0505626,7.91294577 84.9879452,7.97514244 84.727868,8.18567981 L84.727868,8.18567981 L84.4379731,8.42049718 L84.7122965,8.16672148 C84.8633732,8.02702842 84.9939088,7.91294577 85.0021914,7.91294577 Z M101.878,7.613 L101.899591,7.84376444 C101.921789,8.09255111 101.954588,8.12248535 102.080154,8.01006569 C102.146085,7.95086245 102.146747,7.95518629 102.084461,8.03767171 C101.945312,8.2222661 101.858509,8.15508038 101.868779,7.87137045 L101.868779,7.87137045 L101.878,7.613 Z M102.617537,7.63588787 C102.669552,7.63588787 102.604285,7.69509112 102.411463,7.82314309 C102.289873,7.9039655 102.19048,7.95817971 102.19048,7.94354519 C102.19048,7.92891069 102.283247,7.85374253 102.396554,7.77624614 C102.509862,7.69908236 102.609254,7.63588787 102.617537,7.63588787 Z M51.361,1.497 L51.3760282,4.54534544 C51.3839797,6.3364099 51.4091591,7.80185653 51.4316881,7.80185653 C51.4542171,7.80185653 51.5844213,7.72569055 51.7212517,7.63256185 C51.8577508,7.53943315 52.093974,7.40240092 52.2457132,7.32756536 C52.5574746,7.173903 52.5047965,7.21647612 52.0247304,7.50584031 C51.8425107,7.61559912 51.6129139,7.75462698 51.5141839,7.81482804 L51.5141839,7.81482804 L51.3346146,7.92392165 L51.347867,4.60621169 L51.361,1.497 Z M2.61403294,7.59896901 C2.62695396,7.6119405 2.6209904,7.68910429 2.60078059,7.7702593 C2.58023946,7.8517469 2.55307216,7.90729152 2.54015111,7.89432003 C2.52723008,7.88134852 2.53319364,7.80418475 2.55340346,7.72302973 C2.57361329,7.64154212 2.60111191,7.5859975 2.61403294,7.59896901 Z M16.88018,6.9197947 C16.8682528,6.75183042 17.1833273,7.59165175 17.2323609,7.85740115 C17.2519082,7.96416656 17.1810081,7.80218912 17.0749894,7.49719264 C16.9686393,7.19219615 16.8811739,6.9324336 16.88018,6.9197947 Z M85.4126829,7.63455748 C85.7141736,7.43898721 85.8609434,7.36215602 85.7827545,7.44065022 C85.7174867,7.50584031 85.0727603,7.90762412 85.0727603,7.88267893 C85.0727603,7.86771183 85.2258249,7.75595739 85.4126829,7.63455748 Z M110.065685,7.46725842 C109.949395,7.33488262 109.969937,7.34718892 110.127971,7.50550769 C110.257181,7.63455748 110.361875,7.77292012 110.361215,7.81283241 C110.360218,7.85274471 110.332057,7.83544939 110.298595,7.77425051 C110.265133,7.71338426 110.160439,7.57502162 110.065685,7.46725842 Z M19.4279429,7.46958662 C19.4269489,7.41869846 19.4448396,7.42934172 19.4736634,7.49719264 C19.4998368,7.55805889 19.5203779,7.65783966 19.5197153,7.71903851 C19.5177275,7.85008389 19.4305933,7.61360351 19.4279429,7.46958662 Z M75.9342759,7.46326718 L76.0446018,7.51781398 C76.1055624,7.54774823 76.204955,7.61293832 76.2655846,7.66249609 L76.2655846,7.66249609 L76.3759104,7.75263137 L76.2655846,7.69841716 C76.204955,7.66848292 76.1055624,7.60329283 76.0446018,7.55373507 L76.0446018,7.55373507 L75.9342759,7.46326718 Z M36.4396439,7.55639588 C36.6778549,7.41271161 36.7663143,7.37645792 36.67156,7.46060637 C36.5774684,7.54408958 36.2047461,7.75662259 36.2047461,7.72668837 C36.2047461,7.71072345 36.3104337,7.63389226 36.4396439,7.55639588 Z M44.0733247,7.49852305 C43.9709503,7.41503981 43.9755888,7.41470722 44.1389239,7.49419921 C44.235666,7.54109616 44.3320768,7.60728407 44.3526178,7.64087693 C44.3983383,7.71537989 44.2412982,7.63522268 44.0733247,7.49852305 Z M58.6369869,7.24774077 C58.6883397,7.24774077 59.3413488,7.63622049 59.3413488,7.66648731 C59.3413488,7.69509112 58.7363795,7.36747767 58.6538835,7.29430512 C58.6250598,7.26869472 58.6174397,7.24774077 58.6369869,7.24774077 Z M68.8648137,7.25206459 C68.9310755,7.24674295 68.7856309,7.34552591 68.4245046,7.55074165 C68.0739802,7.74963795 68.1458741,7.6648243 68.5245598,7.43200254 C68.6822626,7.33554782 68.8353272,7.25439281 68.8648137,7.25206459 Z M101.283,6.725 L101.46392,6.88753226 C101.648791,7.0541661 101.860165,7.40240092 101.857846,7.53643973 C101.857184,7.57601943 101.806162,7.49586222 101.744539,7.3584974 C101.682584,7.22146517 101.552711,7.02190366 101.455638,6.91513827 L101.455638,6.91513827 L101.283,6.725 Z M99.1792166,7.30694401 C99.3034572,7.06547458 99.3279741,7.09607402 99.218311,7.35616917 C99.1676208,7.47657129 99.1182557,7.55306986 99.1086478,7.52612906 C99.0993712,7.49918824 99.1308454,7.40040531 99.1792166,7.30694401 Z M103.225819,7.2790054 C103.455085,7.1592685 103.634654,7.09540882 103.566405,7.15793809 C103.510082,7.20915888 102.963423,7.46858883 102.963423,7.44364364 C102.963423,7.42867652 103.0817,7.35450616 103.225819,7.2790054 Z M74.9367058,6.97068287 C75.002305,6.97068287 75.9067773,7.40306614 75.9067773,7.43466337 C75.9067773,7.45927596 74.9744751,7.04119461 74.9174899,6.99097162 C74.9045689,6.97966314 74.9135142,6.97068287 74.9367058,6.97068287 Z M0.463509005,6.93675741 C0.475436115,6.94873111 0.448268812,7.08010911 0.403210847,7.22811721 C0.357821572,7.37612532 0.319058469,7.46260198 0.317070618,7.42036147 C0.314751457,7.37812095 0.341918761,7.24707555 0.377037469,7.12900166 C0.412487486,7.01092778 0.451250589,6.92445114 0.463509005,6.93675741 Z M43.570067,7.19219615 C43.6293713,7.19219615 43.9355004,7.35716698 43.9355004,7.38909683 C43.9355004,7.41404202 43.6101554,7.26403828 43.5535016,7.2128175 C43.5409119,7.20150902 43.5482006,7.19219615 43.570067,7.19219615 Z M92.6587326,7.19219615 C92.7180368,7.19219615 93.024166,7.35716698 93.024166,7.38909683 C93.024166,7.41404202 92.6991521,7.26403828 92.6424986,7.2128175 C92.6295775,7.20150902 92.6371975,7.19219615 92.6587326,7.19219615 Z M2.88868774,6.87688897 C2.90094616,6.88919527 2.86218305,7.00859957 2.80287882,7.14263837 C2.67168062,7.4393198 2.65246472,7.39275545 2.77736806,7.08010911 C2.82673304,6.95638097 2.87676062,6.86491528 2.88868774,6.87688897 Z M37.4560988,7.05084008 C37.7552702,6.92744454 37.9119794,6.88320842 37.8566507,6.93808782 C37.844061,6.95039412 37.7095497,7.00959736 37.5578104,7.06946582 C37.4057397,7.12933426 37.2318028,7.19785038 37.1711733,7.22179777 C37.1105438,7.24574514 37.0770817,7.24707555 37.0969601,7.22479119 C37.1168387,7.20250681 37.2785173,7.12434523 37.4560988,7.05084008 Z M52.8530018,7.02988611 C52.8834822,7.02988611 52.8463756,7.06547458 52.7701746,7.10904551 C52.694305,7.15261644 52.6075023,7.18853753 52.5770218,7.18853753 C52.5465414,7.18853753 52.5839794,7.15261644 52.659849,7.10904551 C52.7357186,7.06547458 52.8228527,7.02988611 52.8530018,7.02988611 Z M58.1539391,7.02988611 C58.1844193,7.02988611 58.2715535,7.06547458 58.3474232,7.10904551 C58.4232928,7.15261644 58.4603994,7.18853753 58.4302503,7.18853753 C58.3997699,7.18853753 58.312967,7.15261644 58.2367662,7.10904551 C58.1608964,7.06547458 58.12379,7.02988611 58.1539391,7.02988611 Z M69.3634331,7.02988611 C69.3935822,7.02988611 69.3564756,7.06547458 69.280606,7.10904551 C69.2047363,7.15261644 69.1176021,7.18853753 69.0871218,7.18853753 C69.0569728,7.18853753 69.0940791,7.15261644 69.169949,7.10904551 C69.2461498,7.06547458 69.3329527,7.02988611 69.3634331,7.02988611 Z M42.9034741,6.91846429 C42.9710611,6.91347524 43.500161,7.14862522 43.4763067,7.17290519 C43.4647109,7.18421369 43.3212542,7.13232769 43.1569252,7.05749213 C42.9929276,6.98265657 42.8789574,6.9201273 42.9034741,6.91846429 Z M86.8674587,6.9207925 C86.9367022,6.92411852 86.5010314,7.12866907 86.4258245,7.12833647 C86.3953441,7.12800387 86.4698884,7.0807743 86.5914788,7.02290147 C86.7127377,6.96536124 86.8369785,6.91912949 86.8674587,6.9207925 Z M103.74233,7.03055133 C103.949066,6.94773331 104.001744,6.96602644 103.82847,7.06015295 C103.741998,7.1070499 103.657846,7.13166249 103.640949,7.11469976 C103.624052,7.09773703 103.669773,7.05982035 103.74233,7.03055133 Z M91.9878328,6.91912949 C92.0531006,6.91281004 92.4788321,7.09341319 92.4549778,7.11736059 C92.4427195,7.12933426 92.3237797,7.09041977 92.1902623,7.03121653 C92.0567449,6.97168069 91.9656351,6.9211251 91.9878328,6.91912949 Z M19.1059109,6.36068989 C19.1387105,6.36068989 19.3646629,7.0258949 19.359362,7.10605209 C19.3557176,7.15827069 19.225182,6.82101175 19.1191633,6.48541583 C19.0976282,6.41689971 19.0916647,6.36068989 19.1059109,6.36068989 Z M100.11682,6.52965197 C100.188051,6.53098236 100.152932,6.55958619 100.022728,6.60648314 C99.8077088,6.68331431 99.7364776,6.72888086 99.4581783,6.96768945 C99.2981564,7.10472169 99.2964997,7.10505429 99.4028498,6.97600452 C99.4631479,6.90283197 99.6228387,6.77178657 99.7580127,6.68497732 C99.8928552,6.59816808 100.054534,6.52832156 100.11682,6.52965197 Z M57.7398033,6.9058254 C57.6824869,6.87023693 57.6990524,6.86558049 57.7951318,6.89152347 C57.8710014,6.91181222 57.970394,6.95172453 58.0161146,6.97999574 C58.0734309,7.01558421 58.0568655,7.01990805 57.9607861,6.99429766 C57.8849164,6.97367629 57.7855239,6.93409661 57.7398033,6.9058254 Z M70.1638746,6.7574833 C70.2095952,6.75715207 70.0747527,6.81735313 69.8643718,6.89119088 C69.654322,6.96502864 69.4724336,7.01558421 69.4608378,7.00361054 C69.4489107,6.99196944 69.5837534,6.93143578 69.7603407,6.86990431 C69.9365968,6.80804026 70.1184854,6.7574833 70.1638746,6.7574833 Z M108.816651,6.75548906 C108.862041,6.75449125 108.974023,6.78808411 109.065133,6.82999202 C109.278496,6.92810976 109.179103,6.92944017 108.926977,6.83198763 C108.820627,6.79074493 108.771262,6.75648686 108.816651,6.75548906 Z M38.6067333,6.70060966 C38.6676942,6.70094225 38.5557119,6.7485044 38.3582519,6.80637725 C37.9033652,6.93941824 37.7917143,6.93642481 38.1925975,6.80205341 C38.3595772,6.74584359 38.5461038,6.70027704 38.6067333,6.70060966 Z M104.81345,6.70327046 C104.874079,6.70260526 104.763754,6.74916962 104.56795,6.80704245 C104.372478,6.86491528 104.202517,6.90249935 104.19059,6.89052568 C104.178663,6.87855198 104.288989,6.83198763 104.43609,6.78675369 C104.582859,6.74185235 104.752489,6.70426828 104.81345,6.70327046 Z M74.2777331,6.79573397 C74.2031888,6.76380412 74.2300247,6.75948028 74.3605603,6.78276246 C74.4669104,6.8013882 74.591151,6.83930489 74.6365404,6.86691091 C74.7346077,6.92578153 74.4483571,6.86923911 74.2777331,6.79573397 Z M57.3534974,6.75648686 C57.3988868,6.75648686 57.4860208,6.77810602 57.5466503,6.80438162 C57.6162252,6.83431586 57.6264957,6.85194379 57.574149,6.85194379 C57.5287596,6.85194379 57.4416255,6.83032462 57.380996,6.80438162 C57.3114213,6.7741148 57.3011507,6.75648686 57.3534974,6.75648686 Z M53.6537746,6.75648686 C53.7061213,6.75648686 53.6958508,6.7741148 53.6262759,6.80438162 C53.5653153,6.83032462 53.4785124,6.85194379 53.4327918,6.85194379 C53.3807765,6.85194379 53.391047,6.83431586 53.4606219,6.80438162 C53.5212512,6.77810602 53.608054,6.75648686 53.6537746,6.75648686 Z M42.3892832,6.75648686 C42.4346726,6.75648686 42.5218067,6.77810602 42.5824362,6.80438162 C42.6520111,6.83431586 42.6622815,6.85194379 42.610266,6.85194379 C42.5645454,6.85194379 42.4777428,6.83032462 42.4167819,6.80438162 C42.3472072,6.7741148 42.3369365,6.75648686 42.3892832,6.75648686 Z M87.3919203,6.75648686 C87.444267,6.75648686 87.4339965,6.7741148 87.3644216,6.80438162 C87.3037921,6.83032462 87.2166581,6.85194379 87.1712687,6.85194379 C87.118922,6.85194379 87.1291924,6.83431586 87.1987673,6.80438162 C87.2593969,6.77810602 87.3465309,6.75648686 87.3919203,6.75648686 Z M91.4782802,6.75648686 C91.5236693,6.75648686 91.6108036,6.77810602 91.6714331,6.80438162 C91.7410078,6.83431586 91.7512785,6.85194379 91.6989316,6.85194379 C91.6535424,6.85194379 91.5664081,6.83032462 91.5057788,6.80438162 C91.4362039,6.7741148 91.4259335,6.75648686 91.4782802,6.75648686 Z M16.2960829,5.83418013 C16.2225324,5.71843445 16.2159063,5.68816763 16.2748792,5.73473198 C16.361682,5.80358069 16.879186,6.75116522 16.8775335,6.83863968 C16.8771982,6.86558049 16.7698542,6.68797074 16.6393186,6.44384051 C16.5091144,6.20004287 16.3543932,5.92564582 16.2960829,5.83418013 Z M100.826483,6.53198018 C100.928194,6.52699114 101.251883,6.67366884 101.251883,6.72455703 C101.251883,6.74018934 101.197217,6.72355921 101.130624,6.68763814 C101.064362,6.65204967 100.946085,6.60348971 100.868559,6.57954234 C100.774467,6.55093851 100.760552,6.5349736 100.826483,6.53198018 Z M0.678528269,6.32111018 C0.690455376,6.33308388 0.672233405,6.42288656 0.638108623,6.5210043 C0.604315149,6.61878943 0.56687728,6.68930115 0.554950171,6.67766008 C0.543023063,6.66568638 0.561245034,6.5758837 0.595369817,6.47776597 C0.629494599,6.37998083 0.666932467,6.30946911 0.678528269,6.32111018 Z M3.04374015,6.47676815 C3.16499909,6.24128559 3.20442481,6.25957873 3.09078597,6.49871993 C3.04042707,6.60515273 2.98907423,6.68231651 2.97714714,6.67001022 C2.96522002,6.65803652 2.99503779,6.57122727 3.04374015,6.47676815 Z M71.3512846,6.53896482 C71.4725434,6.53829962 71.3499593,6.57255768 71.0789488,6.61479819 C70.5448795,6.69828143 70.3553709,6.68198391 70.8360997,6.59417684 C70.9977783,6.56457522 71.2296943,6.53963004 71.3512846,6.53896482 Z M56.5802232,6.59550726 C56.6865733,6.59550726 56.7299748,6.60681574 56.6769653,6.62078504 C56.6239561,6.63475435 56.5368218,6.63475435 56.4838124,6.62078504 C56.4304717,6.60681574 56.4738733,6.59550726 56.5802232,6.59550726 Z M107.330401,6.54794509 C107.289319,6.51069361 107.732941,6.53397579 107.98838,6.58286836 C108.175238,6.61845683 108.127198,6.62244805 107.795227,6.59949847 C107.552047,6.58286836 107.342991,6.55958619 107.330401,6.54794509 Z M39.1590247,6.58453138 C39.3276608,6.53929744 39.7759214,6.51036101 39.7341765,6.54761249 C39.7215866,6.55858837 39.5496375,6.58153795 39.3521777,6.59850068 C39.1262252,6.61779162 39.0546625,6.61280258 39.1590247,6.58453138 Z M88.1651945,6.58552917 C88.3682866,6.53963004 88.8072704,6.51202402 88.7678447,6.54794509 C88.755255,6.55958619 88.5710474,6.58253577 88.3583473,6.59916588 C88.1095346,6.61845683 88.0406225,6.61346778 88.1651945,6.58552917 Z M41.0133588,6.54727989 C40.9712825,6.51036101 41.4758655,6.53963004 41.6438391,6.58386616 C41.7442256,6.61047438 41.6574227,6.61579601 41.4228563,6.59750287 C41.2104875,6.58087273 41.0259485,6.55825578 41.0133588,6.54727989 Z M72.87431,6.54727989 C72.8319026,6.51036101 73.3368168,6.53963004 73.5047903,6.58386616 C73.6051768,6.61047438 73.5183739,6.61579601 73.2838075,6.59750287 C73.0711073,6.58087273 72.8868997,6.55825578 72.87431,6.54727989 Z M90.1023557,6.54727989 C90.0599481,6.51036101 90.5648625,6.53963004 90.7328358,6.58386616 C90.8332223,6.61047438 90.7464194,6.61579601 90.511853,6.59750287 C90.299153,6.58087273 90.1149454,6.55825578 90.1023557,6.54727989 Z M105.36541,6.58386616 C105.533384,6.53963004 106.038298,6.51036101 105.99589,6.54727989 C105.983301,6.55825578 105.799093,6.58087273 105.586393,6.59750287 C105.351827,6.61579601 105.265024,6.61047438 105.36541,6.58386616 Z M54.4820461,6.58220315 C54.6808313,6.54062785 55.4574184,6.51135883 55.416005,6.5469473 C55.4034153,6.55825578 55.1446631,6.57954234 54.8408532,6.59484204 C54.5373746,6.61014176 54.375696,6.60448753 54.4820461,6.58220315 Z M56.0282631,6.54495167 C56.2253918,6.54495167 56.3062311,6.55492975 56.2075011,6.56723605 C56.1087711,6.57954234 55.9474239,6.57954234 55.848694,6.56723605 C55.749964,6.55492975 55.8308033,6.54495167 56.0282631,6.54495167 Z M106.688177,6.49141682 C106.886759,6.49323815 106.957274,6.502009 106.842715,6.51235662 C106.713505,6.52399772 106.502461,6.52399772 106.373251,6.51235662 C106.244041,6.50071554 106.349728,6.49107008 106.607817,6.49107008 Z M89.5153723,6.49141682 C89.7137757,6.49323815 89.7845202,6.502009 89.6696667,6.51235662 C89.5407876,6.52399772 89.3294127,6.52399772 89.2005338,6.51235662 C89.0713233,6.50071554 89.1770109,6.49107008 89.4351002,6.49107008 Z M72.3198176,6.49164996 C72.5312624,6.49323404 72.6125762,6.50197204 72.4986061,6.51202402 C72.3703896,6.52366512 72.1467564,6.52399772 72.0016432,6.51235662 C71.8565301,6.50104814 71.9612237,6.49140267 72.2345532,6.49140267 Z M40.4817039,6.49141682 C40.6801073,6.49323815 40.750852,6.502009 40.6359984,6.51235662 C40.5071193,6.52399772 40.2957444,6.52399772 40.1668653,6.51235662 C40.0376551,6.50071554 40.1433424,6.49107008 40.4014318,6.49107008 Z M100.478609,6.48674624 C100.615439,6.48674624 100.67143,6.49772212 100.602849,6.51069361 C100.5346,6.52399772 100.422949,6.52399772 100.354368,6.51069361 C100.286118,6.49772212 100.34211,6.48674624 100.478609,6.48674624 Z M18.3816704,4.89191725 C18.3704059,4.86131781 18.3896218,4.8736241 18.4244092,4.91952324 C18.5161817,5.03959276 19.0863637,6.21168397 19.0850408,6.27753926 C19.0840446,6.32343841 18.4495886,5.072853 18.3816704,4.89191725 Z M3.38068096,5.91733074 C3.39558985,5.91733074 3.36974777,5.99216632 3.32237066,6.08363199 C3.27532484,6.17509768 3.22430332,6.24993326 3.20906312,6.24993326 C3.19415423,6.24993326 3.21999631,6.17509768 3.26737344,6.08363199 C3.31441924,5.99216632 3.36544078,5.91733074 3.38068096,5.91733074 Z M0.961465786,5.66288984 C0.974055513,5.67552874 0.946225592,5.75668374 0.899511085,5.8431604 C0.799455896,6.02841999 0.781565233,5.98484906 0.874331633,5.78096373 C0.909450341,5.70346735 0.948876061,5.64991833 0.961465786,5.66288984 Z M3.87731251,5.19658114 C3.90481111,5.19658114 3.52778197,5.74737087 3.44064781,5.83418013 C3.36544078,5.90934829 3.55362403,5.60002796 3.71927831,5.37685169 C3.79249752,5.27773614 3.86372885,5.19658114 3.87731251,5.19658114 Z M15.9598047,5.30767036 C15.9750449,5.30767036 16.040644,5.38250592 16.1055805,5.47397161 C16.1701857,5.5654373 16.2109366,5.64027286 16.1956965,5.64027286 C16.1807876,5.64027286 16.1151885,5.5654373 16.050252,5.47397161 C15.9853155,5.38250592 15.9445645,5.30767036 15.9598047,5.30767036 Z M1.28117856,5.03027989 C1.29641875,5.03027989 1.24605985,5.15500582 1.16886495,5.30767036 C1.09200136,5.46000231 1.01679432,5.58472824 1.00155412,5.58472824 C0.986313929,5.58472824 1.03667283,5.46000231 1.11386773,5.30767036 C1.19073132,5.15500582 1.26593836,5.03027989 1.28117856,5.03027989 Z M14.4765363,3.81461773 C14.278745,3.65363813 14.2757633,3.64831647 14.4490377,3.76106873 C14.6842668,3.91473109 15.5529578,4.75255679 15.7931565,5.05755328 C15.8889047,5.17895319 15.6815055,4.98970238 15.3323063,4.63614591 C14.9831071,4.28292206 14.5981265,3.91340068 14.4765363,3.81461773 Z M18.0877997,4.38935485 C18.114967,4.40631758 18.1895114,4.50909175 18.253454,4.61785277 C18.3173965,4.72628119 18.3472143,4.80144935 18.3197157,4.78448662 C18.2925484,4.76752391 18.218004,4.66474972 18.1540614,4.5559887 C18.0901188,4.4475603 18.0603011,4.37239212 18.0877997,4.38935485 Z M2.89663914,2.89364141 C2.91187934,2.90927373 2.79790919,3.0532906 2.64285678,3.21393762 C2.31784307,3.55053134 1.95472888,4.01185101 1.69630819,4.41629567 C1.59724693,4.57095582 1.50580577,4.69767738 1.49255342,4.69767738 C1.41105152,4.69767738 1.96831253,3.91805711 2.46063707,3.34265479 C2.68493297,3.08023141 2.88139896,2.87834169 2.89663914,2.89364141 Z M5.54280069,3.58911323 C5.59647268,3.58911323 5.5239161,3.65762935 5.25091784,3.86484072 C5.08128786,3.99322527 4.76455686,4.26329851 4.54688713,4.46485563 C4.27455148,4.71696832 4.2284996,4.74856555 4.39912351,4.56563419 C4.53595394,4.41928907 4.84539616,4.13990299 5.0872514,3.94433271 C5.32910666,3.74909504 5.53418666,3.58911323 5.54280069,3.58911323 Z M14.9734991,1.40724082 C14.8830519,1.31577513 15.2196614,1.53163416 15.6861439,1.86423666 C16.4445092,2.40504832 17.767093,3.76572517 18.0003342,4.24500536 C18.0251824,4.29589355 17.9877445,4.26296591 17.9175071,4.17183282 C17.1147464,3.13045438 16.4441779,2.46425157 15.5937088,1.86290625 C15.2829413,1.643056 15.0039795,1.43784025 14.9734991,1.40724082 Z M5.71673769,3.48135003 C5.85754383,3.35828711 5.91684806,3.33433971 5.86284477,3.42247938 C5.84396018,3.4527462 5.77438538,3.50429961 5.70746104,3.53656203 C5.59282828,3.59243925 5.59315959,3.58944583 5.71673769,3.48135003 Z M12.9226991,2.86836361 C12.9846538,2.86836361 13.6939854,3.2398806 13.8139191,3.33533753 C13.8745486,3.38356489 13.7006116,3.30673372 13.427282,3.16437984 C13.1539525,3.02235858 12.9200486,2.89730003 12.9074589,2.88698935 C12.8948692,2.87701128 12.9014953,2.86836361 12.9226991,2.86836361 Z M6.09707993,3.23289596 C6.27068561,3.13843684 6.27664917,3.13610863 6.27664917,3.1720297 C6.27664917,3.18633161 6.20210473,3.2368872 6.11099489,3.28411674 C5.90326442,3.39187995 5.89067469,3.34531559 6.09707993,3.23289596 Z M6.96676492,2.81780804 C6.99724531,2.81780804 6.93495931,2.86537018 6.82894055,2.92390823 C6.7225905,2.98244628 6.61060821,3.03000842 6.58045914,3.03000842 C6.54997875,3.03000842 6.61193344,2.98244628 6.71828349,2.92390823 C6.82463354,2.86537018 6.93661585,2.81780804 6.96676492,2.81780804 Z M12.3356203,2.64917856 C12.4207666,2.64618513 12.8590878,2.81980365 12.8329145,2.84641184 C12.8223126,2.85705513 12.6907831,2.81780804 12.5407003,2.75893739 C12.3906175,2.70006675 12.2985137,2.65084157 12.3356203,2.64917856 Z M3.84716342,2.03918358 C3.86207231,2.03985078 3.78752789,2.11734716 3.68150914,2.21180628 C3.57515909,2.30626539 3.38167489,2.48354252 3.25113931,2.60527503 C3.12093504,2.72734016 3.00298919,2.81581243 2.98940555,2.80184312 C2.97549059,2.78820641 3.15671638,2.61059668 3.39194545,2.40737655 C3.62717454,2.20415642 3.83192324,2.03852037 3.84716342,2.03918358 Z M11.6050849,2.43431735 C11.6660457,2.43365215 11.7654382,2.4542735 11.8260677,2.4805491 C11.9668739,2.54108276 11.8217607,2.54108276 11.6329148,2.4805491 C11.5219265,2.44462803 11.5162942,2.43564776 11.6050849,2.43431735 Z M7.9056934,2.48287731 C8.01171216,2.43464994 8.30723939,2.40338531 8.25986227,2.44529323 C8.24727254,2.45660171 8.13760941,2.4808817 8.01601917,2.49950744 C7.86196067,2.52312221 7.82849851,2.51813318 7.9056934,2.48287731 Z M9.20309777,2.25371419 C9.61822742,2.20947805 10.1045884,2.20814766 10.5008334,2.25105337 C10.7039256,2.27267253 10.4584259,2.28664184 9.8657149,2.28664184 L9.7473257,2.2863162 C9.29117488,2.28403809 9.04896282,2.27029314 9.20309777,2.25371419 Z M4.7158545,1.42719697 C4.77018911,1.42719697 4.69233158,1.49238706 4.42695342,1.66933159 C4.25997391,1.78075343 4.12314347,1.85958023 4.12314347,1.84494571 C4.12314347,1.8303112 4.25334774,1.73019785 4.41237585,1.62276724 C4.57140396,1.51500403 4.7079031,1.42719697 4.7158545,1.42719697 Z M4.93749993,1.29249296 C5.11110563,1.19803385 5.11706917,1.19603823 5.11706917,1.2316267 C5.11706917,1.24626121 5.04252476,1.29681679 4.95141489,1.34404635 C4.74368442,1.45180956 4.73109469,1.4049126 4.93749993,1.29249296 Z M14.1177291,0.954568817 C14.1177291,0.9392691 14.2916661,1.01476987 14.5040349,1.12220048 C14.716735,1.22963109 14.890672,1.33007704 14.890672,1.34537676 C14.890672,1.36067647 14.716735,1.2851757 14.5040349,1.1777451 C14.2916661,1.07031449 14.1177291,0.969868531 14.1177291,0.954568817 Z M51.1709483,0.769641825 C51.1749238,0.697467081 51.3306391,1.01476987 51.3306391,1.09459447 C51.3303077,1.14016101 51.2938636,1.09392927 51.2494684,0.991155091 C51.2054043,0.888713521 51.1699544,0.78893277 51.1709483,0.769641825 Z M13.7585906,0.765983197 C13.789071,0.765983197 13.8762052,0.801571665 13.9520748,0.845142594 C14.0279445,0.888713521 14.065051,0.924301988 14.0349019,0.924301988 C14.0044216,0.924301988 13.9176187,0.888713521 13.8414178,0.845142594 C13.7655481,0.801571665 13.7284415,0.765983197 13.7585906,0.765983197 Z M6.13849351,0.71043858 C6.1689739,0.71043858 6.13186734,0.746027048 6.05566636,0.789597975 C5.97979669,0.833168904 5.89299384,0.869089974 5.86251345,0.869089974 C5.83203307,0.869089974 5.86947094,0.833168904 5.94534061,0.789597975 C6.02121027,0.746027048 6.10834442,0.71043858 6.13849351,0.71043858 Z M49.424952,0.0967869627 C49.4547699,0.0967869627 49.3666417,0.168296501 49.22948,0.255770959 C49.0923183,0.342912815 48.9114239,0.498903389 48.8276028,0.602010164 C48.7437817,0.70511694 48.700049,0.739707599 48.7301981,0.678841341 C48.7908274,0.556443621 49.0237373,0.330273919 49.234781,0.188585253 C49.3099879,0.138029673 49.3954657,0.0967869627 49.424952,0.0967869627 Z M6.71828349,0.486597095 C6.79216531,0.486597095 6.79216531,0.492583941 6.71828349,0.540146099 C6.67289421,0.56974772 6.5983498,0.594027704 6.5526292,0.594027704 C6.47907872,0.594027704 6.47907872,0.588040858 6.5526292,0.540146099 C6.5983498,0.510544475 6.67289421,0.486597095 6.71828349,0.486597095 Z M12.9028206,0.475621214 C12.8451729,0.439700144 12.8620696,0.435376311 12.9581491,0.461319306 C13.0340188,0.481608057 13.1334113,0.521187756 13.1788006,0.549458969 C13.2364483,0.585380039 13.2195516,0.589703872 13.1238034,0.563760876 C13.0479337,0.543472123 12.9482098,0.503892426 12.9028206,0.475621214 Z M7.74003912,0.218186876 C7.8006686,0.217854274 7.67642787,0.264751227 7.46372777,0.322291459 C7.25135899,0.379831692 7.05257384,0.419078788 7.02242477,0.409765918 C6.99194438,0.400120445 7.11618509,0.353556094 7.2984048,0.305661334 C7.48062452,0.257766574 7.67907834,0.218519478 7.74003912,0.218186876 Z M12.0470505,0.216856465 C12.1643338,0.216191261 12.6374424,0.359210338 12.5440134,0.367192797 C12.513533,0.369521015 12.3644441,0.337258571 12.2127048,0.294685451 C12.0606342,0.252112331 11.9860898,0.217189069 12.0470505,0.216856465 Z M49.6227432,0.0349228973 C49.7996622,-0.0219521306 50.3052389,0.0146341447 50.4344493,0.0931283353 C50.5136319,0.141355698 50.5003797,0.145014326 50.3681876,0.111421473 C50.2770776,0.0881392978 50.0411861,0.0711765701 49.843726,0.0741699926 L49.7580653,0.0747072236 C49.5782443,0.0742843248 49.538094,0.061988426 49.6227432,0.0349228973 Z M8.70613492,0.035920705 C9.04903929,-0.00997844043 10.7155214,-0.0126392604 11.0531248,0.0322620773 C11.2048641,0.05255083 10.6830531,0.0691809551 9.89354484,0.0691809551 C9.10370519,0.0691809551 8.56963578,0.0542138426 8.70613492,0.035920705 Z M84.7000382,23.6008079 C84.6920867,21.6953283 84.6977189,20.1034927 84.7129591,20.0635804 C84.7149745,20.0582865 84.7209312,20.0559421 84.7302817,20.0562129 L84.741,20.058 L84.7281994,23.5562392 L84.714,26.843 Z M69.1073316,17.6395733 C68.9665253,17.5268211 68.759789,17.3192771 68.6474753,17.1779211 L68.6474753,17.1779211 L68.445,16.922 L68.665366,17.1599605 C68.7570556,17.258494 68.8962673,17.3998709 69.0153521,17.5161778 L69.1252223,17.6216128 L69.36,17.841 Z M75.5516146,17.3921171 C75.7344968,17.193886 75.9402395,16.9507536 76.009483,16.851638 C76.0783952,16.7525225 76.1473073,16.6713675 76.1622162,16.6713675 C76.227484,16.6713675 75.8193119,17.1772559 75.5327299,17.4523181 L75.5327299,17.4523181 L75.231,17.74 Z M94.6889914,8.66762084 C94.3742483,8.37393283 93.8898753,7.98179448 93.6122387,7.79586968 C93.3342707,7.60994489 93.0947346,7.44331102 93.0794945,7.4256831 C93.0642544,7.40838777 93.1513884,7.45096088 93.2726475,7.52047481 C93.7305157,7.78289819 94.2152203,8.16738667 94.7294112,8.67593591 L94.7294112,8.67593591 L95.248,9.189 Z" id="Combined-Shape"></path>
            </g>
        </g>
    </g>
</svg>