<?xml version="1.0" encoding="UTF-8"?>
<svg width="114px" height="40px" viewBox="0 0 114 40" version="1.1" xmlns="http://www.w3.org/2000/svg" xmlns:xlink="http://www.w3.org/1999/xlink">
    <!-- Generator: Sketch 58 (84663) - https://sketch.com -->
    <title>Group</title>
    <desc>Created with Sketch.</desc>
    <g id="WEB" stroke="none" stroke-width="1" fill="none" fill-rule="evenodd">
        <g id="Group-33" transform="translate(-2767.000000, -5.000000)" fill="#1F2E77" fill-rule="nonzero">
            <g id="Group" transform="translate(2767.000000, 5.000000)">
                <g id="TYPE" transform="translate(48.526301, 5.611885)">
                    <rect id="l" x="62.9340445" y="1.4089269" width="2.09780148" height="21.1339035" rx="1.04890074"></rect>
                    <rect id="l" x="58.0391742" y="1.4089269" width="2.09780148" height="21.1339035" rx="1.04890074"></rect>
                    <path d="M53.1443041,10.4673175 L53.1443041,9.51254652 C53.1443041,8.92768521 53.6150918,8.45356141 54.1932047,8.45356141 C54.7724967,8.45356141 55.2421056,8.92636536 55.2421056,9.51254652 L55.2421056,21.4838453 C55.2421056,22.0687066 54.7713179,22.5428304 54.1932047,22.5428304 C53.6139131,22.5428304 53.1443041,22.0700265 53.1443041,21.4838453 L53.1443041,20.5290743 C51.8830005,21.774741 50.1552541,22.5428304 48.2494341,22.5428304 C44.3874883,22.5428304 41.2567623,19.3888401 41.2567623,15.4981959 C41.2567623,11.6075517 44.3874883,8.45356141 48.2494341,8.45356141 C50.1552541,8.45356141 51.8830005,9.22165084 53.1443041,10.4673175 Z M48.2494341,20.4294401 C50.9527963,20.4294401 53.1443041,18.2216469 53.1443041,15.4981959 C53.1443041,12.774745 50.9527963,10.5669518 48.2494341,10.5669518 C45.5460719,10.5669518 43.3545638,12.774745 43.3545638,15.4981959 C43.3545638,18.2216469 45.5460719,20.4294401 48.2494341,20.4294401 Z" id="a"></path>
                    <path d="M39.990333,10.4338653 C37.2140112,7.63691271 32.7127045,7.63691271 29.936383,10.4338653 C27.1600614,13.2308179 27.1600614,17.765574 29.936383,20.5625266 C32.7127045,23.3594791 37.2140112,23.3594791 39.990333,20.5625266 C40.3999541,20.1498614 40.3999541,19.4807991 39.990333,19.0681339 C39.5807119,18.6554688 38.9165845,18.6554688 38.5069633,19.0681339 C36.5498843,21.0397562 33.3768317,21.0397562 31.4197526,19.0681339 C29.4626736,17.0965116 29.4626736,13.8998802 31.4197526,11.9282579 C33.3768317,9.95663561 36.5498843,9.95663561 38.5069633,11.9282579 C38.9165845,12.3409231 39.5807119,12.3409231 39.990333,11.9282579 C40.3999541,11.5155928 40.3999541,10.8465304 39.990333,10.4338653 Z" id="c"></path>
                    <path d="M23.7750834,9.7803211 L23.7750834,9.51254652 C23.7750834,8.92768521 23.3042958,8.45356141 22.7261827,8.45356141 C22.1468908,8.45356141 21.6772819,8.92636536 21.6772819,9.51254652 L21.6772819,21.4838453 C21.6772819,22.0687066 22.1480696,22.5428304 22.7261827,22.5428304 C23.3054746,22.5428304 23.7750834,22.0700265 23.7750834,21.4838453 L23.7750834,15.2821639 C23.8379758,12.3919897 25.1681186,10.5738313 27.251502,10.5738313 C27.8307939,10.5738313 28.3004028,10.1007327 28.3004028,9.51713611 C28.3004028,8.93353947 27.8307939,8.46044094 27.251502,8.46044094 C25.8535311,8.46044094 24.679483,8.94156336 23.7750834,9.7803211 L23.7750834,9.7803211 Z" id="r"></path>
                    <rect id="i" x="16.7824118" y="8.45356141" width="2.09780148" height="14.089269" rx="1.04890074"></rect>
                    <ellipse id="•" cx="17.8313126" cy="2.46562207" rx="2.44743505" ry="2.46562207"></ellipse>
                    <path d="M11.8875417,10.4673175 L11.8875417,9.51254652 C11.8875417,8.92768521 12.3583293,8.45356141 12.9364425,8.45356141 C13.5157343,8.45356141 13.9853432,8.92636536 13.9853432,9.51254652 L13.9853432,21.4838453 C13.9853432,22.0687066 13.5145556,22.5428304 12.9364425,22.5428304 C12.3571506,22.5428304 11.8875417,22.0700265 11.8875417,21.4838453 L11.8875417,20.5290743 C10.6262381,21.774741 8.89849165,22.5428304 6.9926716,22.5428304 C3.1307257,22.5428304 0,19.3888401 0,15.4981959 C0,11.6075517 3.1307257,8.45356141 6.9926716,8.45356141 C8.89849165,8.45356141 10.6262381,9.22165084 11.8875417,10.4673175 Z M6.9926716,20.4294401 C9.69603369,20.4294401 11.8875417,18.2216469 11.8875417,15.4981959 C11.8875417,12.774745 9.69603369,10.5669518 6.9926716,10.5669518 C4.28930948,10.5669518 2.09780148,12.774745 2.09780148,15.4981959 C2.09780148,18.2216469 4.28930948,20.4294401 6.9926716,20.4294401 Z" id="a"></path>
                </g>
                <path d="M19.6415981,39.2831962 C8.83871915,39.2831962 0,30.4444771 0,19.6415981 C0,8.83871915 8.83871915,0 19.6415981,0 C30.4444771,0 39.2831962,8.83871915 39.2831962,19.6415981 C39.2831962,30.4444771 30.4444771,39.2831962 19.6415981,39.2831962 Z M19.6415981,2.80594259 C10.3819876,2.80594259 2.80594259,10.3819876 2.80594259,19.6415981 C2.80594259,28.9012086 10.3819876,36.4772537 19.6415981,36.4772537 C28.9012086,36.4772537 36.4772537,28.9012086 36.4772537,19.6415981 C36.4772537,10.3819876 28.9012086,2.80594259 19.6415981,2.80594259 Z M28.6072615,23.5268463 C28.1419739,23.1003325 27.5991383,22.7901408 27.0563028,22.518723 C26.2420493,22.1309832 25.0400563,21.5105997 24.1482547,22.0922093 C23.8380632,22.2860791 23.6054192,22.6350449 23.3340015,22.8676887 C22.9850357,23.2166544 22.597296,23.5656202 22.1320084,23.7982639 C20.1545358,24.8063873 17.5566798,24.3798737 15.928173,22.8676887 C14.9975977,21.8983394 14.4159881,20.5024765 14.4547621,19.1453875 C14.493536,18.0984903 14.8425018,17.0128191 15.5016593,16.1597917 C15.7730771,15.8108259 16.1220428,15.5006342 16.4322346,15.1516684 C16.7424264,14.8414767 16.9362962,14.4925109 16.9362962,14.0272233 C16.9362962,13.4456137 16.6648784,12.9027781 16.4322346,12.3599425 C16.1995908,11.8558809 15.9669469,11.3130453 15.6179812,10.8865316 C15.3077894,10.4600179 14.8425018,9.99473026 14.3384402,9.8008604 C14.1057963,9.72331247 13.8731525,9.68453848 13.6405087,9.76208643 C13.3303169,9.83963439 13.0976731,10.0722782 12.8650292,10.2661481 C11.856906,11.0416275 10.8100088,11.9334288 10.3059472,13.0966479 C9.45291978,14.9577986 9.84065949,17.090367 10.577365,18.9127436 C11.4303923,20.9677641 12.8262553,22.8289147 14.4547621,24.3410997 C15.4241114,25.3104488 16.5097825,26.2022504 17.6730017,26.9389558 C19.1851865,27.8695309 20.9300153,28.6450105 22.7136179,28.8388802 C23.954385,28.9939762 25.2727,28.8001063 26.3583714,28.2184969 C26.8236589,27.947079 27.2501725,27.6368873 27.6379122,27.2491476 C28.0644261,26.8226337 28.5297136,26.357346 28.8786793,25.8920586 C29.1113232,25.6206406 29.421515,25.349223 29.460289,24.9227091 C29.4990629,24.3798737 28.9950012,23.8758119 28.6072615,23.5268463 Z" id="LOGO"></path>
            </g>
        </g>
    </g>
</svg>