<?xml version="1.0" encoding="UTF-8"?>
<svg width="156px" height="31px" viewBox="0 0 156 31" version="1.1" xmlns="http://www.w3.org/2000/svg" xmlns:xlink="http://www.w3.org/1999/xlink">
    <!-- Generator: Sketch 58 (84663) - https://sketch.com -->
    <title>Group</title>
    <desc>Created with Sketch.</desc>
    <g id="WEB" stroke="none" stroke-width="1" fill="none" fill-rule="evenodd">
        <g id="Group-33" transform="translate(-2492.000000, -1.000000)" fill="#1F2E77" fill-rule="nonzero">
            <g id="Group" transform="translate(2492.000000, 1.000000)">
                <path d="M30.2090206,15.6472036 C29.439297,11.0009634 25.0497917,7.87568972 20.4314495,8.66742572 L21.7836667,0.885494214 L16.8220694,0 C16.4060026,0.937582109 14.5337017,5.20878949 13.6287563,10.0008758 C15.4698521,11.2509853 16.8220694,13.2303253 17.2277346,15.6263685 C17.6438015,18.1578402 16.9156845,20.6268064 15.3970404,22.4603002 C15.7715006,22.9186738 16.1979691,23.3353768 16.676446,23.7104099 C18.6007552,25.2313762 20.9411314,25.8251782 23.2294991,25.439728 C27.8790463,24.668827 30.9995477,20.2726087 30.1986189,15.6472036 L30.2090206,15.6472036 Z" id="Path"></path>
                <path d="M13.4711511,10.5382938 L13.5757128,10.0176271 C11.7981625,8.80968037 9.60236507,8.26818701 7.32291819,8.64306704 L8.68222137,0.874720038 L3.70508049,0 C3.265921,0.968440042 1.25833476,5.5190669 0.400928139,10.5174671 C-0.289179632,14.5578406 -0.257811097,18.8897875 1.86479311,21.9408943 C2.33532112,22.5969343 2.88949858,23.1904942 3.55869399,23.7111609 C5.50354316,25.2315076 7.86663947,25.8250678 10.1669987,25.4397744 C12.2791467,25.0961344 14.0671532,23.9819077 15.3323508,22.4719743 L14.935016,21.9513076 C12.8019557,18.9106141 12.7705871,14.5786673 13.4711511,10.5487071 L13.4711511,10.5382938 Z" id="Path"></path>
                <path d="M17.2667914,15.5680361 C16.8624112,13.1457153 15.5481754,11.1446678 13.7689025,9.88084829 L13.6678074,10.4074398 C13.0106896,14.4937895 13.0410181,18.8750304 15.1033572,21.9608563 L15.4774089,22.4874479 C16.9533967,20.5917186 17.6812812,18.1062069 17.2566819,15.5364406 L17.2667914,15.5680361 Z" id="Path"></path>
                <path d="M129.740879,23.7523728 L126.79766,23.7523728 C126.694025,23.7523728 126.621481,23.8042673 126.590391,23.8872981 C126.175853,24.9874587 125.5955,25.9007994 124.766424,26.5442894 C123.937348,27.1670218 122.869912,27.5406611 121.48121,27.5406611 C119.584699,27.5406611 118.061272,26.7103514 117.024927,25.3195826 C115.988582,23.9184348 115.408229,21.9775857 115.408229,19.7565071 C115.408229,17.5146708 115.978219,15.5738217 117.024927,14.1934318 C118.061272,12.8130418 119.595063,11.982732 121.48121,11.982732 C122.859549,11.982732 123.916621,12.3459926 124.745697,12.9791037 C125.574773,13.6225938 126.144762,14.5359345 126.569664,15.6049584 C126.600754,15.6879893 126.673298,15.7502626 126.776933,15.7502626 L129.730516,15.7502626 C129.77197,15.7502626 129.83415,15.7295048 129.865241,15.6879893 C129.906694,15.6568527 129.927421,15.6049584 129.927421,15.5426851 L129.927421,15.4907908 C129.461066,13.4980474 128.497265,11.8581856 127.067109,10.7165097 C125.636953,9.57483373 123.771532,8.91058594 121.45012,8.91058594 C118.755623,8.91058594 116.37203,10.0211252 114.662061,11.9204588 C112.952092,13.8301712 111.915747,16.5390568 111.915747,19.7876438 C111.915747,23.0362306 112.952092,25.7554951 114.662061,27.6548286 C116.37203,29.5749199 118.755623,30.6647016 121.460483,30.6647016 C123.781896,30.6647016 125.668044,30.0212116 127.108563,28.8691567 C128.538719,27.7274807 129.512883,26.0668612 129.958512,24.0429813 L129.958512,23.991087 C129.958512,23.9288137 129.937785,23.8872981 129.896331,23.8354038 C129.875604,23.8042673 129.813423,23.7835095 129.751243,23.7835095 L129.740879,23.7523728 Z M155.576958,15.0133627 C155.369689,14.9718472 155.079513,14.9303317 154.675338,14.9303317 C154.322981,14.9303317 153.887716,14.9614683 153.39027,15.0548781 C152.975732,15.1379091 152.530104,15.3039711 152.115566,15.5323062 C151.701028,15.7606414 151.28649,16.0720076 150.913406,16.445647 C150.706137,16.6532244 150.498868,16.9126962 150.312326,17.2033046 L150.177601,17.4108821 L150.177601,15.3973809 C150.177601,15.2728344 150.073967,15.1690457 149.970332,15.1690457 L147.151474,15.1690457 C147.047839,15.1690457 146.944205,15.2728344 146.944205,15.3973809 L146.944205,30.1353791 C146.944205,30.2391677 147.047839,30.3429566 147.151474,30.3429566 L149.991059,30.3429566 C150.11542,30.3429566 150.219055,30.2391677 150.219055,30.1353791 L150.219055,22.9739574 C150.219055,22.1436478 150.322689,21.4378844 150.498868,20.8566676 C150.68541,20.2754508 150.965223,19.8187804 151.327944,19.4658987 C151.711392,19.1130171 152.136293,18.8431664 152.633739,18.6667256 C153.214092,18.4591481 153.846262,18.3968749 154.395525,18.3968749 C154.810063,18.3968749 155.224601,18.4383904 155.46296,18.4799059 L155.494051,18.4799059 C155.618412,18.4799059 155.701319,18.3968749 155.701319,18.2723284 L155.701319,15.2416978 C155.73241,15.1379091 155.659866,15.0341204 155.545868,15.0133627 L155.576958,15.0133627 Z M94.505152,8.88982819 L94.4533346,8.88982819 L91.6033861,9.38801403 C91.4997517,9.40877178 91.396117,9.49180277 91.396117,9.59559148 L91.396117,30.1250002 C91.396117,30.2495467 91.4997517,30.3533355 91.6344764,30.3533355 L94.505152,30.3533355 C94.6087864,30.3533355 94.7124208,30.2495467 94.7124208,30.1250002 L94.7124208,9.11816337 C94.7124208,8.99361691 94.6087864,8.88982819 94.4740615,8.88982819 L94.505152,8.88982819 Z M88.6290763,21.0746239 C88.2145382,20.2235564 87.634185,19.4970353 86.9191072,18.8950608 L86.7118381,18.7393777 C86.4009346,18.5006636 86.0589408,18.2827073 85.6962201,18.1166454 L85.5925855,18.064751 L85.6651296,17.9920989 C85.99676,17.6080807 86.2869366,17.1617892 86.4942057,16.684361 C86.8051092,15.9889766 86.9605608,15.2728344 86.9605608,14.5255557 C86.9605608,13.7160037 86.7947456,12.9687249 86.4838421,12.2422038 C86.1729388,11.5156828 85.7273104,10.9137082 85.1676842,10.3947646 C84.6495116,9.91733652 84.0277046,9.54369712 83.3229902,9.27384646 C82.6182757,9.00399577 81.7373824,8.85869156 80.7010375,8.85869156 L74.4207872,8.85869156 C74.2964259,8.85869156 74.1927914,8.9624803 74.1927914,9.09740562 L74.1927914,30.1146213 C74.1927914,30.2391677 74.2964259,30.3429566 74.4207872,30.3429566 L82.1726473,30.3429566 C83.2815363,30.3429566 84.2038834,30.2184102 84.9500518,29.9693173 C85.6754932,29.7202242 86.3491174,29.3465849 86.9191072,28.8795356 C87.6238217,28.2879399 88.2041748,27.55104 88.6290763,26.6999725 C88.7327107,26.4923951 88.8052549,26.3159543 88.877799,26.1291346 L88.9088893,26.0461036 L88.9607065,25.9007994 C89.1679756,25.2573094 89.2923369,24.5826826 89.2923369,23.8769194 C89.27161,22.8597899 89.0539776,21.9049336 88.6187127,21.0538661 L88.6290763,21.0746239 Z M77.5401855,12.0450053 L80.1725016,12.0450053 C81.0015776,12.0450053 81.6233846,12.1176574 82.0379225,12.2525827 C82.4317335,12.4082658 82.742637,12.6158432 82.970633,12.875315 C83.4162612,13.3735009 83.6442572,13.9547177 83.6442572,14.6397233 C83.6442572,15.3039711 83.4369882,15.8851879 82.970633,16.3833738 C82.742637,16.6428455 82.4524605,16.850423 82.0379225,17.0061061 C81.747746,17.1098948 81.3124811,17.172168 80.7943086,17.2136835 L77.5090953,17.2136835 L77.5090953,12.0450053 L77.5401855,12.0450053 Z M85.623676,25.0808684 C85.4578608,25.4960233 85.2298648,25.848905 84.9396882,26.1602711 C84.608058,26.4716372 84.2142468,26.7414879 83.7271647,26.9283076 C83.2400827,27.1047486 82.5250046,27.2085372 81.5715672,27.2085372 L77.5298222,27.2085372 L77.5298222,20.3896183 L81.5715672,20.3896183 C82.5250046,20.3896183 83.2297191,20.4934071 83.7168014,20.6698479 C84.1831565,20.8566676 84.5873311,21.1161394 84.9085979,21.4378844 C85.1987745,21.7492506 85.4267705,22.1021321 85.6029491,22.4965293 C85.7791276,22.8805477 85.8620353,23.3268391 85.8620353,23.7731306 C85.8620353,24.2401798 85.7791276,24.6760924 85.6029491,25.0808684 L85.623676,25.0808684 Z M108.215995,16.4041315 C107.11747,15.3973809 105.604406,14.8991951 103.718258,14.8991951 C102.018653,14.8991951 100.62995,15.3143499 99.5728786,16.1446597 C98.6401681,16.8400441 97.9665439,17.7326271 97.6038232,18.7912721 C97.5623695,18.8950608 97.6349137,19.0299861 97.759275,19.0507439 L100.433045,19.5177931 C100.536679,19.5385508 100.609223,19.4866565 100.640314,19.4140044 C101.189577,18.1996763 102.215558,17.6080807 103.728622,17.6080807 C104.764967,17.6080807 105.552589,17.8883102 106.112215,18.4591481 C106.671841,19.0299861 106.941291,19.7876438 106.941291,20.7425 L106.941291,21.2822013 C105.542225,20.8670464 104.20534,20.659469 102.961726,20.659469 C101.19994,20.659469 99.7283304,21.0953816 98.5572606,21.9879646 C97.3965543,22.8805477 96.7954742,24.1363912 96.7954742,25.7451162 C96.7954742,27.2811893 97.3447371,28.4851385 98.4121723,29.3569638 C99.4796075,30.2287891 100.764675,30.6647016 102.277739,30.6647016 C104.20534,30.6647016 105.801312,30.1042424 106.962018,28.9418088 L106.962018,30.1042424 C106.962018,30.2495467 107.086379,30.3637144 107.221104,30.3637144 L109.687605,30.3637144 C109.82233,30.3637144 109.936328,30.2599256 109.936328,30.1146213 L109.936328,20.5349225 C109.905237,18.7705143 109.345611,17.4005032 108.226359,16.4041315 L108.215995,16.4041315 Z M105.708041,26.7830036 C104.878964,27.4783879 103.87371,27.8208907 102.67155,27.8208907 C101.790657,27.8208907 101.117032,27.6133132 100.640314,27.2189161 C100.184322,26.824519 99.9459628,26.2848176 99.9459628,25.5998122 C99.9459628,24.8525333 100.256866,24.2920741 100.837219,23.9184348 C101.417573,23.5447955 102.184468,23.3475969 103.117178,23.3475969 C104.288248,23.3475969 105.573316,23.5551742 106.951655,23.9703291 C106.951655,25.1846572 106.537116,26.1083768 105.708041,26.7726246 L105.708041,26.7830036 Z M56.0567554,8.88982819 L56.0153015,8.88982819 L53.1549895,9.38801403 C53.0513551,9.40877178 52.9477206,9.49180277 52.9477206,9.59559148 L52.9477206,30.1250002 C52.9477206,30.2495467 53.0513551,30.3533355 53.1860798,30.3533355 L56.0567554,30.3533355 C56.1603898,30.3533355 56.2640242,30.2495467 56.2640242,30.1250002 L56.2640242,9.11816337 C56.2640242,8.99361691 56.1603898,8.88982819 56.0360284,8.88982819 L56.0567554,8.88982819 Z M50.1495892,21.0746239 C49.7350513,20.2235564 49.1754251,19.4970353 48.460347,18.8950608 L48.2530781,18.7393777 C47.9421746,18.5006636 47.6001806,18.2827073 47.2374599,18.1166454 L47.1338255,18.064751 L47.2063697,17.9920989 C47.5380001,17.6080807 47.8281766,17.1617892 48.0354457,16.684361 C48.346349,15.9889766 48.5018009,15.2728344 48.5018009,14.5255557 C48.5018009,13.7160037 48.346349,12.9687249 48.0354457,12.2422038 C47.7245422,11.5156828 47.2789138,10.9137082 46.7192876,10.3947646 C46.201115,9.91733652 45.5793083,9.54369712 44.8953205,9.27384646 C44.190606,9.00399577 43.3097127,8.85869156 42.2733678,8.85869156 L36.0034811,8.85869156 C35.8791198,8.85869156 35.7754851,8.9624803 35.7754851,9.09740562 L35.7754851,30.1146213 C35.7754851,30.2391677 35.8791198,30.3429566 36.0034811,30.3429566 L43.7242506,30.3429566 C44.8331399,30.3429566 45.7554868,30.2184102 46.5016552,29.9693173 C47.2270966,29.7202242 47.9007208,29.3465849 48.4707106,28.8795356 C49.1754251,28.2879399 49.7557782,27.55104 50.1806797,26.6999725 C50.2843141,26.4923951 50.3568583,26.3159543 50.4294024,26.1291346 L50.4604927,26.0461036 C50.4604927,26.004588 50.4812196,25.9423148 50.5019465,25.9007994 C50.7092156,25.2573094 50.833577,24.5826826 50.833577,23.8769194 C50.81285,22.8597899 50.5952176,21.9049336 50.1599528,21.0538661 L50.1495892,21.0746239 Z M39.0606986,12.0450053 L41.7137416,12.0450053 C42.5428174,12.0450053 43.1646244,12.1176574 43.5791624,12.2525827 C43.9729736,12.4082658 44.2838771,12.6158432 44.5118728,12.875315 C44.9575013,13.3735009 45.185497,13.9547177 45.185497,14.6397233 C45.185497,15.3039711 44.9782282,15.8851879 44.5118728,16.3833738 C44.2838771,16.6428455 43.9937005,16.850423 43.5791624,17.0061061 C43.2889858,17.1098948 42.8537209,17.172168 42.3355486,17.2136835 L39.0606986,17.2136835 L39.0606986,12.0450053 Z M47.1752794,25.0808684 C46.9991006,25.4960233 46.7607415,25.848905 46.4809282,26.1602711 C46.1492978,26.4716372 45.7554868,26.7414879 45.2684048,26.9283076 C44.7813225,27.1047486 44.0662446,27.2085372 43.1128072,27.2085372 L39.071062,27.2085372 L39.071062,20.3896183 L43.1128072,20.3896183 C44.076608,20.3896183 44.7916861,20.4934071 45.2684048,20.6698479 C45.7554868,20.8566676 46.1596614,21.1161394 46.4809282,21.4378844 C46.7711048,21.7492506 46.9991006,22.1021321 47.1752794,22.4965293 C47.3514579,22.8805477 47.4343657,23.3268391 47.4343657,23.7731306 C47.4343657,24.2401798 47.330731,24.6760924 47.1649158,25.0808684 L47.1752794,25.0808684 Z M69.7675986,16.4041315 C68.6587095,15.3973809 67.1456459,14.8991951 65.2594982,14.8991951 C63.570256,14.8991951 62.1815538,15.3143499 61.1141186,16.1446597 C60.1814081,16.8400441 59.5181472,17.7326271 59.1450632,18.7912721 C59.1139729,18.8950608 59.186517,19.0299861 59.3108784,19.0507439 L61.9742847,19.5177931 C62.0779194,19.5385508 62.1815538,19.4866565 62.2126441,19.4140044 C62.7515436,18.1996763 63.7671615,17.6080807 65.2905885,17.6080807 C66.2958431,17.6080807 67.0938287,17.8883102 67.6534549,18.4591481 C68.2130813,19.0299861 68.5032579,19.7876438 68.5032579,20.7425 L68.5032579,21.2822013 C67.0834653,20.8670464 65.7465803,20.659469 64.5029665,20.659469 C62.74118,20.659469 61.2695702,21.0953816 60.0985006,21.9879646 C58.9067038,22.8805477 58.3367141,24.1363912 58.3367141,25.7451162 C58.3367141,27.2811893 58.8548866,28.4851385 59.9223218,29.3569638 C60.9897572,30.2287891 62.2748248,30.6647016 63.7878885,30.6647016 C65.7258534,30.6647016 67.3114611,30.1042424 68.482531,28.9418088 L68.482531,30.1042424 C68.482531,30.2495467 68.5861654,30.3637144 68.7208903,30.3637144 L71.1873911,30.3637144 C71.3324794,30.3637144 71.4464774,30.2599256 71.4464774,30.1146213 L71.4464774,20.5349225 C71.4153871,18.7705143 70.8661243,17.4005032 69.7468717,16.4041315 L69.7675986,16.4041315 Z M67.238917,26.7830036 C66.4098411,27.4783879 65.3734962,27.8208907 64.1816995,27.8208907 C63.3008064,27.8208907 62.6271822,27.6133132 62.1504635,27.2189161 C61.6737448,26.824519 61.4250221,26.2848176 61.4250221,25.5998122 C61.4250221,24.8525333 61.7359256,24.2920741 62.3266421,23.9184348 C62.9173588,23.5447955 63.6738905,23.3475969 64.606601,23.3475969 C65.7880342,23.3475969 67.0731018,23.5551742 68.4410771,23.9703291 C68.461804,25.1846572 68.0472661,26.1083768 67.2181901,26.7726246 L67.238917,26.7830036 Z M142.954277,16.4041315 C141.845388,15.3973809 140.332324,14.8991951 138.446177,14.8991951 C136.767298,14.8991951 135.378596,15.3143499 134.300797,16.1446597 C133.368087,16.8400441 132.715189,17.7326271 132.331742,18.7912721 C132.311015,18.8950608 132.383559,19.0299861 132.50792,19.0507439 L135.18169,19.5177931 C135.285324,19.5385508 135.357869,19.4866565 135.388959,19.4140044 C135.938222,18.1996763 136.964203,17.6080807 138.477267,17.6080807 C139.492885,17.6080807 140.29087,17.8883102 140.86086,18.4591481 C141.410123,19.0299861 141.689936,19.7876438 141.689936,20.7425 L141.689936,21.2822013 C140.280507,20.8670464 138.943622,20.659469 137.700008,20.659469 C135.938222,20.659469 134.466612,21.0953816 133.295542,21.9879646 C132.124473,22.8805477 131.533756,24.1363912 131.533756,25.7451162 C131.533756,27.2811893 132.072655,28.4851385 133.140091,29.3569638 C134.207526,30.2287891 135.492594,30.6647016 137.005657,30.6647016 C138.953986,30.6647016 140.52923,30.1042424 141.710663,28.9418088 L141.710663,30.1042424 C141.710663,30.2495467 141.814298,30.3637144 141.959386,30.3637144 L144.425887,30.3637144 C144.560612,30.3637144 144.674609,30.2599256 144.674609,30.1146213 L144.674609,20.5349225 C144.633156,18.7705143 144.073529,17.4005032 142.96464,16.4041315 L142.954277,16.4041315 Z M140.415232,26.7830036 C139.586156,27.4783879 138.591265,27.8208907 137.389105,27.8208907 C136.508212,27.8208907 135.834587,27.6133132 135.357869,27.2189161 C134.901877,26.824519 134.663518,26.2848176 134.663518,25.5998122 C134.663518,24.8525333 134.974421,24.2920741 135.554774,23.9184348 C136.145491,23.5447955 136.902023,23.3475969 137.834733,23.3475969 C139.016166,23.3475969 140.321961,23.5551742 141.669209,23.9703291 C141.669209,25.1846572 141.254671,26.1083768 140.425595,26.7726246 L140.415232,26.7830036 Z" id="Shape"></path>
            </g>
        </g>
    </g>
</svg>