<?xml version="1.0" encoding="UTF-8"?>
<svg width="118px" height="35px" viewBox="0 0 118 35" version="1.1" xmlns="http://www.w3.org/2000/svg" xmlns:xlink="http://www.w3.org/1999/xlink">
    <!-- Generator: Sketch 58 (84663) - https://sketch.com -->
    <title>Group</title>
    <desc>Created with Sketch.</desc>
    <g id="WEB" stroke="none" stroke-width="1" fill="none" fill-rule="evenodd">
        <g id="Group-33" transform="translate(-3504.000000, 0.000000)" fill="#1F2E77" fill-rule="nonzero">
            <g id="Group" transform="translate(3504.000000, 0.000000)">
                <path d="M27.6878004,5.46866996 C27.4695196,4.56988048 27.2893805,4.17666008 26.9686227,4.14719156 C26.4691045,4.09930523 25.9438521,4.27657674 25.5831144,4.33942753 C24.2453982,4.58162183 23.5266801,4.42207749 22.7420183,3.5819948 C22.2532992,3.05777767 22.5524586,3.12108891 23.7376082,2.9212556 C24.4544882,2.79946779 24.9480324,2.66616883 25.4434147,2.45252215 C26.1972876,2.03812127 25.9293766,1.51436459 25.0872725,1.1121655 C24.4535691,0.806429737 21.8238605,0.818171096 20.132989,0.852934726 C18.4184512,0.890230806 16.7330941,0.961139402 15.7250966,0.0833001875 C16.6956417,0.262413461 17.8748172,0.265636577 18.6606279,0.222815154 C21.2512757,0.0793864013 23.2176406,-0.0822299452 25.0721078,0.0476156667 C26.693589,0.158813238 28.5294449,0.67520279 30.3783977,1.14439668 C32.1857623,1.60023766 34.2392096,1.91840545 34.6711758,1.93244904 C35.1337011,1.94027661 34.8345417,4.24825933 33.7658852,4.57448492 C32.5566099,4.85857976 31.3870845,4.83394594 30.6447002,5.23959836 C29.588681,5.81055068 31.0114118,9.05577009 31.4670442,9.83760644 C31.5980127,10.06875 32.0269917,10.9021563 32.7192864,11.4411076 C33.0731309,11.7139216 33.9347655,12.2998384 34.8026036,12.3656821 C38.9839437,12.6879939 48.7270769,12.6230711 49.3945565,12.993039 C49.7490904,13.1933327 46.6504229,14.0644955 46.6504229,14.0644955 C46.6504229,14.0644955 36.1398605,14.1181374 31.6623481,15.0314309 C27.1965538,15.9456453 21.4555405,18.0791192 17.9547769,20.6580741 C4.97626348,30.2263604 0.161220048,34.6436435 0.216574573,34.0496689 C0.279551188,33.3813324 0.344805642,32.2327514 0.451418551,31.8390704 C0.595254074,31.2975868 1.23631015,32.234363 13.4903613,20.2726813 C14.9723727,18.8222781 13.570321,17.612688 12.0389093,17.3193842 C10.2237325,16.9141923 7.09519507,15.5413742 9.05719429,15.7768921 C10.1683582,15.8505633 15.7931083,17.5284265 26.4098242,9.26619364 C27.8277299,8.16572908 27.8826447,6.26017565 27.6878004,5.46890018 L27.6878004,5.46866996 Z M36.4031759,34.2886401 L36.4031759,33.1267061 C36.2823174,33.2475731 36.1858143,33.3930737 36.0649558,33.5139408 C35.6058768,33.9497523 34.615112,34.6519316 33.0446395,34.6519316 C32.6338122,34.6519316 31.7636762,34.6035848 30.797267,34.1435999 C29.4924078,33.5381142 27.6802179,31.9645418 27.6802179,28.4780492 C27.6802179,24.7737655 29.6861032,22.8610752 31.0631099,22.2316463 C31.4498116,22.0622024 32.1503779,21.8200082 33.1654983,21.8200082 C33.5760957,21.8200082 34.4460019,21.8444118 35.3643894,22.3527435 C35.5332697,22.4494371 35.6782543,22.5221873 35.9684527,22.7402084 C36.1858143,22.9096523 36.3549244,23.1274429 36.4031759,23.1757897 L36.4031759,17.1957546 L39.2787377,17.1957546 L39.2787377,34.2886401 L36.4029462,34.2886401 L36.4031759,34.2886401 Z M35.8473644,25.7906593 C35.7026098,25.5242917 35.4367667,25.2095772 35.2191753,25.0401334 C34.7359706,24.6526685 34.2042848,24.5073978 33.6002215,24.5073978 C33.3587341,24.5073978 32.7305451,24.5557446 32.1262522,24.9434397 C30.7490155,25.8390061 30.700764,27.8002734 30.700764,28.1633347 C30.700764,29.9549277 31.4498116,32.0126584 33.5760957,32.0126584 C34.3492691,32.0126584 34.9533324,31.7709246 35.4608925,31.1898424 C36.2099401,30.3667962 36.4031759,29.3738456 36.3790502,28.2844317 C36.3790502,27.5097323 36.2581916,26.5170119 35.8473644,25.7906593 L35.8473644,25.7906593 Z M48.3399159,34.2886401 L48.2673088,33.3444969 C47.8082299,33.7317314 47.3976324,33.9255791 47.1559153,34.0225027 C46.3586161,34.385564 45.6095685,34.5794114 44.7155365,34.5794114 C44.135599,34.5794114 41.9608336,34.5066612 40.8494398,32.715068 C40.6559742,32.4001233 40.2933984,31.7467512 40.317754,30.7782043 C40.317754,30.1001984 40.4868641,28.7444168 41.9608336,27.7516964 C42.9513686,27.0739206 43.8938818,26.9286502 45.0052754,26.7108596 C46.7933393,26.3475681 47.4458839,26.2020672 48.3401457,25.8873529 C48.3401457,25.5728687 48.3157901,25.1854038 48.1708058,24.8948627 C47.9290887,24.4348778 47.3252551,24.0715863 46.2618833,24.0715863 C45.1504895,24.0715863 44.4496936,24.4107044 44.135599,24.8221123 C43.7973788,25.2337506 43.8215046,25.7181391 43.8215046,25.8873529 L40.8735655,25.7181391 C40.8976913,25.1854038 40.9944243,23.9023725 42.1781952,22.9338257 C42.9272428,22.3041665 44.0629919,21.8200082 46.1653801,21.8200082 C48.1466801,21.8200082 49.3065549,22.2316463 50.0556026,22.7643816 C50.562933,23.1274429 50.8290057,23.5390812 50.9255088,23.7326984 C51.2396032,24.3623576 51.2396032,25.2095772 51.2396032,25.8875832 L51.2396032,32.3276031 C51.2396032,33.2475731 51.2878547,33.5139408 51.7710594,34.2886401 L48.3401457,34.2886401 L48.3399159,34.2886401 Z M48.3399159,28.2602583 C47.8567112,28.5022224 47.2285223,28.7444168 46.0445215,28.9380341 C45.3919771,29.0591311 44.691181,29.0833045 44.0871177,29.446596 C43.6765202,29.7129637 43.3863216,30.1243718 43.3863216,30.6571071 C43.3863216,31.3834597 43.9180076,32.085639 45.3678513,32.085639 C46.9624494,32.085639 47.9049629,31.2623626 48.1710356,30.7056841 C48.3640417,30.317989 48.3401457,29.9793313 48.3401457,29.5918666 L48.3401457,28.2602583 L48.3399159,28.2602583 Z M62.934626,32.1581592 C62.3546885,33.2719767 60.8563634,34.6519316 57.9086544,34.6519316 C55.6371559,34.6519316 54.0184319,33.8772323 53.2691547,33.4172471 C52.8504608,33.1442978 52.4617506,32.8277461 52.1095094,32.4728737 L54.2840452,30.7056841 C54.380778,30.8265509 54.5257624,31.0443418 54.8400866,31.3107094 C55.8788733,32.2062756 57.4254497,32.2550829 57.7636701,32.2550829 C58.4885919,32.2550829 59.3343724,32.085639 59.8178067,31.5287303 C60.0108127,31.3353433 60.1316713,31.0687452 60.1316713,30.8265509 C60.1316713,30.7298575 60.1075456,30.5360098 59.9382057,30.317989 C59.624341,29.8821775 59.2376393,29.8580041 58.3436074,29.6643866 C57.5463082,29.4949428 56.7490093,29.3982492 55.9756061,29.204632 C55.4439201,29.0591311 52.6411954,28.3811253 52.6411954,25.7664859 C52.6411954,24.8465159 53.0276671,24.1687404 53.1967774,23.9023725 C53.8010703,22.9579991 55.2265585,21.8200082 57.8360473,21.8200082 C58.7785606,21.8200082 61.2189393,21.9655088 63.031129,24.0715863 L60.9774518,25.9842766 C60.7357346,25.4759449 60.4216402,25.1854038 60.2284043,25.01596 C59.4793567,24.3621274 58.6820576,24.1443367 57.6912928,24.1443367 C57.5704342,24.1443367 56.7487795,24.1443367 56.2170935,24.5073978 C55.7823701,24.7981691 55.6856372,25.1854038 55.6856372,25.4034246 C55.709763,25.8148327 55.9997319,26.105604 56.0723389,26.1539508 C56.3864334,26.3959149 57.1837325,26.5895321 58.1503715,26.7592064 C58.8026864,26.8803034 59.455231,26.976997 60.1075456,27.1222674 C60.7600902,27.2675381 61.485012,27.4855589 62.0162385,27.8727936 C62.4514213,28.1875081 63.3452234,29.0349579 63.3452234,30.5118364 C63.3452234,31.0929186 63.2004689,31.6498273 62.934626,32.1581592 L62.934626,32.1581592 Z M72.6724746,34.2886401 L72.6724746,27.6305991 C72.6724746,26.6622825 72.7209559,25.7906593 71.8993012,25.08848 C71.6578138,24.8706893 71.1985051,24.5801482 70.4012059,24.5801482 C69.4104411,24.5801482 68.613142,24.9917866 68.0090787,25.7423125 C67.7675913,26.0328536 67.5741257,26.3959149 67.4773929,26.7592064 C67.3808898,27.1222674 67.3808898,27.4128085 67.3808898,27.8002734 L67.3808898,34.2886401 L64.4812023,34.2886401 L64.4812023,17.1957546 L67.3808898,17.1957546 L67.3808898,23.417984 C67.6223772,23.1516163 67.9123459,22.8854788 68.5407647,22.5221873 C68.9996139,22.2558197 69.8697499,21.8200082 71.1987349,21.8200082 C72.52772,21.8200082 73.9773338,22.3041665 74.7746329,23.417984 C75.5236806,24.4834546 75.5236806,25.5970421 75.5236806,26.807553 L75.5236806,34.2886401 L72.6724746,34.2886401 L72.6724746,34.2886401 Z M77.4084773,34.2886401 L80.3564163,34.2886401 L80.3564163,17.1957546 L77.4084773,17.1957546 L77.4084773,34.2886401 Z M89.3213213,34.2886401 L89.2487142,33.3444969 C88.7896353,33.7317314 88.3790378,33.9255791 88.1373204,34.0225027 C87.3400213,34.385564 86.5907441,34.5794114 85.6967121,34.5794114 C85.1167746,34.5794114 82.9420092,34.5066612 81.8306154,32.715068 C81.6371498,32.4001233 81.2748038,31.7467512 81.2991594,30.7782043 C81.2991594,30.1001984 81.4682695,28.7444168 82.9420092,27.7516964 C83.932774,27.0739206 84.8750574,26.9286502 85.9866808,26.7108596 C87.7747447,26.3475681 88.4270595,26.2020672 89.3213213,25.8873529 C89.3213213,25.5728687 89.2971955,25.1854038 89.1522112,24.8948627 C88.9104938,24.4348778 88.3064307,24.0715863 87.2432885,24.0715863 C86.1316651,24.0715863 85.430869,24.4107044 85.1167746,24.8221123 C84.7785544,25.2337506 84.8026802,25.7181391 84.8026802,25.8873529 L81.8547411,25.7181391 C81.8790967,25.1854038 81.9755997,23.9023725 83.1596006,22.9338257 C83.9086482,22.3041665 85.0441675,21.8200082 87.1465557,21.8200082 C89.1278557,21.8200082 90.2877305,22.2316463 91.0367782,22.7643816 C91.5443382,23.1274429 91.8101813,23.5390812 91.9066844,23.7326984 C92.2207788,24.3623576 92.2207788,25.2095772 92.2207788,25.8875832 L92.2207788,32.3276031 C92.2207788,33.2475731 92.2690303,33.5139408 92.7524648,34.2886401 L89.3213213,34.2886401 L89.3213213,34.2886401 Z M89.3213213,28.2602583 C88.8381166,28.5022224 88.2096979,28.7444168 87.0259269,28.9380341 C86.3733823,29.0591311 85.6725864,29.0833045 85.0682933,29.446596 C84.6576956,29.7129637 84.367727,30.1243718 84.367727,30.6571071 C84.367727,31.3834597 84.899413,32.085639 86.3492565,32.085639 C87.9438548,32.085639 88.8863681,31.2623626 89.1522112,30.7056841 C89.345447,30.317989 89.3213213,29.9793313 89.3213213,29.5918666 L89.3213213,28.2602583 L89.3213213,28.2602583 Z M101.789517,34.2886401 L101.789517,28.1149879 C101.789517,27.1706142 101.789517,26.7106293 101.668659,26.2506442 C101.330439,24.8462857 100.24317,24.6528987 99.6632332,24.6528987 C99.3489087,24.6528987 98.7448457,24.7012455 98.1410121,25.2095772 C97.2711059,25.93616 97.005263,26.9528236 97.005263,29.0349579 L97.005263,34.2886401 L94.0814498,34.2886401 L94.0814498,22.1832995 L97.005263,22.1832995 L97.005263,23.6116012 C97.0535145,23.5390812 97.2952317,23.2243667 97.5369488,22.9821725 C98.6724682,21.9169318 100.315548,21.8200082 100.726145,21.8200082 C102.514439,21.8200082 103.553685,22.7402084 103.940157,23.2968869 C104.71333,24.4107044 104.640953,25.93616 104.640953,27.1706142 L104.640953,34.2886401 L101.789517,34.2886401 Z M116.746803,32.836165 C116.070133,33.465594 114.451409,34.6519316 111.962549,34.6519316 C111.189375,34.6519316 109.280453,34.555238 107.637144,33.0297825 C106.259907,31.7225778 105.752576,30.0518515 105.752576,28.1633347 C105.752576,27.1464408 105.897331,26.1781242 106.284033,25.257924 C106.815719,24.0474129 108.313814,21.8200082 111.817564,21.8200082 C114.523786,21.8200082 115.949504,23.2243667 116.577693,24.1443367 C117.133505,24.9917866 117.689316,26.4684351 117.761694,28.8171671 L108.821374,28.8171671 C108.869626,29.1802283 108.990484,29.9307543 109.594318,30.6571071 C110.005145,31.165669 110.730067,31.8190411 112.228162,31.8190411 C113.726257,31.8190411 114.596393,31.117092 114.983095,30.7056841 C115.079598,30.6087603 115.224582,30.4149128 115.393692,30.1485452 L117.858426,31.5773073 C117.665191,31.843675 117.326741,32.3038901 116.746803,32.8363952 L116.746803,32.836165 Z M114.33032,25.6937355 C114.064707,25.1126534 113.436518,24.1443367 111.865816,24.1443367 C111.237627,24.1443367 110.899407,24.2654338 110.657689,24.3623576 C109.304349,24.9190361 108.990484,26.2748176 108.917877,26.6864559 L114.572038,26.6864559 C114.572038,26.6864559 114.49966,26.1053738 114.33032,25.6937355 Z" id="Shape"></path>
            </g>
        </g>
    </g>
</svg>