<?xml version="1.0" encoding="UTF-8"?>
<svg width="74px" height="28px" viewBox="0 0 74 28" version="1.1" xmlns="http://www.w3.org/2000/svg" xmlns:xlink="http://www.w3.org/1999/xlink">
    <!-- Generator: Sketch 58 (84663) - https://sketch.com -->
    <title>drivy</title>
    <desc>Created with Sketch.</desc>
    <g id="WEB" stroke="none" stroke-width="1" fill="none" fill-rule="evenodd">
        <g id="Group-33" transform="translate(-923.000000, -8.000000)" fill="#1F2E77" fill-rule="nonzero">
            <g id="drivy" transform="translate(923.000000, 8.000000)">
                <path d="M12.489831,6.74803606 L12.489831,0.905979507 L16.8719747,0.905979507 L16.8719747,22.0879441 L12.489831,22.0879441 L12.489831,21.3664055 C11.5398054,21.9508517 10.2266054,22.2418723 8.76428739,22.2418723 C3.95403085,22.2418723 0,18.7351953 0,14.1341849 C0,9.45861559 3.94441035,5.73307193 8.76428739,5.73307193 C10.0725039,5.74718569 11.3552307,6.09664389 12.489831,6.74803606 Z M8.95188739,18.7279799 C10.3030175,18.7064339 11.5844637,18.1245127 12.489831,17.1213542 L12.489831,11.2768926 C12.144009,10.8365397 11.7190435,10.4645929 11.2367592,10.1801541 C10.5550833,9.7439917 9.76112165,9.51583219 8.95188739,9.52355406 C6.41015537,9.52355406 4.34967445,11.584035 4.34967445,14.125767 C4.34967445,16.667499 6.41015537,18.7279799 8.95188739,18.7279799 L8.95188739,18.7279799 Z M19.0534261,6.0192822 L23.4355698,6.0192822 L23.4355698,22.0879441 L19.0630466,22.0879441 L19.0534261,6.0192822 Z M27.0889596,10.5481387 C25.7978368,10.5481387 24.7511749,9.50147684 24.7511749,8.21035404 C24.7511749,6.91923121 25.7978368,5.87256937 27.0889596,5.87256937 C28.3800825,5.87256937 29.4267442,6.91923121 29.4267442,8.21035404 C29.4267442,9.49772912 28.3859442,10.5428409 27.0985802,10.5481387 L27.0889596,10.5481387 Z M31.4711032,6.0192822 L35.8532471,6.0192822 L35.8532471,22.0879441 L31.4807238,22.0879441 L31.4711032,6.0192822 Z M33.662175,4.70367702 C32.3710524,4.70367702 31.3243905,3.65701518 31.3243905,2.36589235 C31.3243905,1.07476954 32.3710524,0.0281076921 33.662175,0.0281076921 C34.9532979,0.0281076921 35.9999598,1.07476954 35.9999598,2.36589235 C35.9999598,3.65326746 34.9591599,4.69837918 33.6717956,4.70367702 L33.662175,4.70367702 Z M46.4454318,14.9302824 L50.0964165,6.0192822 L54.8441397,6.0192822 L47.9774986,22.0879441 L44.8484267,22.0879441 L38.0563445,6.0192822 L42.8112831,6.0192822 L46.4454318,14.9302824 Z M68.3585554,6.0192822 L73.1158991,6.0192822 L66.3959707,22.1576929 L63.9908426,27.9300006 L59.2383089,27.9300006 L62.1605399,21.2822262 C62.3805692,20.7425964 62.3805692,20.1382661 62.1605399,19.5986363 L56.3160782,6.01206681 L61.0638014,6.01206681 L64.7893451,14.923067 L68.3585554,6.0192822 Z" id="Shape"></path>
            </g>
        </g>
    </g>
</svg>