<?xml version="1.0" encoding="UTF-8"?>
<svg width="129px" height="31px" viewBox="0 0 129 31" version="1.1" xmlns="http://www.w3.org/2000/svg" xmlns:xlink="http://www.w3.org/1999/xlink">
    <!-- Generator: Sketch 58 (84663) - https://sketch.com -->
    <title>Group</title>
    <desc>Created with Sketch.</desc>
    <g id="WEB" stroke="none" stroke-width="1" fill="none" fill-rule="evenodd">
        <g id="Group-33" transform="translate(-3001.000000, -9.000000)" fill="#1F2E77">
            <g id="Group" transform="translate(3001.000000, 9.000000)">
                <path d="M95.262819,0.163065544 C94.1717817,0.560359005 93.5724443,2.0125721 94.0637866,3.06784934 C94.8977094,4.85870951 97.5217774,4.72496717 98.123618,2.860799 C98.676825,1.1486108 96.9714311,-0.459515841 95.262819,0.163065544 M2.52393993,3.87030346 C1.51264747,4.07306259 0.523883819,5.04180065 0.239949516,6.10780589 C0.0801023722,6.70785847 0.0801023722,24.7884657 0.239949516,25.388876 C0.473104635,26.2639229 1.08531562,26.9919963 1.93997933,27.4096729 L2.46886954,27.6682175 L10.7090435,27.7064808 C17.8403002,27.7397376 18.9778254,27.7604783 19.1591285,27.8598912 C19.2739181,27.9231864 20.0502674,28.457083 20.8838328,29.0464076 C23.3752311,30.8086597 22.9890232,30.6194894 24.0972253,30.6194894 C25.1843289,30.6194894 25.4364367,30.5393869 25.5723247,30.1503183 C25.6906902,29.8098832 25.6921207,12.4391117 25.5733976,11.7954319 C25.3895912,10.7977283 24.7616457,9.97953974 23.8261644,9.5185935 L23.3226639,9.27077677 L21.6190581,9.23251359 C20.6363736,9.2103424 19.8839835,9.16170882 19.8417867,9.11736643 C19.8017355,9.07516965 19.7545323,8.38535949 19.7370099,7.58433576 C19.6908796,5.4544709 19.2721301,4.68420078 17.7884482,3.99975461 L17.4165444,3.82810668 L10.1343805,3.81630588 C6.12890428,3.80986908 2.70452786,3.83418586 2.52393993,3.87030346 M74.0271078,6.47935215 C71.6758887,7.44737502 71.8039094,7.43843502 71.8039094,6.63955689 C71.8039094,6.14964506 71.8657744,6.16609466 70.037366,6.16609466 C68.6087546,6.16609466 68.508269,6.17539225 68.4338882,6.31449862 C68.3123043,6.54157452 68.3244626,20.746872 68.4464043,20.8688135 C68.5436714,20.9660807 71.2907537,21.0036287 71.6315464,20.9124407 L71.8039094,20.8663104 L71.8049823,16.0265536 C71.8064128,10.5642155 71.7677919,10.9046506 72.4175509,10.6389539 C72.6492755,10.5445475 73.2353818,10.306386 73.7202873,10.1100637 C74.2051927,9.91374135 74.7054748,9.70955183 74.8320653,9.65662705 C74.9582979,9.60370227 75.2268556,9.4949919 75.4285417,9.41560474 C75.8884153,9.233944 75.8766144,9.29044478 75.850152,7.43092542 C75.8236896,5.56747247 76.0082112,5.66366684 74.0271078,6.47935215 M83.9540806,6.13891706 C81.4594638,6.3313058 79.8813756,7.08941753 78.7045143,8.66071139 C77.2215477,10.6407419 77.2991468,13.6853473 78.8747318,15.3410347 L79.1075293,15.585633 L78.782471,15.9543185 C77.6149075,17.2795836 77.5251499,19.5442636 78.5936583,20.727204 L78.8643615,21.0265151 L78.4534791,21.3301174 C77.2229779,22.2391363 76.696591,23.347696 76.7029696,25.0148266 C76.7162591,28.474963 79.6385652,30.6194894 84.3392156,30.6194894 C88.8013467,30.6194894 91.0656692,28.9030101 91.0642387,25.5219031 C91.063166,22.1100427 89.4185641,20.5927465 84.8738273,19.8092451 C83.062584,19.4970604 82.7868744,19.4334077 81.9736924,19.139103 C81.2255933,18.8683999 81.0639583,18.7067647 81.0206886,18.1893177 C80.9581088,17.4326364 81.3471774,16.9048189 81.8553268,17.0575141 C85.1062673,18.0326889 88.6876299,16.602647 89.8373137,13.8702264 C90.2975446,12.7763284 90.3855142,10.9786738 90.0293447,9.96058695 C89.9259984,9.66556705 89.8273008,9.37233515 89.8104937,9.30903998 C89.7854616,9.21570641 89.8877353,9.18995922 90.3547606,9.17243682 C90.7824501,9.15634483 90.954098,9.11843924 91.0256181,9.02367528 C91.1461293,8.86347052 91.1604331,6.45932656 91.0420676,6.23797223 C90.9680445,6.09958108 85.4599335,6.02269711 83.9540806,6.13891706 M94.4939793,6.14535388 C94.4310416,6.16967065 94.3538001,6.22724423 94.3226889,6.27337461 C94.2197002,6.42785778 94.2522418,20.7651096 94.3563033,20.8688135 C94.486112,20.9986223 97.4152125,20.9986223 97.5450214,20.8688135 C97.678406,20.7354288 97.678406,6.3148562 97.5450214,6.18147145 C97.4498997,6.08634989 94.7335712,6.05416589 94.4939793,6.14535388 M106.797561,6.14249308 C105.163687,6.24691223 103.775484,6.56267291 102.539976,7.11123114 C101.885569,7.40160222 101.879847,7.41590624 102.028609,8.3757043 C102.09834,8.82592253 102.177728,9.40916792 102.20562,9.67200384 C102.276425,10.3442916 102.373335,10.4590812 102.684089,10.2377268 C103.393567,9.73243822 105.077505,9.2114152 106.299066,9.11915443 C108.371,8.9621681 109.575754,9.67557984 109.814631,11.2003857 C109.899382,11.7392887 109.951949,11.7199783 108.344895,11.7360703 C104.830761,11.7711151 101.843372,13.1757674 101.278722,15.0581732 C101.246895,15.1636651 101.18217,15.2984803 101.134609,15.3574843 C100.810266,15.7612145 101.093127,17.8599682 101.585542,18.7056919 C102.661203,20.5530529 106.366295,21.4838853 109.056161,20.582376 C109.806048,20.331341 109.901885,20.3338441 109.901885,20.6049048 C109.901885,20.9406911 109.999867,20.9607167 111.633741,20.9607167 C112.974741,20.9607167 113.18787,20.9446247 113.228279,20.8394904 C113.364167,20.4854665 113.272264,10.9575754 113.126721,10.3056708 C112.493769,7.47061902 110.149344,5.92829073 106.797561,6.14249308 M122.396782,6.13998987 C118.429212,6.40962018 116.251786,8.33136191 116.654086,11.2086105 C116.985939,13.5848617 118.431,14.6086701 122.358519,15.2505619 C124.36537,15.578481 124.849918,15.8262977 124.849918,16.5236175 C124.849918,17.20413 124.479086,17.6722283 123.743861,17.9204026 C122.84414,18.2240049 119.92827,17.9651026 119.082547,17.5066595 C119.009239,17.4669659 118.908753,17.434782 118.858689,17.434782 C118.677744,17.434782 117.749057,16.9412941 117.314573,16.6148054 C117.070332,16.4309991 116.837177,16.3004751 116.797126,16.3255071 C116.649079,16.4170527 116.706295,19.6944556 116.858633,19.8289131 C118.021548,20.8566552 122.879184,21.2729014 125.070557,20.5326697 C127.921343,19.5700108 129.063517,17.0056621 127.795468,14.4155662 C127.227599,13.2562274 125.824377,12.4587797 123.738497,12.1101198 C120.658132,11.595176 119.757695,11.054485 120.205768,9.98919493 C120.841223,8.47833546 124.577784,8.65785059 126.314646,10.2824268 L126.679756,10.6239347 L126.79383,10.402938 C127.083844,9.84257899 127.685685,7.98234443 127.637409,7.7971077 C127.440371,7.04364476 124.195152,6.0176907 122.396782,6.13998987 M40.5668451,6.28338742 C39.9378269,6.39817699 39.5108528,6.51654253 39.175424,6.66923768 C39.0423968,6.73002966 38.9143761,6.77937845 38.8904169,6.77937845 C38.5174402,6.77937845 36.8445881,8.18832196 36.4208322,8.85917933 C35.0755413,10.9904746 35.245759,13.831248 36.812404,15.3982507 L36.9954953,15.5809842 L36.6740128,15.9521729 C36.4973586,16.1560048 36.3342931,16.3405263 36.3117641,16.3612671 C35.4449422,17.16837 35.5890548,19.7931531 36.5588658,20.8580856 L36.7094152,21.0240119 L36.1976898,21.4259542 C33.8725755,23.2532896 33.978425,26.9612427 36.4122498,28.9344788 C39.1099832,31.1215597 45.0804707,31.223118 47.4817539,29.1225764 C49.6173403,27.2544745 49.4424741,23.0673376 47.1588412,21.3794662 C46.0366927,20.5498345 44.9642508,20.1943802 42.0616127,19.6898068 C39.1321544,19.1805845 38.3758307,18.594836 39.0742233,17.3772084 C39.3159608,16.9555981 39.3849775,16.9223413 39.7375711,17.0575141 C42.7346155,18.2061249 46.8591726,16.4191983 47.8028785,13.5634057 C48.1948081,12.3765317 48.2044632,10.2184164 47.8196858,9.73887501 C47.7824954,9.69238704 47.7284979,9.54577108 47.7002475,9.41310152 L47.648753,9.17243682 L48.2602489,9.14454403 C48.5963928,9.12952482 48.9003526,9.08840084 48.9353974,9.05335606 C49.012639,8.97647209 49.0677093,6.77437205 49.0011958,6.41963297 L48.953635,6.16609466 L45.0282611,6.17574986 C42.2139501,6.18290186 40.9512649,6.21329785 40.5668451,6.28338742 M56.9327611,6.28481781 C54.2021285,6.77329925 52.3207954,8.40073629 51.3545605,11.1106281 C50.8539207,12.5142077 50.852848,14.9630516 51.3520574,16.3230039 C52.6218945,19.7831403 56.0727333,21.5740005 59.9222961,20.7708312 C64.5682335,19.8013779 66.9405511,14.6426421 64.8814911,9.98704933 C63.6517051,7.2059951 60.3582103,5.67189163 56.9327611,6.28481781 M16.9534525,6.43822817 C17.0911285,6.50331134 17.2431084,6.6431329 17.2910268,6.74826725 C17.4129684,7.01575197 17.4090347,9.09448005 17.286378,9.21713679 C17.216646,9.28686878 15.9038969,9.30903998 11.8472839,9.30903998 L6.50009293,9.30903998 L6.30484342,9.50428951 L6.10995147,9.69918144 L6.10995147,15.8216489 L6.10995147,21.9437587 L6.34560979,22.1422268 L6.58162572,22.3406946 L12.9343875,22.3406946 C17.2878084,22.3406946 19.3440077,22.3145898 19.4677372,22.2584467 C19.8796923,22.0707067 19.8664611,22.2298387 19.9079427,16.8214982 L19.9462059,11.8004383 L21.364447,11.7829159 C22.9221521,11.7636055 23.0254984,11.7900679 23.2032256,12.257451 C23.3752311,12.7101724 23.3026383,26.9179731 23.1274143,27.0931971 C22.8903256,27.3306434 22.7494312,27.2859432 21.9326731,26.7155716 C21.5146389,26.4234125 20.8795415,25.9835647 20.5212265,25.7382511 L19.8696795,25.2919665 L11.4585728,25.2537032 L3.04782375,25.2150825 L2.873315,25.0405737 L2.69880627,24.866065 L2.69880627,15.8141393 L2.69880627,6.76257125 L2.96414538,6.54121694 L3.22948449,6.319505 L9.96666613,6.319505 C15.8892353,6.319505 16.7338862,6.33380899 16.9534525,6.43822817 M43.3221523,9.33764796 C45.9673185,10.2978036 45.316129,14.1827687 42.4707069,14.4198574 C39.6556807,14.6544429 37.9785372,12.2495837 39.4761655,10.1254405 C40.0758605,9.27435279 42.039799,8.87241052 43.3221523,9.33764796 M85.2982983,9.27864397 C88.1326351,10.1204341 87.5272184,14.1827687 84.5319619,14.4194998 C81.8635516,14.6308413 80.1209675,12.1991622 81.5384933,10.2423757 C82.2157874,9.30689437 83.9215389,8.86990733 85.2982983,9.27864397 M59.4159346,9.5017863 C62.6675902,10.4469228 62.9701198,16.3845111 59.8328961,17.6879627 C56.6963875,18.9914142 53.6020757,15.9414449 54.4817715,12.4137221 C55.0814665,10.0081477 57.0868866,8.82449214 59.4159346,9.5017863 M17.1805284,11.7321367 C17.3282172,11.7886375 17.3682684,19.3132541 17.2223676,19.5861028 C17.1079357,19.7995899 8.78479855,19.8199731 8.54985544,19.6075588 C8.41754347,19.4877628 8.40967627,19.2667661 8.40967627,15.7508441 C8.40967627,11.8955599 8.41325229,11.8469263 8.71613938,11.7385735 C8.87670173,11.6813575 17.0314093,11.6749208 17.1805284,11.7321367 M109.753839,14.3712238 C109.978412,14.4913774 109.981987,17.2781532 109.757415,17.5023683 C109.197056,18.0627273 106.616615,18.3309272 105.647519,17.9297002 C103.874182,17.1955476 104.372318,15.0885692 106.453907,14.5199854 C107.247779,14.3032798 109.441654,14.2042247 109.753839,14.3712238 M40.9040618,22.3417675 C41.7515736,22.4901713 41.9318039,22.5309378 42.8279492,22.7762512 C44.7189372,23.2936983 45.5900506,24.1011589 45.5836492,25.3302296 C45.5753889,26.8818554 44.5093837,27.6224449 42.2772453,27.627475 C38.7595354,27.6356761 36.9232601,25.5115328 38.445205,23.1942856 C39.0917457,22.2094554 39.4461271,22.0867988 40.9040618,22.3417675 M82.8601825,22.3070803 C84.6009786,22.6353569 85.2078256,22.7980648 86.023511,23.1538767 C87.822596,23.9388086 88.3282422,25.7750839 87.0619809,26.9258401 C86.0238686,27.8691887 82.9606679,27.8849231 81.424419,26.9548059 C79.87923,26.018967 79.6045933,24.2592181 80.7925399,22.9046297 C81.4319285,22.1751259 81.7205117,22.0918052 82.8601825,22.3070803" id="path0"></path>
            </g>
        </g>
    </g>
</svg>