<?xml version="1.0" encoding="UTF-8"?>
<svg width="122px" height="33px" viewBox="0 0 122 33" version="1.1" xmlns="http://www.w3.org/2000/svg" xmlns:xlink="http://www.w3.org/1999/xlink">
    <!-- Generator: Sketch 58 (84663) - https://sketch.com -->
    <title>Group</title>
    <desc>Created with Sketch.</desc>
    <g id="WEB" stroke="none" stroke-width="1" fill="none" fill-rule="evenodd">
        <g id="Group-33" transform="translate(-1417.000000, -8.000000)" fill="#1F2E77" fill-rule="nonzero">
            <g id="Group" transform="translate(1417.000000, 8.000000)">
                <path d="M36.6753905,24.970337 L36.6753905,1.54514691 L38.309406,1.54514691 L38.309406,23.4251903 L49.4985824,23.4251903 L49.4985824,24.970337 L36.6753905,24.970337 Z M57.5792996,25.2946272 C55.045299,25.2946272 53.0857571,24.4807227 51.6176962,22.9355757 C50.2326128,21.3904289 49.4921995,19.1967018 49.4921995,16.3480358 C49.4921995,13.5820321 50.1432525,11.3056428 51.534719,9.67783375 C52.9198024,7.96736248 54.7197726,7.15345793 57.0878185,7.15345793 C59.1303378,7.15345793 60.7643533,7.8847003 61.9898648,9.27088146 C63.2153765,10.7333662 63.7834522,12.6854654 63.7834522,15.127179 L63.7834522,16.430698 L51.126215,16.430698 C51.126215,18.7897495 51.7006735,20.6591865 52.8432079,21.8800433 C53.9027649,23.1835623 55.5367802,23.7494802 57.5792996,23.7494802 C58.5558793,23.7494802 59.4558644,23.666818 60.1898948,23.5078524 C60.9239252,23.3425281 61.9068874,23.1009001 63.0494218,22.6112858 L63.0494218,24.1564326 C62.0728422,24.5633849 61.172857,24.8876749 60.3558493,25.0529992 C59.4430985,25.2183236 58.5111991,25.3009858 57.5792996,25.2946272 L57.5792996,25.2946272 Z M57.0878185,8.62230128 C55.3708256,8.62230128 54.0687194,9.19457792 53.0027798,10.2501104 C52.0262001,11.388305 51.3687643,12.9334519 51.2091924,15.0508755 L61.9898648,15.0508755 C61.9898648,13.0161141 61.581361,11.4709672 60.6813759,10.3327725 C59.8643682,9.18821929 58.6388566,8.62230128 57.0878185,8.62230128 Z M72.279056,7.23612011 C73.5045678,7.23612011 74.6471019,7.47774801 75.547087,7.8847003 C76.4470722,8.37431474 77.2640799,9.10555711 77.9981103,10.2437518 L78.0810877,10.2437518 C77.9981103,8.8639292 77.9981103,7.56041019 77.9981103,6.2568912 L77.9981103,0 L79.5491484,0 L79.5491484,24.970337 L78.4895914,24.970337 L78.0810877,22.2869956 C76.7725988,24.2390947 74.8130567,25.2946272 72.3620334,25.2946272 C69.9110102,25.2946272 68.117423,24.5633849 66.8089339,23.0182379 C65.500445,21.5557532 64.9323694,19.3556675 64.9323694,16.5133602 C64.9323694,13.5057286 65.5834224,11.2229807 66.8089339,9.6015302 C68.0344456,7.97372111 69.9110102,7.23612011 72.279056,7.23612011 L72.279056,7.23612011 Z M72.279056,8.62230128 C70.4024915,8.62230128 68.9344308,9.27088146 67.9514683,10.6570627 C66.9748886,11.9605816 66.4834075,13.9126808 66.4834075,16.5133602 C66.4834075,21.473091 68.4429494,23.9148046 72.279056,23.9148046 C74.2385982,23.9148046 75.7066589,23.3425281 76.606644,22.2043334 C77.5066292,21.0661388 77.9917274,19.1967018 77.9917274,16.5070016 L77.9917274,16.2653737 C77.9917274,13.5820321 77.5002463,11.6299329 76.606644,10.4917383 C75.7896363,9.18821929 74.3215755,8.62230128 72.279056,8.62230128 Z M96.5275905,7.56676882 L96.5275905,8.70496348 L92.9340331,8.94659138 C93.9106127,10.1674482 94.4020938,11.4709672 94.4020938,12.8507898 C94.4020938,14.561261 93.8276353,15.8584214 92.685101,16.9203125 C91.5425668,17.9758449 90.0745061,18.4654594 88.1915585,18.4654594 C87.3745507,18.4654594 86.8064751,18.4654594 86.557543,18.3827972 C85.90649,18.7070873 85.4150086,19.1140396 85.0894822,19.5209919 C84.7639556,20.0106063 84.5980009,20.4175586 84.5980009,20.9834766 C84.5980009,21.5493946 84.8405501,21.9563469 85.2490541,22.2043334 C85.6575579,22.4459614 86.3915882,22.6112858 87.3745507,22.6112858 L90.3936496,22.6112858 C92.2702144,22.6112858 93.7382751,23.0182379 94.7212376,23.7494802 C95.7041999,24.4807227 96.2722757,25.6189174 96.2722757,27.1640642 C96.2722757,29.0335013 95.5382453,30.4196823 94.0701844,31.3925526 C92.6021236,32.3654229 90.476627,32.8550374 87.7000773,32.8550374 C85.497986,32.8550374 83.7809933,32.4480851 82.5554816,31.5515184 C81.3299701,30.7376139 80.7618942,29.5167571 80.7618942,28.0542723 C80.7618942,26.8334154 81.1703982,25.8605452 81.9044286,25.0466407 C82.638459,24.2327362 83.698016,23.7431217 84.9235275,23.4188315 C84.4320463,23.1772037 83.9469478,22.846555 83.698016,22.4459614 C83.3788722,22.0517264 83.2065346,21.5684705 83.2065346,21.0661388 C83.2065346,19.9279441 83.940565,18.8724117 85.4086257,17.9758449 C84.4320463,17.5688927 83.6150386,16.9203125 83.0405799,16.0237457 C82.4661214,15.127179 82.2235721,14.0716466 82.2235721,12.9334519 C82.2235721,11.2229807 82.7980308,9.76049593 83.8575876,8.70496348 C85.000122,7.649431 86.4681827,7.15981656 88.3511303,7.15981656 C89.4936645,7.15981656 90.3936496,7.24247874 91.0447026,7.48410665 L96.5148248,7.48410665 L96.5148248,7.56676882 L96.5275905,7.56676882 L96.5275905,7.56676882 Z M82.3193152,27.9016652 C82.3193152,30.2607167 84.1129026,31.4815735 87.7064602,31.4815735 C92.2765972,31.4815735 94.5680486,30.0190887 94.5680486,27.0877607 C94.5680486,26.0322283 94.242522,25.3009858 93.5084916,24.8113714 C92.7744612,24.3217569 91.6319271,24.0801291 89.9979116,24.0801291 L87.1383843,24.0801291 C83.9533307,24.1564326 82.3193152,25.3772894 82.3193152,27.9016652 L82.3193152,27.9016652 Z M83.7107817,12.9334519 C83.7107817,14.3132745 84.1192854,15.2925034 84.9362932,16.1064079 C85.7533009,16.8376503 86.8128579,17.2446026 88.2043242,17.2446026 C89.6723849,17.2446026 90.8149193,16.8376503 91.5489497,16.1064079 C92.3659574,15.3751656 92.6914838,14.3196331 92.6914838,12.9334519 C92.6914838,11.4709672 92.2829801,10.3327725 91.4659723,9.6015302 C90.6489646,8.87028783 89.5894076,8.46333555 88.1213468,8.46333555 C86.7362634,8.46333555 85.5873462,8.87028783 84.8533158,9.68419238 C84.0363081,10.4090761 83.7107817,11.5472707 83.7107817,12.9334519 L83.7107817,12.9334519 Z" id="Shape"></path>
                <path d="M104.40664,25.1609479 C101.879235,25.1609479 99.9247937,24.3498309 98.4605542,22.8099762 C97.0790761,21.2701212 96.3405901,19.0839075 96.3405901,16.2449982 C96.3405901,13.4884679 96.9899485,11.2198752 98.3777928,9.59764126 C99.7592709,7.89302826 101.554556,7.08191131 103.916438,7.08191131 C105.95364,7.08191131 107.583403,7.8106492 108.805724,9.19208278 C110.028046,10.6495586 110.594643,12.5949719 110.594643,15.0283228 L110.594643,16.3273773 L98.0531136,16.3273773 C98.0531136,18.6783491 98.6260768,20.5413833 99.7656371,21.7580588 C100.822436,23.0571133 102.452198,23.621093 104.489401,23.621093 C105.463438,23.621093 106.361081,23.538714 107.093201,23.3802927 C107.82532,23.2155346 108.805724,22.9747341 109.945284,22.4867967 L109.945284,24.0266514 C108.971247,24.4322101 108.073605,24.7553893 107.258723,24.9201475 C106.361081,25.0849056 105.463438,25.1609479 104.40664,25.1609479 Z M103.999199,8.54572394 C102.286676,8.54572394 100.987959,9.11604056 99.9247937,10.1679579 C98.9507559,11.3022542 98.2950314,12.8421091 98.135875,14.9522805 L108.888485,14.9522805 C108.888485,12.9244881 108.481045,11.3846333 107.583403,10.2503369 C106.768521,9.1097037 105.5462,8.54572394 103.999199,8.54572394 L103.999199,8.54572394 Z M119.63473,7.16429039 C120.36685,7.16429039 121.181731,7.24666945 121.996612,7.40509072 L121.671933,8.94494558 C120.920714,8.78018745 120.156763,8.69780837 119.392812,8.70414523 C117.928573,8.70414523 116.706251,9.35050405 115.725847,10.5671795 C114.75181,11.866234 114.261608,13.4060888 114.261608,15.3515022 L114.261608,24.8377685 L112.631846,24.8377685 L112.631846,7.49380664 L114.013324,7.49380664 L114.178846,10.6558954 L114.261608,10.6558954 C114.993727,9.35684091 115.725847,8.46968174 116.540728,7.9817442 C117.521132,7.41142758 118.49517,7.16429039 119.63473,7.16429039 Z M21.2569372,0.764070637 L9.60668408,0.764070637 L9.60668408,16.3273773 L25.242232,16.3273773 L25.242232,4.81331857 C25.2485813,2.62710489 23.4532964,0.764070637 21.2569372,0.764070637 Z M6.0288468,0.764070637 L4.07440545,0.764070637 C1.87804626,0.764070637 0,2.54472584 0,4.81965543 L0,6.76506874 L6.0288468,6.76506874 L6.0288468,0.764070637 Z M0,10.4087582 L6.0288468,10.4087582 L6.0288468,16.4097563 L0,16.4097563 L0,10.4087582 Z M19.2197344,25.9720648 L21.1741758,25.9720648 C23.370535,25.9720648 25.2485813,24.1914096 25.2485813,21.9164801 L25.2485813,19.9774036 L19.2197344,19.9774036 L19.2197344,25.9720648 Z M9.60668408,19.9774036 L15.6355309,19.9774036 L15.6355309,25.9784016 L9.60668408,25.9784016 L9.60668408,19.9774036 Z M0,19.9774036 L0,21.9228168 C0,24.1090306 1.78891864,25.9784016 4.07440545,25.9784016 L6.0288468,25.9784016 L6.0288468,19.9774036 L0,19.9774036 Z" id="Shape"></path>
            </g>
        </g>
    </g>
</svg>