<?xml version="1.0" encoding="UTF-8"?>
<svg width="256px" height="38px" viewBox="0 0 256 38" version="1.1" xmlns="http://www.w3.org/2000/svg" xmlns:xlink="http://www.w3.org/1999/xlink">
    <!-- Generator: Sketch 58 (84663) - https://sketch.com -->
    <title>Group</title>
    <desc>Created with Sketch.</desc>
    <g id="WEB" stroke="none" stroke-width="1" fill="none" fill-rule="evenodd">
        <g id="Group-33" transform="translate(-1658.000000, -6.000000)" fill="#1F2E77" fill-rule="nonzero">
            <g id="Group" transform="translate(1658.000000, 6.000000)">
                <g id="Combined-Shape">
                    <path d="M30.6385244,24.7295317 C29.8581106,23.9511135 28.8204235,23.5224479 27.7167093,23.5224479 C27.5396266,23.5224479 27.3606881,23.5339439 27.1851684,23.5565463 C27.134964,23.5629763 27.084955,23.5662887 27.0352389,23.5662887 C26.7268827,23.5662887 26.4282938,23.4445086 26.2072577,23.2240381 L26.0400401,23.057443 C25.6500287,22.6682339 25.5848802,22.060308 25.8840551,21.5978361 C27.3420324,19.3440286 28.1126791,16.723517 28.1126791,14.019513 C28.1126791,12.1270512 27.7411277,10.2909004 27.0079881,8.56250071 C26.3001456,6.89313993 25.2865843,5.39378409 23.9957269,4.1063255 C22.7047717,2.81886693 21.201669,1.8080926 19.5278325,1.10196322 C17.7949033,0.370503591 15.9540445,0 14.0562418,0 C12.1588299,0 10.3178734,0.370601016 8.5849442,1.1018658 C6.91120534,1.80789775 5.40800499,2.81867208 4.11704988,4.10622807 C2.82619246,5.39378409 1.81272874,6.89304251 1.10478877,8.56240329 C0.371844295,10.2907056 9.76738367e-05,12.1268563 9.76738367e-05,14.0194156 C9.76738367e-05,15.9121696 0.371844295,17.7481255 1.10478877,19.4765253 C1.81272874,21.145886 2.82619246,22.645047 4.11704988,23.9327004 C5.40800499,25.2201591 6.911303,26.2309333 8.58504188,26.9370628 C10.3180688,27.66823 12.1589276,28.0389286 14.0563395,28.0389286 C16.7675699,28.0389286 19.3951914,27.2702529 21.654778,25.8160045 C21.8497349,25.690717 22.0701848,25.6294374 22.2894626,25.6294374 C22.5919584,25.6294374 22.8921101,25.7460539 23.1181274,25.9716881 L23.2854427,26.1385755 C23.5417388,26.3945083 23.6650032,26.7542953 23.6189988,27.1130106 C23.4568603,28.3746516 23.896588,29.6624027 24.7946987,30.558314 L31.041136,36.7883859 C31.82155,37.5668041 32.8592368,37.9954697 33.9631465,37.9954697 C35.0668608,37.9954697 36.10445,37.5668041 36.8850592,36.7883859 C37.6640081,36.0115266 38.0927963,34.9764939 38.0927963,33.8740434 C38.0927963,32.7715931 37.6640081,31.7365602 36.8850592,30.9597009 L30.6385244,24.7296291 L30.6385244,24.7295317 Z M20.2452468,13.954726 L19.7117523,13.954726 L19.7117523,19.5563155 C19.7117523,20.0791903 19.2846247,20.5032771 18.7574789,20.5032771 L15.6685439,20.5032771 L15.6685439,16.0584031 L12.6497386,16.0584031 L12.6497386,20.5032771 L9.56070584,20.5032771 C9.03356013,20.5032771 8.60643244,20.0791903 8.60643244,19.5562181 L8.60643244,13.954726 L8.07293795,13.954726 C7.6871263,13.954726 7.33901675,13.7240259 7.19133391,13.3701818 C7.04355338,13.0165326 7.12520872,12.6093001 7.39820708,12.3384613 L13.4842639,6.2991456 C13.6632023,6.12183387 13.9060195,6.0218768 14.1589947,6.0218768 C14.4121653,6.0218768 14.6549825,6.12183387 14.8339209,6.29934045 L20.9199777,12.3384613 C21.1929761,12.6093001 21.2745337,13.0165326 21.1268509,13.3701818 C20.9790704,13.7240259 20.6311562,13.954726 20.2452468,13.954726 Z"></path>
                </g>
                <path d="M207.92318,22.9481168 C207.92318,22.4403768 208.097567,22.0114282 208.44634,21.6615089 C208.795469,21.3112326 209.223013,21.136273 209.729209,21.136273 C210.235405,21.136273 210.66283,21.3112326 211.011959,21.6613899 C211.360732,22.0113092 211.535119,22.4402578 211.535119,22.9479978 C211.535119,23.4559758 211.360732,23.8849244 211.011959,24.2350818 C210.662948,24.585001 210.235405,24.7599605 209.729209,24.7599605 C209.223013,24.7599605 208.795588,24.585001 208.446458,24.2350818 C208.097685,23.8849244 207.923299,23.4559758 207.923299,22.9481168 L207.92318,22.9481168 Z M219.18749,22.0216639 C220.213643,22.0216639 221.137181,21.5069017 221.958103,20.4773775 L223.784655,22.5364261 C222.361683,24.0190601 220.822454,24.7603176 219.166967,24.7603176 C217.51148,24.7603176 216.112472,24.2354386 214.969825,23.1850859 C213.827414,22.1349711 213.256327,20.7623117 213.256327,19.0669886 C213.256327,17.3717846 213.834413,15.9922221 214.990703,14.9284199 C216.146638,13.8643798 217.518242,13.3325977 219.105398,13.3325977 C219.899035,13.3325977 220.702875,13.4973216 221.517154,13.8267694 C222.330958,14.1562172 223.045944,14.6434857 223.661635,15.2886939 L222.060837,17.3889235 C221.704946,16.9635455 221.270759,16.6340977 220.757563,16.4006992 C220.244487,16.1674197 219.73497,16.05078 219.228655,16.05078 C218.421257,16.05078 217.726795,16.3150047 217.145506,16.8434542 C216.56398,17.3719036 216.273216,18.106258 216.273216,19.0465172 C216.273216,19.9867764 216.563861,20.7177981 217.145387,21.2394635 C217.726676,21.7611288 218.407614,22.021902 219.187372,22.021902 L219.18749,22.0216639 Z M228.635451,21.2701707 C229.148646,21.8398011 229.805147,22.1247354 230.605902,22.1247354 C231.406182,22.1247354 232.062683,21.8398011 232.575996,21.2701707 C233.089073,20.7004212 233.345552,19.9626153 233.345552,19.0566339 C233.345552,18.1506525 233.088954,17.409395 232.575878,16.8328614 C232.062683,16.2563278 231.406182,15.968061 230.605664,15.968061 C229.805147,15.968061 229.148527,16.2563278 228.635214,16.8328614 C228.122256,17.409395 227.865777,18.1506525 227.865777,19.0566339 C227.865777,19.9626153 228.122256,20.7003022 228.635332,21.2700516 L228.635451,21.2701707 Z M234.782166,23.1129597 C233.673802,24.2111585 232.281674,24.7601986 230.605546,24.7601986 C228.929536,24.7601986 227.537408,24.2111585 226.429163,23.1129597 C225.320918,22.0147607 224.766796,20.6626918 224.766796,19.0567529 C224.766796,17.450576 225.3208,16.0950555 226.429163,14.9900724 C227.537408,13.8849702 228.929536,13.3324787 230.605664,13.3324787 C232.281674,13.3324787 233.673802,13.8849702 234.782047,14.9900724 C235.890055,16.0950555 236.444296,17.450576 236.444296,19.0566339 C236.444296,20.6626918 235.890292,22.0147607 234.781928,23.1128407 L234.782166,23.1129597 Z M248.61174,18.6242337 L248.61174,24.5954746 L245.512758,24.5954746 L245.512758,18.5421098 C245.512758,17.663503 245.379416,17.0182948 245.112617,16.606485 C244.8457,16.1946753 244.415071,15.9887705 243.819547,15.9887705 C243.224497,15.9887705 242.697779,16.2118142 242.239389,16.6579018 C241.781121,17.1039893 241.551926,17.7594333 241.551926,18.6241147 L241.551926,24.5953556 L238.473468,24.5953556 L238.473468,13.5177931 L241.551926,13.5177931 L241.551926,14.7738127 C242.400133,13.8129631 243.371716,13.3324787 244.466201,13.3324787 C245.164104,13.3324787 245.796878,13.5383836 246.36476,13.9501933 C246.932526,14.362003 247.36007,14.8630779 247.647392,15.4534178 C248.071496,14.7807159 248.642702,14.2590506 249.361128,13.8883028 C250.079434,13.5177931 250.801064,13.3324787 251.526132,13.3324787 C252.826084,13.3324787 253.872641,13.7202464 254.666278,14.4957817 C255.459915,15.271436 255.856616,16.393558 255.856616,17.8623857 L255.856616,24.5953556 L252.757634,24.5953556 L252.757634,18.5419908 C252.757634,16.8397645 252.135062,15.9886514 250.890037,15.9886514 C250.274343,15.9886514 249.740744,16.2116952 249.289237,16.6577827 C248.83773,17.1038703 248.611859,17.7593142 248.611859,18.6239956 L248.61174,18.6242337 Z" id="Shape"></path>
                <path d="M139.254655,18.6057738 L141.145742,13.9512907 L143.036948,18.6056556 L139.254655,18.6056556 L139.254655,18.6057738 Z M139.742754,10.158079 L133.642227,24.6131599 L136.834556,24.6131599 L138.136035,21.3943263 L144.155212,21.3943263 L145.456691,24.6131599 L148.730845,24.6131599 L142.629962,10.158079 L139.742398,10.158079 L139.742754,10.158079 Z M182.567993,13.4182859 C181.002186,13.4182859 180.087178,14.2587525 179.375308,15.1814927 L179.375308,13.6232604 L176.284488,13.6232604 L176.284488,24.6131599 L179.375308,24.6131599 L179.375308,18.4828363 C179.375308,17.0064047 180.127735,16.2477387 181.30707,16.2477387 C182.486643,16.2477387 183.177998,17.0064047 183.177998,18.4827181 L183.177998,24.6130418 L186.269055,24.6130418 L186.269055,17.498391 C186.269055,14.9763999 184.906742,13.4180494 182.567993,13.4180494 L182.567993,13.4182859 Z M158.003541,18.5852054 C158.003541,20.0819689 156.844484,21.1276466 155.339749,21.1276466 C153.834895,21.1276466 152.695998,20.1025373 152.695998,18.5852054 L152.695998,18.5441868 C152.695998,17.0473051 153.834777,16.0015092 155.33963,16.0015092 C156.844247,16.0015092 158.003304,17.0473051 158.003304,18.5441868 L158.003304,18.5850872 L158.003541,18.5852054 Z M157.962985,15.0585552 C157.129327,14.1358151 156.132732,13.4181676 154.445019,13.4181676 C151.943808,13.4181676 149.605178,15.2634116 149.605178,18.5441868 L149.605178,18.5850872 C149.605178,21.845294 151.90337,23.7109881 154.445138,23.7109881 C156.092294,23.7109881 157.088652,23.0342411 158.00366,21.9272129 L158.00366,22.4603359 C158.00366,24.4285174 157.007302,25.4537448 154.892443,25.4537448 C153.448543,25.4537448 152.33016,25.0846961 151.211778,24.4489676 L150.154349,26.7865522 C151.537296,27.5246499 153.20473,27.9347172 154.973912,27.9347172 C159.020652,27.9347172 161.054161,26.2738796 161.054161,22.1321875 L161.054161,13.6232604 L157.962985,13.6232604 L157.962985,15.0585552 L157.962985,15.0585552 Z M202.089229,17.9700453 C200.909774,17.5598597 199.872623,17.2729662 199.872623,16.6579243 L199.872623,16.6169057 C199.872623,16.18627 200.259213,15.8580033 201.011402,15.8580033 C201.804504,15.8580033 202.88233,16.2477387 203.960038,16.8833491 L205.139492,14.7302886 C203.960038,13.9307223 202.455303,13.459068 201.072474,13.459068 C198.876265,13.459068 197.086806,14.7097202 197.086806,16.9446996 L197.086806,16.9855999 C197.086806,19.118092 198.815194,19.8356212 200.340444,20.2867071 C201.540176,20.6558741 202.597606,20.8812988 202.597606,21.5580459 L202.597606,21.5990645 C202.597606,22.0910507 202.190857,22.4191992 201.296364,22.4191992 C200.279491,22.4191992 199.039084,21.9681133 197.859748,21.1070782 L196.537872,23.1572967 C197.981654,24.3054618 199.689882,24.8181346 201.214896,24.8181346 C203.573804,24.8181346 205.38366,23.7108699 205.38366,21.270916 L205.38366,21.2298975 C205.38366,19.2206975 203.61436,18.4827181 202.089347,17.969927 L202.089229,17.9700453 Z M168.679345,13.4181676 C165.507175,13.4181676 163.290451,16.0017456 163.290451,19.1387786 L163.290451,19.1796789 C163.290451,22.542373 165.710313,24.8592713 168.984348,24.8592713 C170.956785,24.8592713 172.420963,24.0802733 173.437837,22.8088163 L171.668537,21.2300157 C170.814482,22.0298184 170.062174,22.3579668 169.025023,22.3579668 C167.642312,22.3579668 166.666114,21.619751 166.360993,20.2050246 L173.946095,20.2050246 C173.966611,19.9177765 173.986889,19.7333703 173.986889,19.4257902 L173.986889,19.3847717 C173.986889,16.2683071 172.319573,13.4181676 168.679463,13.4181676 L168.679345,13.4181676 Z M166.320437,18.2570569 C166.564367,16.8423305 167.398144,15.9197085 168.679345,15.9197085 C169.980824,15.9197085 170.794204,16.8630171 170.977182,18.2570569 L166.320318,18.2570569 L166.320437,18.2570569 Z M192.552323,10.8142577 L189.461147,10.8142577 L189.461147,13.6232604 L188.159787,13.6232604 L188.159787,16.2888755 L189.461266,16.2888755 L189.461266,21.4966954 C189.461266,24.0393731 190.742467,24.7978026 192.633673,24.7978026 C193.670824,24.7978026 194.423132,24.5519276 195.073931,24.1621921 L195.073931,21.6608878 C194.626507,21.9067627 194.11813,22.0503868 193.548681,22.0503868 C192.857326,22.0503868 192.55256,21.70167 192.55256,20.9841407 L192.55256,16.2888755 L195.114606,16.2888755 L195.114606,13.6232604 L192.552442,13.6232604 L192.552442,10.8142577 L192.552323,10.8142577 Z" id="Shape"></path>
                <path d="M110.025471,19.6471421 C110.025471,21.125605 109.273073,21.8854365 108.093545,21.8854365 C106.914254,21.8854365 106.222925,21.1253683 106.222925,19.6470237 L106.222925,13.5070458 L103.131986,13.5070458 L103.131986,20.6329814 C103.131986,23.1587284 104.494484,24.7193545 106.832907,24.7193545 C108.398654,24.7193545 109.313627,23.8775966 110.025471,22.9533205 L110.025471,24.5137098 L113.116292,24.5137098 L113.116292,13.5070458 L110.025471,13.5070458 L110.025471,19.6471421 L110.025471,19.6471421 Z M118.972191,15.7248586 L118.972191,13.5070458 L115.88137,13.5070458 L115.88137,24.5138282 L118.972191,24.5138282 L118.972191,20.4482919 C118.972191,17.8197818 120.232947,16.5670899 122.286774,16.5670899 L122.449231,16.5670899 L122.449231,13.3018747 C120.619284,13.21983 119.60245,14.2054325 118.972191,15.7250953 L118.972191,15.7248586 Z M95.6085969,13.3016379 C92.4363107,13.3016379 90.2199083,15.8891848 90.2199083,19.031037 L90.2199083,19.0720001 C90.2199083,22.4398601 92.6395591,24.7603176 95.9134695,24.7603176 C97.8859502,24.7603176 99.3499547,23.9801229 100.366789,22.7067127 L98.5975565,21.1254867 C97.7434155,21.9265181 96.9910173,22.2551706 95.9539057,22.2551706 C94.5712479,22.2551706 93.5950869,21.5158207 93.2902146,20.098921 L100.875028,20.098921 C100.895187,19.8112316 100.915583,19.6265421 100.915583,19.3184896 L100.915583,19.277408 C100.915583,16.1561559 99.2483305,13.3016379 95.6083598,13.3016379 L95.6085969,13.3016379 Z M93.2497783,18.1479608 C93.4937001,16.7310611 94.3276821,15.8070217 95.6085969,15.8070217 C96.9099078,15.8070217 97.7233754,16.7517794 97.9064648,18.1479608 L93.2497783,18.1479608 L93.2497783,18.1479608 Z M64.7217332,13.3016379 C61.549447,13.3016379 59.3330443,15.8891848 59.3330443,19.031037 L59.3330443,19.0720001 C59.3330443,22.4398601 61.7526952,24.7603176 65.0266056,24.7603176 C66.9990865,24.7603176 68.4630908,23.9801229 69.4799253,22.7067127 L67.7106926,21.1254867 C66.8565518,21.9265181 66.1041536,22.2551706 65.0671603,22.2551706 C63.6845028,22.2551706 62.7083418,21.5158207 62.4033506,20.098921 L69.9881647,20.098921 C70.0083234,19.8112316 70.0287194,19.6265421 70.0287194,19.3184896 L70.0287194,19.277408 C70.0287194,16.1561559 68.3614666,13.3016379 64.7214958,13.3016379 L64.7217332,13.3016379 Z M62.3629144,18.1479608 C62.6068361,16.7310611 63.4408182,15.8070217 64.7217332,15.8070217 C66.0231626,15.8070217 66.8365114,16.7517794 67.0196009,18.1479608 L62.3629144,18.1479608 L62.3629144,18.1479608 Z M78.6097344,24.5138282 L81.7004368,24.5138282 L81.7004368,9.52319908 L78.6097344,9.52319908 L78.6097344,24.5138282 L78.6097344,24.5138282 Z M72.387538,12.2954355 L75.6410523,12.2954355 L75.6410523,9.52319908 L72.387538,9.52319908 L72.387538,12.2954355 L72.387538,12.2954355 Z M72.4688847,24.5139465 L75.5597056,24.5139465 L75.5597056,13.5070458 L72.4687661,13.5070458 L72.4687661,24.5138282 L72.4688847,24.5139465 Z M84.750347,24.5139465 L87.8410493,24.5139465 L87.8410493,9.52319908 L84.7502284,9.52319908 L84.7502284,24.5139465 L84.750347,24.5139465 Z M129.078398,17.8606266 C127.898989,17.4498109 126.861877,17.1624767 126.861877,16.54649 L126.861877,16.5054084 C126.861877,16.0741111 127.248452,15.7453402 128.000613,15.7453402 C128.793684,15.7453402 129.871351,16.1356743 130.949136,16.772261 L132.128545,14.615893 C130.949136,13.8150983 129.444458,13.3427195 128.061564,13.3427195 C125.865439,13.3427195 124.076047,14.595293 124.076047,16.8337058 L124.076047,16.8746689 C124.076047,19.010437 125.804369,19.7290685 127.329443,20.1808473 C128.529248,20.5505815 129.586637,20.7763525 129.586637,21.4541392 L129.586637,21.4952208 C129.586637,21.9879628 129.179904,22.3166154 128.285327,22.3166154 C127.268492,22.3166154 126.028251,21.8648365 124.848841,21.0024787 L123.527016,23.0558468 C124.970624,24.2057755 126.678906,24.719236 128.203861,24.719236 C130.56268,24.719236 132.372467,23.6102704 132.372467,21.1665682 L132.372467,21.1254867 C132.372467,19.1132001 130.603235,18.374087 129.07828,17.8605082 L129.078398,17.8606266 Z M49.6540852,16.217719 L45.9124903,10.1393042 L42.536956,10.1393042 L42.536956,24.5139465 L45.6073808,24.5139465 L45.6073808,15.1909166 L49.5727385,21.2693313 L49.6540852,21.2693313 L53.6599977,15.1293534 L53.6599977,24.5139465 L56.7710959,24.5139465 L56.7710959,10.1393042 L53.3957987,10.1393042 L49.6540852,16.2178374 L49.6540852,16.217719 Z" id="Shape"></path>
            </g>
        </g>
    </g>
</svg>