<?xml version="1.0" encoding="UTF-8"?>
<svg width="126px" height="22px" viewBox="0 0 126 22" version="1.1" xmlns="http://www.w3.org/2000/svg" xmlns:xlink="http://www.w3.org/1999/xlink">
    <!-- Generator: Sketch 58 (84663) - https://sketch.com -->
    <title>nokia</title>
    <desc>Created with Sketch.</desc>
    <g id="WEB" stroke="none" stroke-width="1" fill="none" fill-rule="evenodd">
        <g id="Group-33" transform="translate(0.000000, -11.000000)" fill="#1F2E77" fill-rule="nonzero">
            <g id="nokia" transform="translate(0.000000, 11.000000)">
                <path d="M6.03122372,20.8525019 L-1.00897068e-12,20.8525019 L-1.00897068e-12,0.341330938 L10.4309482,0.341330938 L22.3978857,15.654251 L22.3978857,0.341330938 L28.4291093,0.341330938 L28.4291093,20.8525019 L18.2095358,20.8525019 L6.03122372,5.27810362 L6.03122372,20.8525019 M57.2856651,14.5096963 C57.2856651,17.3609056 56.7814975,18.3441893 55.9469589,19.2867637 C54.6677508,20.6896651 52.806088,21.1124145 49.2189817,21.1124145 L38.9211212,21.1124145 C35.3340149,21.1124145 33.4692207,20.6896651 32.1915782,19.2867637 C31.3570399,18.3441893 30.8528721,17.3609056 30.8528721,14.5096963 L30.8528721,6.60271817 C30.8528721,3.75307458 31.3570399,2.77135669 32.1915782,1.82721653 C33.4707865,0.422749325 35.3340149,-1.52766688e-13 38.9211212,-1.52766688e-13 L49.2189817,-1.52766688e-13 C52.806088,-1.52766688e-13 54.6677508,0.422749325 55.9469589,1.82721653 C56.7814975,2.77135669 57.2856651,3.75307458 57.2856651,6.60271817 L57.2856651,14.5096963 M48.9653321,15.9157292 C50.3431817,15.9157292 50.8285605,15.8343108 51.1589313,15.5336891 C51.4673818,15.253422 51.6036011,14.8917364 51.6036011,13.686118 L51.6036011,7.42629649 C51.6036011,6.22067804 51.4673818,5.86212399 51.1589313,5.58029111 C50.8285605,5.27810362 50.3431817,5.19825097 48.9653321,5.19825097 L39.1732052,5.19825097 C37.7953554,5.19825097 37.3099766,5.27810362 36.9811716,5.58029111 C36.6711555,5.86212399 36.5349363,6.22067804 36.5349363,7.42629649 L36.5349363,13.686118 C36.5349363,14.8917364 36.6711555,15.253422 36.9811716,15.5336891 C37.3099766,15.8343108 37.7953554,15.9157292 39.1732052,15.9157292 L48.9653321,15.9157292 L48.9653321,15.9157292 M66.0506677,0.341330938 L66.0506677,20.8525019 L59.7485714,20.8525019 L59.7485714,0.341330938 L66.0506677,0.341330938 M76.6976879,0.341330938 L85.0180208,0.341330938 L73.7885461,9.93460916 L86.4538028,20.8525019 L77.5510152,20.8525019 L66.0506677,10.1553782 L76.6976879,0.341330938 M87.6155806,0.341330938 L93.9192427,0.341330938 L93.9192427,20.8525019 L87.6155806,20.8525019 M117.948628,20.8525019 L116.083833,17.2794873 L103.888298,17.2794873 L102.045424,20.8509362 L95.0825863,20.8509362 L106.254129,0.341330938 L114.089083,0.341330938 L125.259059,20.8525019 L117.948628,20.8525019 M106.078766,12.824962 L113.915286,12.824962 L109.996243,5.39866546 L106.078766,12.824962" id="Shape"></path>
            </g>
        </g>
    </g>
</svg>