<?xml version="1.0" encoding="UTF-8"?>
<svg width="172px" height="29px" viewBox="0 0 172 29" version="1.1" xmlns="http://www.w3.org/2000/svg" xmlns:xlink="http://www.w3.org/1999/xlink">
    <!-- Generator: Sketch 58 (84663) - https://sketch.com -->
    <title>Group</title>
    <desc>Created with Sketch.</desc>
    <g id="WEB" stroke="none" stroke-width="1" fill="none" fill-rule="evenodd">
        <g id="Group-33" transform="translate(-2201.000000, -11.000000)" fill="#1F2E77">
            <g id="Group" transform="translate(2201.000000, 11.000000)">
                <path d="M5.37229418,5.20423582 C-0.243001013,10.8468181 -3.95549353e-12,10.5635166 0.00197112528,11.4545766 C0.00292432426,11.8876643 0.339880162,12.7275194 0.478570615,12.6413804 C0.523847566,12.613146 0.551490338,12.637552 0.539098749,12.6959351 C0.527183763,12.7538397 0.564835123,12.7916451 0.62250366,12.7796814 C0.680648799,12.7672391 0.708291569,12.7892524 0.684938193,12.8275364 C0.625363258,12.9242034 0.989961868,13.2563171 1.07241358,13.1811848 C1.10863514,13.1476863 1.11673733,13.15965 1.08957116,13.207505 C1.02666003,13.3175715 1.53709808,13.8224417 1.62765199,13.7401311 C1.66435014,13.7061541 1.67197574,13.7185963 1.64433297,13.767887 C1.58142183,13.8779535 1.85546654,14.1406774 1.94649704,14.0578883 C1.9827186,14.0248683 1.99272719,14.0334822 1.96842062,14.0775088 C1.91265848,14.1780043 2.10758767,14.366553 2.19003938,14.2918992 C2.22340136,14.2617505 2.22816733,14.2770641 2.20004797,14.3258762 C2.13761344,14.4359427 2.41165814,14.6986666 2.50268865,14.6158775 C2.53891021,14.5828575 2.5465358,14.5952998 2.51936963,14.6431548 C2.4564585,14.7532213 2.96689655,15.2580915 3.05745044,15.1757809 C3.09414862,15.1418039 3.10177421,15.1542462 3.07413143,15.2030583 C3.01407989,15.3088178 3.53262015,15.8060312 3.62031445,15.7270704 C3.65319982,15.6974003 3.65891901,15.7112783 3.63222944,15.7581762 C3.5697949,15.8687212 4.79322579,17.0933305 4.88330309,17.0110199 C4.92095446,16.9770429 4.93048645,16.9861353 4.90475007,17.0315976 C4.87901371,17.0770598 6.06384004,18.324161 7.53748566,19.8028803 L10.2164514,22.4918525 L10.6005906,22.4918525 L10.9847298,22.4918525 L13.5159496,19.9497951 L16.0466929,17.4077378 L16.0466929,17.0655746 L16.0466929,16.7234114 L13.5698054,14.2339946 C10.5605562,11.209559 10.6911445,11.4579264 11.6271859,10.534325 C11.9131456,10.2524591 12.1247557,9.98351406 12.0980662,9.93613762 C12.0713766,9.88876118 12.0790022,9.87679744 12.1147472,9.90933882 C12.2033946,9.99021377 12.4035664,9.81267174 12.3397021,9.70930495 C12.3115827,9.66384272 12.3239743,9.64805057 12.3668683,9.67437081 C12.4092856,9.70116961 13.2638285,8.8972057 14.2656406,7.88746533 C15.2669762,6.87820351 16.2292305,5.91488249 16.4041425,5.74691146 C16.5790546,5.57894043 17.2400981,4.91423455 17.8734988,4.27010635 C18.5073761,3.62549956 19.1860538,2.94404445 19.3828894,2.75597433 C20.9261185,1.27916922 21.2177974,0.879580021 21.0586132,0.459413173 C20.8822714,-0.00669446754 20.9666295,-2.1853633e-14 15.5276761,-2.1853633e-14 L10.5519774,-2.1853633e-14 L5.37229418,5.20423582 M121.295588,3.7886851 C121.295588,5.87229154 121.274618,7.57736497 121.248405,7.57736497 C121.222192,7.57736497 121.106378,7.50941087 120.990088,7.42662174 C120.874274,7.34431116 120.54685,7.17921142 120.263274,7.06053103 C119.97922,6.94137209 119.630349,6.78967178 119.488323,6.72267477 C119.345819,6.65615633 119.12849,6.59346629 119.004574,6.58389529 C118.881135,6.57384574 118.737679,6.53986871 118.686206,6.50780585 C118.268228,6.2484318 115.850915,6.41066023 115.117429,6.74660228 C114.886755,6.85236182 114.662276,6.93897935 114.618429,6.93897935 C114.386802,6.93897935 112.700116,7.96020492 112.57763,8.1745953 C112.545221,8.23154274 112.268317,8.54690716 111.96234,8.87519241 C111.462864,9.41116833 111.306063,9.66001432 110.772271,10.7673789 C110.719369,10.8774454 110.613087,11.199988 110.536355,11.4852038 C110.459146,11.7704195 110.368115,12.0398431 110.3338,12.0833912 C110.054512,12.4394324 110.037832,15.4552541 110.312353,15.9017412 C110.339996,15.9467249 110.491554,16.364499 110.648355,16.8296495 C111.037261,17.9824763 111.512907,18.7194432 112.443229,19.6124174 C112.861207,20.0139208 113.232954,20.3235426 113.269653,20.3010508 C113.305874,20.2780804 113.353534,20.3063148 113.375458,20.3632623 C113.524633,20.753759 115.784191,21.529967 116.783144,21.5333169 C116.988082,21.5342739 117.177768,21.5706437 117.204935,21.6146704 C117.232101,21.6586969 117.35697,21.6945882 117.482792,21.6945882 C117.609091,21.6945882 117.73396,21.6586969 117.761126,21.6146704 C117.787816,21.5706437 117.959868,21.5337954 118.142882,21.5328383 C118.325897,21.5318812 118.636639,21.4931187 118.833475,21.4462208 C119.029834,21.3998014 119.278619,21.3447682 119.385854,21.3241905 C119.736631,21.256715 120.724622,20.8107064 121.053476,20.5714315 L121.37518,20.3374205 L121.37518,20.8164491 L121.37518,21.2954775 L123.321136,21.2954775 L125.267568,21.2954775 L125.267568,10.6477414 L125.267568,5.23161673e-06 L123.281578,5.23161673e-06 L121.295588,5.23161673e-06 L121.295588,3.7886851 M156.405243,10.6477414 L156.405243,21.2954775 L158.43079,21.2954775 L160.456338,21.2954775 L160.456338,18.2576425 L160.456338,15.2198075 L160.68034,15.4088347 C160.803303,15.5131586 161.181723,15.9113122 161.520585,16.2941521 C161.859924,16.6769921 162.163518,16.973693 162.195926,16.9535939 C162.227859,16.9339734 162.311263,17.0143698 162.381324,17.1325716 C162.451384,17.2507735 162.895575,17.7288448 163.368838,18.1944739 C163.842101,18.660103 164.425935,19.2520693 164.666141,19.5090506 C164.906348,19.7665105 165.120818,19.9737226 165.142741,19.9698942 C165.164665,19.9655873 165.24521,20.0292344 165.321466,20.1105879 C165.398198,20.1919414 165.434897,20.2589384 165.403918,20.2589384 C165.372462,20.2589384 165.539272,20.4546653 165.774712,20.6939403 C166.010152,20.9332152 166.233201,21.1098002 166.270375,21.0868298 C166.308027,21.0633808 166.32852,21.0920938 166.316606,21.1499984 C166.298971,21.2356588 166.807503,21.2595863 169.015112,21.2768141 C171.165052,21.2935633 171.736018,21.2768141 171.736018,21.1968963 C171.736495,21.0772588 170.534035,19.8981117 170.439191,19.9249105 C170.40297,19.9354386 170.392961,19.9129468 170.415838,19.8751413 C170.473983,19.7803884 169.874421,19.2032572 169.798165,19.2803037 C169.764326,19.3138022 169.747169,19.3056669 169.760037,19.2616403 C169.78768,19.1664089 169.103759,18.4629405 169.009393,18.4892607 C168.973171,18.4997888 168.963162,18.4772969 168.986039,18.4394915 C169.044184,18.3447386 168.444622,17.7676074 168.368366,17.8446539 C168.334528,17.8781524 168.3188,17.8700171 168.332621,17.8259905 C168.363601,17.730759 167.594369,16.9411516 167.500002,16.9713003 C167.464257,16.983264 167.453772,16.9617293 167.477125,16.9239238 C167.534794,16.8296495 166.935232,16.2525183 166.858976,16.3290863 C166.825137,16.3630633 166.80798,16.3544494 166.820848,16.3109014 C166.848491,16.2156699 166.16457,15.511723 166.070204,15.5385218 C166.034459,15.5485713 166.024927,15.5241653 166.04971,15.4844456 C166.107378,15.3901713 165.901487,15.2169362 165.823802,15.2944613 C165.791393,15.3270027 165.777095,15.2997254 165.791393,15.234164 C165.806167,15.1676456 165.770899,15.1240975 165.712754,15.1360613 C165.655086,15.1485036 165.627919,15.1255332 165.652226,15.085335 C165.710371,14.9915392 165.50448,14.8178256 165.426794,14.8958292 C165.394386,14.9283706 165.376751,14.9187996 165.387713,14.8752515 C165.415356,14.7637494 164.500285,13.8324912 164.394956,13.8650326 C164.347773,13.8793891 164.335381,13.8650326 164.36779,13.8324912 C164.452625,13.7468308 164.268181,13.5511039 164.160946,13.6128368 C164.11138,13.6410712 164.097558,13.6348501 164.130444,13.5984803 C164.163329,13.5621105 164.138069,13.4745359 164.074682,13.404189 C163.971736,13.2898156 164.030834,13.2084621 164.634686,12.6399448 C165.006434,12.2901248 165.514012,11.8091821 165.762797,11.5713428 C166.011582,11.3335035 166.465305,10.9238647 166.771282,10.6611408 C167.077258,10.3984169 167.529551,9.98303552 167.776906,9.73753939 C168.323566,9.19629941 169.323472,8.27269803 170.206611,7.49457584 C170.567396,7.17681867 170.861935,6.88586031 170.861935,6.84805487 C170.861935,6.81072798 169.589891,6.77962223 168.034747,6.77962223 L165.207559,6.77962223 L164.559383,7.38594499 C164.203363,7.71997285 163.921693,8.02768047 163.933608,8.07027142 C163.945523,8.1123838 163.922646,8.12721886 163.883089,8.10233426 C163.799207,8.05065087 163.615716,8.24398505 163.673862,8.32246723 C163.695308,8.35118021 163.690542,8.35787993 163.662423,8.33730227 C163.615716,8.30284669 162.116334,9.62077322 162.059619,9.7461533 C162.045798,9.77678048 161.724093,10.0801812 161.34472,10.4204302 C160.965347,10.7606792 160.664612,11.070301 160.676527,11.108585 C160.688919,11.146869 160.665089,11.1573971 160.624101,11.1320339 C160.583114,11.1061922 160.531164,11.1305983 160.509241,11.1856315 C160.486841,11.2406648 160.46587,8.74646248 160.462534,5.64306613 L160.456338,5.23161673e-06 L158.43079,5.23161673e-06 L156.405243,5.23161673e-06 L156.405243,10.6477414 M27.2200914,5.97135138 C26.8273734,6.12640155 22.0637614,11.0439807 22.0246803,11.333982 C21.9884587,11.6062769 22.1257194,12.0283579 22.2196095,11.9336051 C22.2434395,11.9096776 22.4283601,12.07717 22.6299617,12.3059169 C22.8320399,12.5346638 23.1937789,12.9084113 23.4339851,13.1366796 C23.6741911,13.3649479 23.9744489,13.6554278 24.1012243,13.782722 C24.2279998,13.9100163 24.5640024,14.2469155 24.847579,14.5321312 C25.1316325,14.817347 25.4681117,15.1547247 25.5948872,15.282019 C25.7216625,15.4093133 25.9952307,15.6926148 26.2025514,15.9117907 C26.4093956,16.1314451 26.7115596,16.4324531 26.8731269,16.5812821 C27.3830883,17.0497825 27.4950892,16.9028676 23.8114518,20.5958375 C21.965582,22.4459117 20.4642936,23.9887567 20.4752554,24.0236908 C20.4862172,24.0586249 20.4504722,24.0782455 20.3956633,24.0672388 C20.3408543,24.0562321 20.3051094,24.0921234 20.3160712,24.1471567 C20.327033,24.2017114 20.3093988,24.2385596 20.2765134,24.2280316 C20.1959681,24.2031469 19.0201972,25.3794228 19.0454569,25.4593405 C19.0564187,25.4942748 19.0206737,25.5138952 18.9658648,25.5028885 C18.9110559,25.4918821 18.8753109,25.5277731 18.8862727,25.5828064 C18.8972345,25.6373611 18.8796003,25.6742096 18.8467149,25.6641599 C18.8138296,25.6541104 18.4030008,26.0230725 17.9330737,26.4843946 L17.079484,27.3232926 L17.079484,27.7334098 C17.079484,28.5239745 16.7148854,28.4737266 22.4865052,28.4737266 L27.4755488,28.4737266 L27.8177471,28.1708045 C28.2276227,27.8080636 37.2730044,18.7261429 37.6080539,18.3413888 C38.0627297,17.8188122 38.1909351,16.8703262 37.8959199,16.2175841 C37.7229142,15.8357013 28.0789236,6.10247406 27.747687,5.97613687 C27.5255916,5.89143354 27.4245525,5.89047643 27.2200914,5.97135138 M52.820633,6.40826746 C52.796803,6.43363061 52.6180782,6.47095752 52.4236256,6.49153516 C51.9193834,6.54417565 51.5533548,6.63079318 51.5533548,6.69731162 C51.5533548,6.72841737 51.4013197,6.79924278 51.2159224,6.85427602 C50.3747244,7.10360054 49.3891166,7.74820731 49.0126029,8.29518989 C48.9067979,8.44832586 48.7952737,8.5923694 48.7642946,8.61438269 C48.6303703,8.70961413 48.1256514,9.79400829 48.1037279,10.0323262 C48.0903831,10.1763697 48.057021,10.3165848 48.0293783,10.3448193 C47.8854452,10.4893413 48.0508252,12.2829465 48.2076265,12.2829465 C48.2390821,12.2829465 48.3124783,12.4174191 48.3711002,12.5820402 C48.5931955,13.2041552 49.1279401,13.7999498 49.7460897,14.1134 C49.8661928,14.1741759 49.9648488,14.2531366 49.9648488,14.2885493 C49.9648488,14.4297216 51.4070389,15.0192951 52.8968889,15.4873169 C53.1766528,15.5753701 53.4564167,15.6978789 53.5178979,15.7596118 C53.5793793,15.8213448 53.6727928,15.8720711 53.7247423,15.8720711 C54.1798947,15.8720711 54.9691435,16.5961171 54.9691435,17.0138912 C54.9691435,18.4863894 51.5848105,18.4926105 49.706532,17.0234622 C49.2480432,16.6645498 49.184179,16.6865631 48.8300654,17.3220774 C48.6746939,17.6005935 48.4549815,17.9293573 48.3415508,18.0523446 C48.2281204,18.1753319 48.1590133,18.31459 48.1885625,18.362445 C48.217635,18.4098214 48.20572,18.4265706 48.161873,18.3997718 C48.0851405,18.3519169 47.3435517,19.4401394 47.3435517,19.6009322 C47.3435517,19.8038374 49.3071416,20.9150303 49.8147199,20.9997337 C49.9190953,21.0169615 50.1116414,21.0763017 50.2427063,21.1308564 C50.6387604,21.2954775 51.4732862,21.4562703 52.2086792,21.5089108 C52.5909121,21.5361881 52.9035613,21.5893072 52.9035613,21.6266341 C52.9035613,21.7223441 53.4397358,21.7113374 53.4993107,21.6146704 C53.5264768,21.5706437 53.7342742,21.5342739 53.9611356,21.5333169 C55.7054897,21.5256601 57.2596806,20.7097324 58.4454601,19.1774155 C58.9825878,18.4835181 59.1770403,16.6999625 58.8338887,15.6088686 C58.6189423,14.9240636 57.3407024,13.4486942 56.9546568,13.4396017 C56.9327333,13.4391232 56.7897535,13.3630337 56.6372417,13.2706736 C56.4842533,13.1783135 56.1444378,13.0175207 55.8823081,12.9131968 C55.6201783,12.8083944 55.3880743,12.7007206 55.3661508,12.6739218 C55.3442273,12.6466445 54.8795427,12.4801091 54.3333597,12.3040027 C52.4036084,11.6809307 51.9227195,11.3449887 52.0771377,10.7267021 C52.1319467,10.5075263 52.5332434,10.1294718 52.711015,10.1294718 C52.7734496,10.1294718 52.8244457,10.102673 52.8244457,10.069653 C52.8253989,9.63847957 55.2531967,9.99739201 56.1949572,10.5678236 L56.6667908,10.8535179 L56.854571,10.6496556 C56.9579931,10.5376749 57.2134505,10.1687129 57.4217245,9.82942098 C57.6304751,9.48965052 57.9321625,9.00775075 58.0927766,8.75746911 C58.2533906,8.5071875 58.3844555,8.26886963 58.3844555,8.22771434 C58.3844555,8.18655904 58.438311,8.13200435 58.5036052,8.1066412 C58.8825019,7.96068346 57.7848933,7.27827126 56.6372417,6.94567906 C56.3093412,6.85092616 55.9633299,6.73415997 55.8680102,6.68582644 C55.7726903,6.63797144 55.6368592,6.6212222 55.5658459,6.64849953 C55.4953092,6.67577688 55.4567048,6.66668444 55.4805348,6.62792189 C55.5601267,6.49871341 52.938353,6.28193029 52.820633,6.40826746 M68.1151871,6.43075932 C67.2820914,6.59538049 67.0719109,6.64610678 67.0032807,6.69874728 C66.9594334,6.73272434 66.8345643,6.78680047 66.7249464,6.81934187 C66.4061014,6.91457331 65.2298538,7.49026889 65.175998,7.57736497 C65.0578014,7.76926349 64.9777328,7.62426286 64.9777328,7.21845251 L64.9777328,6.77962223 L63.0308239,6.77962223 L61.0843916,6.77962223 L61.0858212,17.6269137 L61.0877277,28.4737266 L63.1118457,28.4737266 L65.1364403,28.4737266 L65.1364403,24.4917125 L65.1364403,20.5096985 L65.8313224,20.864304 C66.6143754,21.2634147 67.5756765,21.5347525 68.2071709,21.5347525 C68.4407045,21.5347525 68.6313444,21.5706437 68.6313444,21.6146704 C68.6313444,21.6586969 68.75669,21.6945882 68.9096784,21.6945882 C69.0621904,21.6945882 69.1875361,21.6586969 69.1875361,21.6146704 C69.1875361,21.5706437 69.3753162,21.5347525 69.6045605,21.5347525 C71.441375,21.5342739 73.978314,20.0823534 74.9696409,18.4643761 C75.2646562,17.9824763 75.7007446,17.0670103 75.7012212,16.9287093 C75.7012212,16.8741546 75.7322002,16.829171 75.7698516,16.829171 C75.9647808,16.829171 76.2569363,15.1150051 76.2569363,13.9731849 C76.2569363,13.2065479 76.0701092,11.8139676 75.9557253,11.72735 C75.9247465,11.7039011 75.8899545,11.5967059 75.8780396,11.4890322 C75.8656482,11.3808799 75.8299032,11.2732062 75.797971,11.2497572 C75.7660387,11.2258297 75.6907361,11.0626442 75.6311611,10.8870164 C75.1359742,9.43844568 73.7986361,7.94584843 72.3478672,7.22467368 C71.8550633,6.9796561 71.3960982,6.77914366 71.3284209,6.77914366 C71.2607437,6.77962223 71.1673303,6.74181677 71.1211002,6.69539744 C70.911873,6.48531401 68.785286,6.29820098 68.1151871,6.43075932 M83.4226095,6.50062761 C83.1042411,6.55853214 82.8001706,6.64036418 82.7477447,6.68247659 C82.6948421,6.72458897 82.5084917,6.80450681 82.3335798,6.86001862 C81.6482296,7.07775883 79.8614581,8.1353542 80.1788735,8.1353542 C80.2060396,8.1353542 80.1660053,8.20235119 80.0897494,8.28370469 C80.0134935,8.36505818 79.9253226,8.42774822 79.8943436,8.42344126 C79.791398,8.40764911 79.1246353,9.27861 78.8658418,9.7672095 C78.7252451,10.0323262 78.5665375,10.2936144 78.5131583,10.3476906 C77.9469581,10.9200363 77.5861723,14.0172115 77.8854767,15.7404698 C78.129019,17.1411855 78.9563958,18.7022154 79.8924371,19.5248428 C80.176967,19.7751244 80.5363231,20.097667 80.691218,20.2417106 C80.8623172,20.4015462 81.0200715,20.485771 81.0944211,20.457058 C81.1616215,20.4312164 81.1902177,20.4369589 81.1573322,20.4695003 C81.0934679,20.533626 81.4208918,20.7130823 82.1615274,21.0188757 C82.7644256,21.2677216 84.0021546,21.5347525 84.5516737,21.5347525 C84.7904501,21.5347525 85.0073028,21.5706437 85.0344691,21.6146704 C85.0616352,21.6586969 85.2065215,21.6945882 85.357127,21.6945882 C85.5072557,21.6945882 85.6302183,21.6586969 85.6302183,21.6146704 C85.6302183,21.5706437 85.8179986,21.5347525 86.0472429,21.5347525 C86.5438597,21.5347525 87.53471,21.3538606 88.0217947,21.1739259 C88.2138642,21.1031005 88.4955346,21.0040406 88.648523,20.9542714 C88.8015114,20.9040237 88.9530701,20.8260201 88.9850021,20.7805578 C89.0169344,20.734617 89.0441005,20.7279173 89.0445771,20.7647656 C89.0479134,20.9427862 90.003972,20.2713807 90.8356381,19.507615 C91.4766644,18.9189985 91.5381456,19.0974977 90.2446546,17.788185 C88.967368,16.4946646 89.1403736,16.5769751 88.6218335,17.0191553 C87.056204,18.3547882 84.9529706,18.6543604 83.4640736,17.754208 C83.2138591,17.6025077 83.0089212,17.4996194 83.0089212,17.5249826 C83.0089212,17.5790587 82.6476588,17.1780339 82.3907716,16.8382634 C82.1529485,16.5233775 81.8445886,15.8376155 81.7506985,15.4136202 L81.6753959,15.0743283 L86.631554,15.0743283 C91.4842899,15.0743283 91.5877121,15.071457 91.5877121,14.9197567 C91.5877121,14.8345748 91.623457,14.7426932 91.667304,14.7154159 C91.7121045,14.68766 91.7464196,14.3024273 91.7464196,13.8334483 C91.7464196,13.3314494 91.714964,13.0007714 91.667304,13.0007714 C91.623457,13.0007714 91.5877121,12.8887907 91.5877121,12.7514469 C91.5877121,11.6555676 90.7336458,9.63656537 89.8967371,8.75507637 C89.6164966,8.45981106 89.3996437,8.20570104 89.414895,8.1899089 C89.4930573,8.11190526 88.0708843,7.15384827 87.8740487,7.15241264 C87.8197165,7.15193407 87.7749161,7.12704949 87.7749161,7.09642229 C87.7749161,7.06579508 87.5695018,6.97630624 87.3183338,6.89782405 C87.0671658,6.81934187 86.8403046,6.72267477 86.8140915,6.68295513 C86.6468051,6.42740946 84.4687454,6.31016473 83.4226095,6.50062761 M100.341891,6.50062761 C100.023523,6.55853214 99.7194525,6.63940709 99.6670266,6.68008384 C99.6141241,6.72123914 99.3300708,6.84949051 99.0355322,6.96577815 C98.7409938,7.0820658 98.330165,7.28353532 98.121891,7.41370089 L97.7439477,7.65058312 L97.7201177,7.21510268 L97.6962877,6.77962223 L95.7141105,6.77962223 L93.7324098,6.77962223 L93.7324098,14.0377891 L93.7324098,21.2954775 L95.7579575,21.2954775 L97.7835054,21.2954775 L97.7835054,16.6358368 L97.7835054,11.9757175 L98.1609721,11.5325802 C99.0512599,10.4864701 101.024382,9.89928927 102.22017,10.3242416 C102.41081,10.3921957 102.607169,10.42378 102.657212,10.395067 C102.707255,10.3668326 102.723459,10.370661 102.692957,10.404638 C102.662454,10.4386151 102.804481,10.5788302 103.007989,10.7166526 C104.067946,11.4325633 104.092253,11.5684715 104.120849,16.84927 L104.144679,21.2954775 L106.172133,21.2954775 L108.199587,21.2954775 L108.167655,16.6099951 C108.130957,11.1760605 108.124761,11.12342 107.400807,9.80597203 C106.952326,8.98908729 106.389939,8.26839108 106.263163,8.34735181 C106.215504,8.37654336 106.202159,8.36170833 106.231708,8.31337478 C106.33227,8.15018924 105.040209,7.23520177 104.416341,7.02798965 C104.241428,6.9700851 103.907332,6.83417693 103.673799,6.72554608 C103.434069,6.61404395 103.079479,6.52216236 102.860243,6.51450556 C102.64625,6.50684876 102.470861,6.47335027 102.470861,6.44080886 C102.469908,6.34366322 100.971479,6.38625417 100.341891,6.50062761 M133.683839,6.40826746 C133.660009,6.43363061 133.481284,6.47095752 133.286831,6.49153516 C132.767338,6.54561131 132.41656,6.63127175 132.41656,6.70353279 C132.41656,6.73846694 132.3017,6.79206452 132.16158,6.82317027 C131.870377,6.88729596 131.208857,7.16150507 131.146899,7.24333711 C131.124499,7.27348577 130.927187,7.38785919 130.709381,7.49744713 C130.157479,7.77500609 128.373091,9.64709346 128.655237,9.65235751 C128.692412,9.65283606 128.682404,9.67963486 128.63379,9.71217624 C128.468887,9.82032854 127.986092,10.8841451 127.846448,11.4469198 C127.770669,11.7531918 127.680591,12.0221368 127.646276,12.0446287 C127.358887,12.2317417 127.35841,15.4327622 127.645323,16.0716264 C127.684881,16.159201 127.810703,16.5128494 127.92461,16.8574054 C128.8006,19.5018724 131.165963,21.3055271 134.02556,21.5093894 C134.410653,21.5366667 134.744272,21.5897858 134.767149,21.6266341 C134.821481,21.7146873 135.333349,21.7146873 135.387682,21.6266341 C135.410558,21.5893072 135.709386,21.5371453 136.051108,21.510825 C137.296463,21.4146365 139.210486,20.719782 139.857232,20.1297299 C139.995922,20.0033927 140.307142,19.738276 140.548777,19.5411135 C140.790414,19.3434723 141.010603,19.1175968 141.037769,19.038636 C141.093531,18.8792789 140.938636,18.6400039 140.825205,18.7103508 C140.785648,18.7352354 140.762771,18.7074795 140.774686,18.6495749 C140.786601,18.5916704 140.749426,18.5538649 140.691281,18.5658287 C140.633612,18.5777924 140.605493,18.5562577 140.629323,18.5174951 C140.688898,18.4213066 140.324299,18.0891929 140.241847,18.1643253 C140.205149,18.1978238 140.197524,18.18586 140.22469,18.138005 C140.287125,18.02746 139.776687,17.5230684 139.686609,17.6053789 C139.649434,17.6388775 139.642285,17.6264351 139.669928,17.5776231 C139.730933,17.4699493 139.458318,17.2029184 139.373483,17.2876218 C139.340598,17.3206417 139.325823,17.2952786 139.340121,17.2316314 C139.354896,17.1679843 139.32201,17.1139082 139.267678,17.111994 C139.212869,17.1100798 139.165686,17.0722743 139.16235,17.0287263 C139.129941,16.5654899 138.719589,16.599467 138.225355,17.1052943 C137.991345,17.3450478 137.776875,17.5364678 137.749232,17.5307252 C137.721589,17.5254611 137.430864,17.6517983 137.102963,17.811634 C134.726638,18.9725961 131.806513,17.7388944 131.425233,15.4136202 L131.369948,15.0743283 L136.339927,15.0743283 L141.309907,15.0743283 L141.361856,14.8671162 C141.539628,14.1555124 141.182655,11.118156 140.909563,11.0200532 C140.868576,11.0052182 140.855708,10.9597559 140.880967,10.9186006 C140.906227,10.8779239 140.856661,10.7286163 140.77135,10.586487 C140.685562,10.4448362 140.477764,10.0596035 140.309048,9.7308397 C139.799563,8.73689148 138.701001,7.6984381 137.604346,7.17394738 C136.536286,6.66333459 136.498635,6.64754244 136.110206,6.5389116 C135.763242,6.44224452 133.753899,6.33409222 133.683839,6.40826746 M147.869346,6.50972005 C147.521905,6.57288865 147.218311,6.65232793 147.194481,6.68726208 C147.170651,6.72171768 146.925202,6.83369836 146.648298,6.9365866 C143.589959,8.07074996 142.611024,12.2839036 145.038345,13.8655112 C145.23947,13.9966339 145.505889,14.1918822 145.630758,14.3000345 C145.876207,14.5120321 146.863721,14.9240636 148.063322,15.315039 C150.120325,15.9854874 150.898612,16.6688567 150.495409,17.452243 C149.96972,18.47299 147.054837,18.291141 145.565464,17.1445354 C145.28284,16.9272737 145.003553,16.7492531 144.943978,16.7492531 C144.841986,16.7492531 143.695764,18.4356631 143.695764,18.5854492 C143.695764,18.6242118 143.648581,18.6845091 143.591389,18.7194432 C143.460801,18.7988825 142.980865,19.5004367 142.980865,19.6119388 C142.980865,19.6569225 143.151011,19.7928307 143.358332,19.9139039 C143.565652,20.034977 143.783935,20.1809347 143.843033,20.2388393 C144.355378,20.738924 146.974292,21.5347525 148.107169,21.5347525 C148.345945,21.5347525 148.541351,21.5706437 148.541351,21.6146704 C148.541351,21.6586969 148.684331,21.6945882 148.859243,21.6945882 C149.033678,21.6945882 149.176658,21.663961 149.176658,21.6266341 C149.176658,21.5893072 149.471673,21.5366667 149.831983,21.5098679 C153.180094,21.2615005 155.24377,18.794097 154.547458,15.8720711 C154.278179,14.7422147 153.460334,13.8296199 152.155405,13.2036766 C150.919582,12.6107532 150.829982,12.5739049 149.812442,12.2437054 C147.613888,11.530666 147.074854,10.7989632 148.297332,10.1873763 C148.514661,10.078267 148.680042,9.97585726 148.663837,9.95958657 C148.647633,9.94331588 148.927873,9.91843128 149.286276,9.90455333 C150.148444,9.87057627 150.880501,10.0481183 151.689767,10.4874271 C152.479969,10.9166864 152.489501,10.9114224 153.156264,9.68777021 C153.298767,9.42600339 153.58425,8.98956584 153.791571,8.71774947 C154.194298,8.1879947 154.31726,7.92144237 154.208596,7.81185444 C154.048458,7.65106167 152.788329,7.09067969 152.218793,6.92653706 C151.878501,6.82843432 151.579673,6.71980348 151.555366,6.68439079 C151.380931,6.43315206 148.933116,6.31686444 147.869346,6.50972005 M85.9190377,9.96772191 C86.6644392,10.3510404 87.2354055,10.9535348 87.4603604,11.5947917 L87.6038169,12.0039519 L84.7780585,12.0245296 C81.5810292,12.0484571 81.8293375,12.0876982 82.0152114,11.5866564 C82.2944985,10.8348544 83.0823176,10.1146367 83.8320084,9.92560953 C83.9473456,9.89689653 84.0417123,9.84329895 84.0417123,9.80692914 C84.0417123,9.55760462 85.3371097,9.66862821 85.9190377,9.96772191 M135.270438,9.78874425 C135.295221,9.82272129 135.558304,9.97490017 135.854749,10.1270791 C136.622074,10.5204471 137.010979,11.0071324 137.211151,11.8244957 L137.265007,12.0436715 L134.398261,12.0436715 L131.531992,12.0436715 L131.586324,11.8642153 C131.615873,11.765634 131.645422,11.649825 131.651142,11.6067555 C131.656861,11.5641645 131.706427,11.4808968 131.761236,11.4215566 C131.815569,11.362695 131.860369,11.266985 131.860369,11.2086019 C131.860369,10.90233 133.381198,9.84521315 134.027467,9.7021267 C134.271962,9.64805057 135.214676,9.7136119 135.270438,9.78874425 M69.6641354,10.3462549 C73.1414053,11.295698 72.9807915,16.8215142 69.449189,17.74033 C68.4264067,18.0064038 66.1692314,17.5800158 66.1692314,17.1206079 C66.1692314,17.0775384 66.150644,17.0603106 66.1277673,17.083281 C66.1048905,17.1062514 65.8727866,16.9191383 65.61161,16.6678996 L65.1364403,16.211363 L65.1364403,14.021997 L65.1364403,11.8321525 L65.3327994,11.6469537 C65.4405109,11.5455011 65.5062816,11.4225137 65.4786387,11.3741802 C65.450996,11.3258467 65.4548087,11.3095759 65.486741,11.3382889 C65.5186732,11.3670019 65.7712709,11.2186515 66.0476987,11.008568 C67.0566598,10.2414525 68.3887552,9.99787057 69.6641354,10.3462549 M118.555141,10.2620301 C118.7739,10.2945715 118.98837,10.3247202 119.03174,10.3295057 C119.173291,10.3433836 119.866266,10.6774115 120.09694,10.8420327 C120.219903,10.9300858 120.340006,10.9827263 120.363359,10.9592774 C120.386713,10.9358284 120.503003,11.0439807 120.6212,11.199988 C120.741779,11.358388 120.876657,11.4607977 120.927177,11.4320847 C120.97722,11.4033717 120.991994,11.4086358 120.960538,11.4435699 C120.928606,11.4789826 120.991517,11.6129766 121.099229,11.7417066 L121.295588,11.976196 L121.295588,14.0454459 L121.295588,16.1146959 L120.878563,16.5319914 C119.675626,17.7345874 118.239632,18.1447047 116.796489,17.6972605 C116.496708,17.6044219 116.251736,17.5412533 116.251736,17.5570454 C116.251736,17.6216497 115.686012,17.1799481 115.550181,17.0100628 C115.470589,16.9095673 115.37098,16.8487915 115.329992,16.8741546 C115.288528,16.8999963 115.264698,16.8870755 115.276613,16.8459202 C115.288528,16.8047649 115.133157,16.5894174 114.930602,16.3678488 C114.117046,15.4767888 113.910202,13.4362519 114.51453,12.263326 C114.698021,11.9068063 115.46344,10.9674127 115.694114,10.8157124 C116.017725,10.6027577 116.450478,10.3697039 116.450478,10.4079879 C116.450478,10.428087 116.548657,10.4051166 116.66876,10.3572616 C116.934226,10.251502 117.686777,10.1481353 117.959392,10.1797195 C118.06901,10.1926404 118.336858,10.2294887 118.555141,10.2620301" id="path0"></path>
            </g>
        </g>
    </g>
</svg>