<?xml version="1.0" encoding="UTF-8"?>
<svg width="113px" height="31px" viewBox="0 0 113 31" version="1.1" xmlns="http://www.w3.org/2000/svg" xmlns:xlink="http://www.w3.org/1999/xlink">
    <!-- Generator: Sketch 58 (84663) - https://sketch.com -->
    <title>sqreen</title>
    <desc>Created with Sketch.</desc>
    <g id="WEB" stroke="none" stroke-width="1" fill="none" fill-rule="evenodd">
        <g id="Group-33" transform="translate(-461.000000, -7.000000)">
            <g id="sqreen" transform="translate(461.000000, 7.000000)">
                <path d="M14.3704619,0.280217089 L25.9395945,6.99503731 C26.5153661,7.32921993 26.8700561,7.94681489 26.8700561,8.61518012 L26.8700561,22.0448206 C26.8700561,22.7131858 26.5153661,23.3307807 25.9395945,23.6649633 L14.3704619,30.3797836 C13.7946903,30.7139663 13.0853103,30.7139663 12.5095387,30.3797836 L0.940406105,23.6649633 C0.364634464,23.3307807 0.0099445077,22.7131858 0.0099445077,22.0448206 L0.0099445077,8.61518012 C0.0099445077,7.94681489 0.364634464,7.32921993 0.940406105,6.99503731 L12.5095387,0.280217089 C13.0853103,-0.0539655305 13.7946903,-0.0539655305 14.3704619,0.280217089 Z M53.6894202,8.40000019 C54.9441921,8.40000019 56.1710802,8.81853167 57.0354786,9.37657365 L57.0354786,9.29353167 C57.0354786,9.03119643 57.2478527,8.81853167 57.5098291,8.81853167 L59.7956506,8.81853167 C60.0576275,8.81853167 60.2700014,9.03119643 60.2700014,9.29353167 L60.2700014,27.8750006 C60.2700014,28.1373359 60.0576275,28.3500006 59.7956506,28.3500006 L57.5098291,28.3500006 C57.2478527,28.3500006 57.0354786,28.1373359 57.0354786,27.8750006 L57.0354786,21.3744761 C56.1710802,21.9325179 54.9441921,22.3510494 53.6894202,22.3510494 C49.7856856,22.3510494 46.8300011,19.2539165 46.8300011,15.3755248 C46.8300011,11.4971331 49.7856856,8.40000019 53.6894202,8.40000019 Z M2.07763687,10.2422077 L2.07763687,20.5217253 L5.74791924,18.3914631 C6.00474654,19.0430618 6.34112875,19.6542603 6.74502012,20.2129489 L2.93662419,22.4233734 L12.4061541,27.9195668 L12.4061132,22.5315725 C8.89902281,22.0272449 6.20307706,18.9951261 6.20307706,15.3300003 C6.20307706,14.4707064 6.35126636,13.6462073 6.62335517,12.8809214 L2.07763687,10.2422077 Z M24.8023637,10.2422077 L20.2566454,12.8809214 C20.5287342,13.6462073 20.6769236,14.4707064 20.6769236,15.3300003 C20.6769236,18.9951261 17.9809778,22.0272449 14.4738874,22.5315725 L14.4738465,27.9195668 L23.9433763,22.4233734 L20.1349806,20.2129489 C20.5388719,19.6542603 20.875254,19.0430618 21.1320814,18.3914631 L24.8023637,20.5217253 L24.8023637,10.2422077 Z M40.1149746,8.40000019 C41.6687999,8.40000019 43.7670128,8.94093423 45.1470669,9.73390987 L45.2068664,9.76911781 L45.273981,9.81022406 C45.4769425,9.93656544 45.5557009,10.1930154 45.4585941,10.411353 L44.5917007,12.3605078 C44.4841693,12.6022844 44.2008312,12.7111864 43.9588472,12.6037472 C43.9435222,12.596943 43.9285652,12.5893402 43.9140376,12.5809702 C43.8985058,12.5720214 43.8838518,12.5636608 43.870076,12.5558884 C42.5689086,11.8217597 41.3416241,11.4954003 40.1149746,11.4954003 C39.1003429,11.4954003 38.4521061,11.9175003 38.4521061,12.5647203 C38.4521061,14.5063803 45.780001,12.8742603 45.780001,18.1364405 C45.780001,20.5283406 43.6661851,22.4700005 40.2840798,22.4700005 C38.7651357,22.4700005 36.9051037,22.1294475 35.6231038,21.4483417 L35.5728736,21.418916 L35.5162624,21.3806253 C35.3311226,21.2483431 35.264579,21.0042385 35.3570072,20.7964204 L36.2195276,18.857101 C36.3264342,18.6167292 36.6073222,18.5074424 36.8487708,18.6122775 C36.9007764,18.6348579 36.9467148,18.6543054 36.9865856,18.6706197 C38.0999535,19.126187 39.2542177,19.3746005 40.2840798,19.3746005 C41.8905798,19.3746005 42.3978957,18.9525004 42.3978957,18.1364405 C42.3978957,15.9415204 35.0700008,17.5455004 35.0700008,12.5647203 C35.0700008,10.3135202 37.0428956,8.40000019 40.1149746,8.40000019 Z M68.8158965,8.40000019 C69.4445472,8.40000019 70.0731977,8.4810014 70.7018483,8.70446346 L70.97127,8.80913419 C71.1348149,8.88301285 71.2169842,9.05557707 71.1818349,9.21967669 L71.1594834,9.28917446 L70.2464523,11.387418 C70.1678418,11.5680737 69.9902856,11.678263 69.8018711,11.6719769 L69.7207141,11.6620176 L69.7184275,11.6615313 C69.3190536,11.5772421 68.9444816,11.5516803 68.6501895,11.5516803 C67.459171,11.5516803 66.2681524,12.0215963 65.5095051,12.7991218 L65.3636687,12.9586803 L65.3636687,22.0780506 C65.3636687,22.2674601 65.2321239,22.4254896 65.0572523,22.4620375 L64.9799119,22.4700005 L62.5437582,22.4700005 C62.3583079,22.4700005 62.2035818,22.3356472 62.167798,22.1570422 L62.1600014,22.0780506 L62.1600014,9.21405022 C62.1600014,9.02464071 62.2915462,8.86661111 62.4664177,8.83006323 L62.5437582,8.8221002 L64.9799119,8.8221002 C65.1653622,8.8221002 65.3200882,8.95645361 65.3558721,9.13505862 L65.3636687,9.21405022 L65.3636687,9.38490021 C66.3302924,8.8221002 67.5730945,8.40000019 68.8158965,8.40000019 Z M77.5386044,8.40000019 C81.258539,8.40000019 83.5800019,11.6079603 83.5800019,14.9284804 C83.5800019,15.2079522 83.5523321,15.5451623 83.5167824,15.8272587 L83.5160208,15.8332642 L83.5152425,15.8393207 C83.4844223,16.0781354 83.2823009,16.256792 83.043109,16.2566431 L74.0703947,16.2510605 C74.4619668,18.3052804 76.0562244,19.5153005 78.2098706,19.5153005 C79.3131888,19.5153005 80.4749896,19.2328712 81.5666871,18.6680125 L81.862588,18.5069577 C82.0579345,18.3952818 82.3062126,18.4641893 82.4171325,18.6608671 L82.4351274,18.6967744 L83.2667308,20.580942 C83.3310225,20.7266072 83.2787899,20.8976982 83.1443348,20.9818582 C83.1095882,21.003607 83.0789648,21.0224753 83.052464,21.0384626 C81.7977075,21.7954374 80.015349,22.4700005 78.2098706,22.4700005 C73.9305475,22.4700005 70.7700016,19.2901804 70.7700016,15.3224404 C70.7700016,11.4954003 73.4270976,8.40000019 77.5386044,8.40000019 Z M91.6086047,8.40000019 C95.3285393,8.40000019 97.6500022,11.6079603 97.6500022,14.9284804 C97.6500022,15.2079522 97.6223326,15.5451623 97.5867828,15.8272587 L97.5860212,15.8332642 L97.5852428,15.8393207 C97.5544226,16.0781354 97.3523012,16.256792 97.1131093,16.2566431 L88.140395,16.2510605 C88.5319671,18.3052804 90.1262247,19.5153005 92.279871,19.5153005 C93.383189,19.5153005 94.54499,19.2328712 95.6366876,18.6680125 L95.9325886,18.5069577 C96.127935,18.3952818 96.3762127,18.4641893 96.4871331,18.6608671 L96.505128,18.6967744 L97.3367311,20.580942 C97.4010229,20.7266072 97.3487902,20.8976982 97.2143352,20.9818582 C97.1795886,21.003607 97.1489651,21.0224753 97.1224646,21.0384626 C95.8677078,21.7954374 94.0853494,22.4700005 92.279871,22.4700005 C88.0005478,22.4700005 84.8400019,19.2901804 84.8400019,15.3224404 C84.8400019,11.4954003 87.497098,8.40000019 91.6086047,8.40000019 Z M105.853522,8.40000019 C109.951376,8.40000019 112.045835,10.6867748 112.136898,14.3396356 L112.140003,14.5908004 L112.140003,21.9909506 C112.140003,22.2261256 111.971863,22.4217203 111.750134,22.4622824 L111.664698,22.4700005 L109.374277,22.4700005 C109.140941,22.4700005 108.946875,22.3005364 108.90663,22.0770604 L108.898973,21.9909506 L108.898973,14.9566204 C108.898973,12.7054203 107.781376,11.5516803 105.685882,11.5516803 C104.480973,11.5516803 103.276065,12.0215963 102.50857,12.7991218 L102.361032,12.9586803 L102.361032,21.9909506 C102.361032,22.2261256 102.192893,22.4217203 101.971164,22.4622824 L101.885728,22.4700005 L99.5953072,22.4700005 C99.3619707,22.4700005 99.1679051,22.3005364 99.1276601,22.0770604 L99.1200023,21.9909506 L99.1200023,9.3011502 C99.1200023,9.06597509 99.2881416,8.87038042 99.5098706,8.82981834 L99.5953072,8.8221002 L101.885728,8.8221002 C102.119064,8.8221002 102.31313,8.9915643 102.353375,9.21504036 L102.361032,9.3011502 L102.361032,9.38490021 C103.338929,8.8221002 104.596226,8.40000019 105.853522,8.40000019 Z M53.8009556,11.5250352 C51.7096693,11.5250352 50.1481754,13.171259 50.1481754,15.3755248 C50.1481754,17.5797905 51.7096693,19.2260144 53.8009556,19.2260144 C54.9999597,19.2260144 56.1153126,18.807483 57.0354786,17.7193011 L57.0354786,13.0317486 C56.1153126,12.0830772 54.9999597,11.5250352 53.8009556,11.5250352 Z M77.5386044,11.3547003 C75.6926218,11.3547003 74.6018139,12.4521603 74.1822724,13.7747403 L80.3075783,13.7747403 C80.1677311,12.4521603 78.9650454,11.3547003 77.5386044,11.3547003 Z M91.6086047,11.3547003 C89.7626221,11.3547003 88.6718143,12.4521603 88.2522727,13.7747403 L94.3775784,13.7747403 C94.2377312,12.4521603 93.0350459,11.3547003 91.6086047,11.3547003 Z M14.4738465,2.74043383 L14.4738465,7.07975143 C14.1351644,7.03729468 13.790123,7.01542388 13.4400003,7.01542388 C13.0898776,7.01542388 12.7448362,7.03729468 12.4061541,7.07975143 L12.4061541,2.74043383 L2.84709048,8.2885934 L7.59219565,11.0432046 C8.90848072,9.23162887 11.0375268,8.05474594 13.4400003,8.05474594 C15.8424738,8.05474594 17.9715199,9.23162887 19.287805,11.0432046 L24.0329102,8.2885934 L14.4738465,2.74043383 Z" id="Combined-Shape" fill="#1F2E77" fill-rule="nonzero"></path>
                <g id="nest-cmyk-indigo"></g>
            </g>
        </g>
    </g>
</svg>